<svg width="419" height="302" viewBox="0 0 419 302" fill="none" xmlns="http://www.w3.org/2000/svg">
<path d="M259.974 97.9881L319.949 81.918L289.877 194.151L227.098 210.972L259.974 97.9881ZM259.974 97.9881L346.966 164.13" stroke="white" stroke-width="2.06033" stroke-dasharray="4.12 4.12"/>
<path d="M158.557 204.004L98.582 220.074L128.655 107.842L191.434 91.0201L158.557 204.004ZM158.557 204.004L71.5656 137.862" stroke="white" stroke-width="2.06033" stroke-dasharray="4.12 4.12"/>
<path d="M270.717 168.238L210.742 184.309L240.815 72.0761L303.594 55.2545L270.717 168.238ZM270.717 168.238L183.726 102.096" stroke="white" stroke-width="2.06033" stroke-dasharray="4.12 4.12"/>
<path d="M147.818 133.754L207.793 117.684L177.72 229.916L114.941 246.738L147.818 133.754ZM147.818 133.754L234.809 199.896" stroke="white" stroke-width="2.06033" stroke-dasharray="4.12 4.12"/>
<path d="M306.945 193.079L336.449 79.9727L417.37 139.432L391.888 246.726L306.945 193.079Z" stroke="white" stroke-width="2.06033"/>
<path d="M111.586 108.913L82.0821 222.02L1.16096 162.561L26.6434 55.2661L111.586 108.913Z" stroke="white" stroke-width="2.06033"/>
<path d="M223.746 73.1478L194.242 186.254L113.321 126.795L138.804 19.5005L223.746 73.1478Z" stroke="white" stroke-width="2.06033"/>
<path d="M194.789 228.844L224.293 115.738L305.214 175.197L279.732 282.492L194.789 228.844Z" stroke="white" stroke-width="2.06033"/>
<path d="M337.458 265.23L375.695 255.168L342.121 234.029L303.246 209.551L243.543 217.601L312.637 259.193L347.012 164.163L417.371 139.43" stroke="white" stroke-width="2.06033"/>
<path d="M81.0735 36.762L42.8366 46.8243L76.4098 67.9636L115.285 92.4413L174.988 84.3911L105.894 42.7994L71.5196 137.829L1.15997 162.562" stroke="white" stroke-width="2.06033"/>
<path d="M193.234 0.996348L154.997 11.0587L188.57 32.198L227.445 56.6756L287.148 48.6255L218.054 7.03377L183.68 102.064L113.32 126.796" stroke="white" stroke-width="2.06033"/>
<path d="M225.298 300.996L263.535 290.933L229.961 269.794L191.086 245.317L131.383 253.367L200.477 294.958L234.852 199.929L305.211 175.196" stroke="white" stroke-width="2.06033"/>
</svg>
