<svg width="577" height="577" viewBox="0 0 577 577" fill="none" xmlns="http://www.w3.org/2000/svg">
<path opacity="0.5" d="M394.714 276.733L395.415 279.322L395.223 279.375L396.624 284.555L396.816 284.502V284.501L398.191 289.581H397.036V289.98H398.551V289.781H400.748V289.907H400.821V289.98H400.948V290.664H400.748V292.178H400.948V294.375H400.821V294.449H400.748V294.575H400.064V294.375H398.551V294.575H398.338L398.146 295.09L397.959 295.021L396.436 299.114L396.622 299.183L394.336 305.323L394.149 305.255L393.896 305.938L394.082 306.006L393.32 308.053L393.134 307.984L391.61 312.078L391.796 312.146L389.511 318.287L389.324 318.219L389.07 318.9L389.257 318.97L388.495 321.017L388.309 320.947L386.784 325.041L386.971 325.11L384.686 331.251L384.499 331.182L384.245 331.864L384.432 331.933L383.669 333.979L383.483 333.911L381.959 338.005L382.146 338.073L379.859 344.214L379.674 344.146L379.419 344.828L379.605 344.896L378.844 346.943L378.657 346.875L377.134 350.968L377.32 351.037L376.03 354.504H376.866V354.63H376.939V354.703H377.065V355.387H376.866V356.901H377.065V359.099H376.939V359.172H376.866V359.298H376.183V359.099H374.669V359.298H372.662L372.922 359.12L372.809 358.955L372.696 358.791L372.14 359.172H372.071V359.218L369.097 361.252L369.209 361.416L363.812 365.108L363.699 364.944L363.099 365.354L363.211 365.519L361.411 366.749L361.3 366.585L357.701 369.046L357.812 369.21L352.414 372.902L352.303 372.738L351.702 373.148L351.814 373.312L350.015 374.543L349.903 374.379L346.305 376.841L346.416 377.005L341.018 380.696L340.906 380.532L340.307 380.942L340.418 381.106L338.619 382.338L338.507 382.174L334.908 384.635L335.02 384.799L329.621 388.491L329.51 388.327L328.91 388.737L329.021 388.901L327.222 390.132L327.11 389.968L323.512 392.429L323.623 392.593L320.056 395.033V394.259H319.656V395.773H319.855V397.971H319.729V398.044H319.656V398.17H318.973V397.971H317.459V398.17H315.261V398.044H315.188V397.971H315.062V397.287H315.261V395.773H314.861V396.286L314.809 396.282L314.822 396.084L309.479 395.727L309.464 395.926L301.449 395.39L301.462 395.191L300.571 395.132L300.559 395.33L297.886 395.151L297.899 394.953L292.556 394.596L292.542 394.795H292.541L284.526 394.259L284.54 394.061L283.648 394.001L283.636 394.199L280.963 394.021L280.977 393.822L275.633 393.466L275.62 393.664L267.603 393.129H267.604L267.617 392.93L266.727 392.87L266.713 393.069L264.041 392.891L264.055 392.692L258.71 392.335L258.697 392.533L252.474 392.118V393.873H252.348V393.946H252.273V394.073H251.59V393.873H250.076V394.073H247.879V393.946H247.806V393.873H247.679V393.189H247.879V391.676H247.679V390.217L248.129 390.57L248.375 390.256L244.975 387.588L244.852 387.744L239.75 383.742L239.873 383.586L239.307 383.141L239.183 383.297L237.481 381.964L237.605 381.807L234.205 379.139L234.081 379.296L228.979 375.294L229.104 375.137L228.537 374.692L228.413 374.85L226.713 373.515L226.837 373.358L223.436 370.69L223.312 370.848L218.211 366.845L218.334 366.688L217.768 366.244L217.645 366.4L215.943 365.066L216.067 364.91L212.666 362.242L212.543 362.398L207.441 358.396L207.564 358.24L206.998 357.795L206.874 357.952L205.174 356.618L205.298 356.461L201.896 353.793L201.772 353.95L198.784 351.605V351.416H198.585V351.343H198.458V351.416H198.385V351.542H197.701V351.343H196.188V351.542H193.99V351.416H193.916V351.343H193.79V350.659H193.99V349.146H193.79V346.948H193.916V346.874H193.99V346.748H194.674V346.948H196.188V346.548H195.744L194.374 341.435L194.181 341.485L192.089 333.679L192.282 333.628L192.05 332.761L191.856 332.812L191.159 330.209L191.353 330.158L189.958 324.954L189.765 325.005L187.673 317.198L187.866 317.147L187.634 316.28L187.44 316.331L186.743 313.729L186.937 313.678L186.909 313.576H187.514V313.177H186.803L185.625 308.782H185.999V308.383H185.311L183.257 300.718L183.45 300.667L183.218 299.8L183.024 299.851L182.327 297.248L182.521 297.197L181.126 291.993L180.933 292.045L179.369 286.206H179.454V285.807H177.94V286.007H175.743V285.88H175.669V285.807H175.543V285.123H175.743V283.609H175.543V281.412H175.669V281.338H175.743V281.212H176.426V281.412H177.94V281.212H179.673L179.801 280.859L179.988 280.928L181.833 275.878L181.645 275.81L184.411 268.234L184.599 268.303L184.906 267.461L184.719 267.393L185.641 264.868L185.828 264.937L187.672 259.887L187.484 259.818L190.25 252.243L190.438 252.312L190.745 251.471L190.558 251.401L191.479 248.877L191.667 248.945L193.512 243.896L193.323 243.826L196.09 236.252L196.277 236.321L196.585 235.479L196.396 235.41L197.318 232.885L197.319 232.886L197.507 232.954L199.351 227.904L199.163 227.836L201.46 221.546H199.415V221.419H199.341V221.346H199.215V220.662H199.415V219.148H199.215V216.951H199.341V216.877H199.415V216.751H200.099V216.951H201.612V216.751H203.81V216.877H203.883V216.951H204.01V217.635H203.81V219.148H204.209V218.448L204.304 218.589L207.92 216.16L207.809 215.994L207.808 215.993L213.232 212.35L213.345 212.516L213.947 212.111L213.835 211.944L215.644 210.73L215.755 210.896L219.372 208.467L219.26 208.302L219.259 208.301L224.685 204.657L224.796 204.823L225.398 204.418L225.287 204.252L227.095 203.037L227.207 203.203L230.823 200.774L230.712 200.608L236.136 196.965L236.248 197.13L236.851 196.726L236.739 196.56L238.547 195.345L238.658 195.511L242.274 193.081L242.163 192.916L247.588 189.271L247.699 189.438L248.302 189.032L248.19 188.867L249.999 187.652L250.11 187.818L253.727 185.389L253.615 185.223L256.752 183.116H256.409V182.99H256.336V182.917H256.21V182.233H256.409V180.72H256.21V178.522H256.336V178.448H256.409V178.322H257.093V178.522H258.606V178.322H260.805V178.448H260.878V178.522H261.004V179.205H260.805V180.72H261.004V181.496L261.506 181.532L261.492 181.731L265.206 181.999L265.221 181.8V181.799L270.791 182.199V182.2L270.776 182.399L271.396 182.444L271.41 182.245V182.244L273.266 182.378L273.252 182.577L276.966 182.845L276.98 182.646V182.645L280.028 182.864V183.835H280.428V182.32H280.229V180.123H280.354V180.05H280.428V179.924H281.111V180.123H282.625V179.924H284.823V180.05H284.896V180.123H285.022V180.807H284.823V182.32H285.022V183.157L285.586 183.18V183.181L285.577 183.381L290.25 183.574L290.258 183.374V183.373L297.267 183.662V183.664L297.259 183.863L298.037 183.896L298.046 183.696V183.694L300.382 183.791V183.792L300.373 183.992L305.046 184.186L305.054 183.985V183.984L312.062 184.273V184.275L312.055 184.475L312.833 184.507L312.842 184.308V184.306L315.178 184.402V184.403L315.17 184.604L319.842 184.796L319.851 184.597V184.596L324.329 184.78V185.703H324.729V184.188H324.528V181.991H324.654V181.918H324.729V181.792H325.411V181.991H326.926V181.792H329.123V181.918H329.196V181.991H329.323V182.675H329.123V184.188H329.323V186.35L329.295 186.386H329.196V186.46H329.123V186.586H329.139L329.116 186.614L329.196 186.677V186.786H329.336L332.529 189.279L332.651 189.122V189.121L337.771 193.119V193.12L337.648 193.277L338.217 193.722L338.34 193.564V193.563L340.046 194.896V194.896L339.923 195.054L343.336 197.72L343.459 197.562V197.561L348.578 201.559V201.56L348.455 201.717L349.024 202.161L349.147 202.004V202.003L350.854 203.335V203.336L350.73 203.494L354.144 206.159L354.267 206.002V206.001L359.386 209.998V209.999L359.263 210.156L359.831 210.601L359.954 210.443V210.442L361.661 211.775V211.776L361.538 211.934L364.95 214.599L365.073 214.44L370.192 218.438V218.438L370.07 218.597L370.639 219.04L370.762 218.883V218.882L372.468 220.215L372.345 220.373L375.758 223.038L375.881 222.88L378.156 224.657V224.22H378.282V224.146H378.355V224.02H379.039V224.22H380.553V224.02H382.75V224.146H382.824V224.22H382.95V224.903H382.75V226.417H382.95V228.614H382.824V228.688H382.75V228.814H382.067V228.614H380.553V229.014H381.802L382.102 230.121L381.909 230.174L383.311 235.353L383.503 235.301V235.3L385.604 243.069H385.605L385.413 243.122L385.646 243.984L385.839 243.933V243.932L386.539 246.522H386.54L386.347 246.574L387.748 251.754L387.94 251.701L390.043 259.469V259.47L389.851 259.522L390.084 260.385L390.276 260.333V260.332L390.977 262.923H390.978L390.785 262.975L392.187 268.154L392.378 268.102L394.48 275.87L394.288 275.923L394.521 276.786L394.714 276.733ZM317.87 396.287L317.494 396.262L317.48 396.461L317.468 396.661L317.913 396.69L317.981 396.695L318.039 396.656L318.339 396.451L318.226 396.286L318.113 396.121L317.87 396.287ZM314.861 393.176V393.502H315.062V393.576H315.188V393.502H315.261V393.376H315.188V393.176H314.861ZM315.944 393.176V393.576H317.459V393.176H315.944ZM319.729 393.176V393.376H319.656V393.502H319.729V393.576H319.855V393.502H320.056V393.176H319.729ZM249.952 391.747L249.829 391.904L250.112 392.126L250.161 392.164L250.223 392.168L250.668 392.198L250.681 391.999L250.694 391.8L250.311 391.773L250.076 391.59L249.952 391.747ZM252.273 390.162V391.676H252.673V390.162H252.273ZM247.479 389.079V389.404H247.679V389.479H247.806V389.404H247.879V389.278H247.806V389.079H247.479ZM248.562 389.079V389.479H250.076V389.079H248.562ZM252.348 389.079V389.278H252.273V389.404H252.348V389.479H252.474V389.404H252.673V389.079H252.348ZM265.436 373.841V373.914H265.235V374.24H265.562V374.04H265.636V373.914H265.562V373.841H265.436ZM267.833 373.841V374.24H269.347V373.841H267.833ZM270.104 373.841V373.914H270.03V374.04H270.104V374.24H270.43V373.914H270.229V373.841H270.104ZM265.235 371.643V373.157H265.636V371.643H265.235ZM270.03 370.129V371.643H270.43V370.129H270.03ZM265.235 369.046V369.372H265.436V369.445H265.562V369.372H265.636V369.246H265.562V369.046H265.235ZM266.318 369.046V369.445H267.833V369.046H266.318ZM270.104 369.046V369.246H270.03V369.372H270.104V369.445H270.229V369.372H270.43V369.046H270.104ZM372.071 356.901V358.415H372.471V356.901H372.071ZM374.742 357.39L374.495 357.56L374.608 357.725L374.721 357.89L375.021 357.685L375.073 357.648L375.096 357.59L375.223 357.248L375.035 357.179L374.848 357.108L374.742 357.39ZM372.071 354.304V354.63H372.271V354.703H372.397V354.63H372.471V354.504H372.397V354.304H372.071ZM373.154 354.304V354.703H374.669V354.304H373.154ZM196.272 349.293L196.08 349.345L196.196 349.778L196.213 349.843L196.266 349.884L196.549 350.105L196.672 349.948L196.796 349.791L196.564 349.61L196.466 349.241L196.272 349.293ZM198.385 347.631V349.146H198.784V347.631H198.385ZM308.933 348.023V348.097H308.733V348.423H309.059V348.223H309.133V348.097H309.059V348.023H308.933ZM311.33 348.023V348.423H312.844V348.023H311.33ZM313.601 348.023V348.097H313.527V348.223H313.601V348.423H313.927V348.097H313.728V348.023H313.601ZM308.733 345.826V347.34H309.133V345.826H308.733ZM198.458 346.548V346.748H198.385V346.874H198.458V346.948H198.585V346.874H198.784V346.548H198.458ZM313.527 344.312V345.826H313.927V344.312H313.527ZM308.733 343.229V343.555H308.933V343.628H309.059V343.555H309.133V343.429H309.059V343.229H308.733ZM309.815 343.229V343.628H311.33V343.229H309.815ZM313.601 343.229V343.429H313.527V343.555H313.601V343.628H313.728V343.555H313.927V343.229H313.601ZM254.706 322.615V322.689H254.506V323.015H254.832V322.815H254.905V322.689H254.832V322.615H254.706ZM257.104 322.615V323.015H258.617V322.615H257.104ZM259.374 322.615V322.689H259.301V322.815H259.374V323.015H259.7V322.689H259.5V322.615H259.374ZM254.506 320.418V321.933H254.905V320.418H254.506ZM259.301 318.904V320.418H259.7V318.904H259.301ZM254.506 317.821V318.147H254.706V318.221H254.832V318.147H254.905V318.021H254.832V317.821H254.506ZM255.589 317.821V318.221H257.104V317.821H255.589ZM259.374 317.821V318.021H259.301V318.147H259.374V318.221H259.5V318.147H259.7V317.821H259.374ZM188.271 313.177V313.25H188.197V313.377H188.271V313.576H188.597V313.25H188.396V313.177H188.271ZM184.485 308.582V308.782H185.211L186.389 313.177H185.999V313.377H183.802V313.25H183.729V313.177H183.603V312.493H183.802V310.979H183.603V308.782H183.729V308.708H183.802V308.582H184.485ZM188.197 309.465V310.979H188.597V309.465H188.197ZM188.271 308.383V308.582H188.197V308.708H188.271V308.782H188.396V308.708H188.597V308.383H188.271ZM396.153 294.375V294.449H395.954V294.775H396.279V294.575H396.354V294.449H396.279V294.375H396.153ZM395.954 292.178V293.692H396.354V292.178H395.954ZM398.919 292.271L398.726 292.323L398.825 292.693L398.722 292.974L398.908 293.044L399.096 293.113L399.223 292.772L399.245 292.712L399.229 292.65L399.111 292.219L398.919 292.271ZM395.954 289.581V289.907H396.153V289.98H396.279V289.907H396.354V289.781H396.279V289.581H395.954ZM180.211 285.807V285.88H180.138V286.007H180.211V286.206H180.537V285.88H180.337V285.807H180.211ZM178.537 283.736L178.516 283.796L178.532 283.856L178.648 284.29L178.842 284.238L179.034 284.187L178.934 283.813L179.066 283.452L178.691 283.315L178.537 283.736ZM180.138 282.095V283.609H180.537V282.095H180.138ZM180.211 281.013V281.212H180.138V281.338H180.211V281.412H180.337V281.338H180.537V281.013H180.211ZM365.003 271.187V271.26H364.803V271.586H365.129V271.386H365.202V271.26H365.129V271.187H365.003ZM367.399 271.187V271.586H368.914V271.187H367.399ZM369.671 271.187V271.26H369.598V271.386H369.671V271.586H369.997V271.26H369.797V271.187H369.671ZM311.009 270.84V270.913H310.81V271.239H311.136V271.04H311.209V270.913H311.136V270.84H311.009ZM313.406 270.84V271.239H314.92V270.84H313.406ZM315.678 270.84V270.913H315.604V271.04H315.678V271.239H316.003V270.913H315.804V270.84H315.678ZM364.803 268.989V270.503H365.202V268.989H364.803ZM310.81 268.643V270.156H311.209V268.643H310.81ZM369.598 267.475V268.989H369.997V267.475H369.598ZM315.604 267.129V268.643H316.003V267.129H315.604ZM364.803 266.392V266.718H365.003V266.791H365.129V266.718H365.202V266.592H365.129V266.392H364.803ZM365.886 266.392V266.791H367.399V266.392H365.886ZM369.671 266.392V266.592H369.598V266.718H369.671V266.791H369.797V266.718H369.997V266.392H369.671ZM310.81 266.046V266.371H311.009V266.445H311.136V266.371H311.209V266.245H311.136V266.046H310.81ZM311.893 266.046V266.445H313.406V266.046H311.893ZM315.678 266.046V266.245H315.604V266.371H315.678V266.445H315.804V266.371H316.003V266.046H315.678ZM205.581 244.798V244.871H205.381V245.197H205.707V244.998H205.781V244.871H205.707V244.798H205.581ZM207.979 244.798V245.197H209.492V244.798H207.979ZM210.249 244.798V244.871H210.176V244.998H210.249V245.197H210.575V244.871H210.375V244.798H210.249ZM205.381 242.601V244.114H205.781V242.601H205.381ZM210.176 241.087V242.601H210.575V241.087H210.176ZM205.381 240.004V240.329H205.581V240.403H205.707V240.329H205.781V240.203H205.707V240.004H205.381ZM206.464 240.004V240.403H207.979V240.004H206.464ZM210.249 240.004V240.203H210.176V240.329H210.249V240.403H210.375V240.329H210.575V240.004H210.249ZM243.477 239.46V239.534H243.276V239.86H243.603V239.66H243.676V239.534H243.603V239.46H243.477ZM245.873 239.46V239.86H247.388V239.46H245.873ZM248.145 239.46V239.534H248.071V239.66H248.145V239.86H248.471V239.534H248.271V239.46H248.145ZM243.276 237.263V238.777H243.676V237.263H243.276ZM248.071 235.749V237.263H248.471V235.749H248.071ZM243.276 234.666V234.992H243.477V235.065H243.603V234.992H243.676V234.866H243.603V234.666H243.276ZM244.359 234.666V235.065H245.873V234.666H244.359ZM248.145 234.666V234.866H248.071V234.992H248.145V235.065H248.271V234.992H248.471V234.666H248.145ZM378.156 228.614V228.688H377.956V229.014H378.282V228.814H378.355V228.688H378.282V228.614H378.156ZM377.956 226.417V227.932H378.355V226.417H377.956ZM381 226.879L380.877 227.036L381.108 227.217L381.208 227.584L381.401 227.532L381.594 227.48L381.478 227.049L381.46 226.984L381.407 226.943L381.123 226.721L381 226.879ZM201.612 221.346V221.745H203.126V221.346H201.612ZM203.883 221.346V221.419H203.81V221.546H203.883V221.745H204.209V221.419H204.01V221.346H203.883ZM201.972 219.675L201.918 219.711L201.896 219.771L201.741 220.192L201.93 220.262L202.117 220.33L202.248 219.969L202.496 219.804L202.384 219.638L202.272 219.473L201.972 219.675ZM324.528 186.386V186.46H324.329V186.786H324.654V186.586H324.729V186.46H324.654V186.386H324.528ZM326.926 186.386V186.786H328.439V186.386H326.926ZM326.858 184.887L326.851 185.086L327.175 185.099L327.409 185.282L327.532 185.125L327.655 184.967L327.371 184.745L327.32 184.705L327.257 184.703L326.867 184.687L326.858 184.887ZM280.229 184.519V184.592H280.028V184.918H280.354V184.718H280.428V184.592H280.354V184.519H280.229ZM282.625 184.519V184.918H284.14V184.519H282.625ZM284.896 184.519V184.592H284.823V184.718H284.896V184.918H285.223V184.592H285.022V184.519H284.896ZM258.606 182.917V183.316H260.121V182.917H258.606ZM260.878 182.917V182.99H260.805V183.116H260.878V183.316H261.204V182.99H261.004V182.917H260.878ZM282.536 183.245L282.846 183.268L282.852 183.269L283.241 183.284L283.25 183.085L283.258 182.885L282.874 182.869H282.875L282.565 182.847L282.536 183.245ZM259.229 181.211L258.928 181.413L259.15 181.745L259.394 181.58L259.636 181.598L259.65 181.398L259.664 181.199L259.354 181.177L259.286 181.172L259.229 181.211Z" stroke="#888888" stroke-width="0.39953" stroke-dasharray="0.8 2.4 4.79 7.19"/>
<path d="M98.8321 70.3632L477.659 506.13M211.268 9.99299L365.223 566.501M338.745 3.99196L237.746 572.501M456.355 53.5337L120.138 522.96M541.117 148.937L35.3755 427.557M576.469 271.561L0.0234375 304.933M555.504 397.445L20.9887 179.049M482.318 501.992L94.1752 74.5012M371.21 564.775L205.282 11.719M243.892 573.526L332.599 2.9695M125.241 526.534L451.25 49.9616M38.4392 432.982L538.05 143.514M0.448908 311.149L576.04 265.346M18.6927 184.842L557.796 391.653M89.606 78.7389L486.883 497.755M199.332 13.5726L377.157 562.919M326.432 2.07697L250.058 574.415M446.071 46.4977L130.421 529.994M534.87 138.155L41.622 438.337M575.481 259.14L1.01202 317.353M559.967 385.812L16.5261 190.682M491.36 493.42L85.1333 83.0743M383.065 560.938L193.427 15.5567M256.242 575.173L320.248 1.32092M135.674 533.344L440.817 43.1492M44.9175 443.625L531.573 132.868M1.70616 323.544L574.785 252.948M14.4833 196.568L562.008 379.925M80.7524 87.5048L495.739 488.989M187.565 17.6654L388.927 558.828M314.049 0.696604L262.442 575.797M506.13 98.8334L70.3624 477.66M566.5 211.269L9.99226 365.224M572.5 338.746L3.99125 237.748M522.959 456.355L53.5325 120.138M427.556 541.117L148.936 35.3756M304.931 576.469L271.559 0.0234375M179.048 555.504L397.444 20.9888M74.5002 482.318L501.991 94.1752M11.7184 371.211L564.774 205.282M2.96855 243.893L573.525 332.6M49.9603 125.242L526.532 451.251M143.512 38.4414L432.981 538.053M265.344 0.451823L311.148 576.043M391.651 18.6956L184.84 557.799M497.754 89.6089L78.7381 486.886M562.919 199.335L13.5728 377.16M574.414 326.435L2.07671 250.061M529.994 446.072L46.4973 130.423M438.336 534.871L138.154 41.6227M317.351 575.481L259.138 1.01191M190.68 559.967L385.81 16.526M83.0721 491.359L493.417 85.1325M15.5544 383.064L560.936 193.427M1.31913 256.243L575.172 320.249M43.148 135.674L533.343 440.817M132.868 44.918L443.624 531.574M252.948 1.70659L323.544 574.786M379.925 14.4838L196.567 562.009M488.989 80.753L87.5052 495.74M558.828 187.566L17.6661 388.929M575.797 314.052L0.696941 262.444" stroke="white" stroke-width="0.810363" stroke-dasharray="1.62 3.24 4.86 6.48"/>
</svg>
