<svg width="575" height="507" viewBox="0 0 575 507" fill="none" xmlns="http://www.w3.org/2000/svg">
<g clip-path="url(#clip0_186_233)">
<rect x="582" width="507" height="582" transform="rotate(90 582 0)" fill="#111111"/>
<path d="M16 246C16 248.761 18.2386 251 21 251C23.7614 251 26 248.761 26 246C26 243.239 23.7614 241 21 241C18.2386 241 16 243.239 16 246Z" fill="#B2B2B2"/>
<path d="M36 251H46V241H36V251Z" fill="#555555"/>
<path d="M56 251H66V241H56V251Z" fill="#B2B2B2"/>
<path d="M76 251H86V241H76V251Z" fill="#B2B2B2"/>
<path d="M96 251H106V241H96V251Z" fill="white"/>
<path d="M116 251H126V241H116V251Z" fill="#B2B2B2"/>
<path d="M136 251H146V241H136V251Z" fill="#B2B2B2"/>
<path d="M156 251H166V241H156V251Z" fill="white"/>
<path d="M186 241H176V251H186V241Z" fill="#3F3F3F"/>
<path d="M206 241H196V251H206V241Z" fill="#B2B2B2"/>
<path d="M226 241H216V251H226V241Z" fill="#E82910"/>
<path d="M246 241H236V251H246V241Z" fill="#B2B2B2"/>
<path d="M266 241H256V251H266V241Z" fill="#B2B2B2"/>
<path d="M286 241H276V251H286V241Z" fill="#E82910"/>
<path d="M306 241H296V251H306V241Z" fill="white"/>
<path d="M326 246C326 243.239 323.761 241 321 241C318.239 241 316 243.239 316 246C316 248.761 318.239 251 321 251C323.761 251 326 248.761 326 246Z" fill="#B2B2B2"/>
<path d="M336 246C336 243.239 338.239 241 341 241C343.761 241 346 243.239 346 246C346 248.761 343.761 251 341 251C338.239 251 336 248.761 336 246Z" fill="#B2B2B2"/>
<path d="M356 241H366V251H356V241Z" fill="white"/>
<path d="M376 241H386V251H376V241Z" fill="#E82910"/>
<path d="M396 241H406V251H396V241Z" fill="#B2B2B2"/>
<path d="M416 241H426V251H416V241Z" fill="#B2B2B2"/>
<path d="M436 241H446V251H436V241Z" fill="#E82910"/>
<path d="M456 241H466V251H456V241Z" fill="#B2B2B2"/>
<path d="M476 241H486V251H476V241Z" fill="#3F3F3F"/>
<path d="M506 251H496V241H506V251Z" fill="white"/>
<path d="M526 251H516V241H526V251Z" fill="#B2B2B2"/>
<path d="M546 251H536V241H546V251Z" fill="#B2B2B2"/>
<path d="M566 251H556V241H566V251Z" fill="white"/>
<path d="M16 236H26V226H16V236Z" fill="#B2B2B2"/>
<path d="M36 236H46V226H36V236Z" fill="#555555"/>
<path d="M56 236H66V226H56V236Z" fill="#B2B2B2"/>
<path d="M76 236H86V226H76V236Z" fill="#741508"/>
<path d="M96 236H106V226H96V236Z" fill="white"/>
<path d="M116 236H126V226H116V236Z" fill="#B2B2B2"/>
<path d="M136 236H146V226H136V236Z" fill="#B2B2B2"/>
<path d="M156 236H166V226H156V236Z" fill="white"/>
<path d="M186 226H176V236H186V226Z" fill="#3F3F3F"/>
<path d="M206 226H196V236H206V226Z" fill="#B2B2B2"/>
<path d="M226 226H216V236H226V226Z" fill="#E82910"/>
<path d="M246 226H236V236H246V226Z" fill="#B2B2B2"/>
<path d="M266 226H256V236H266V226Z" fill="#888888"/>
<path d="M286 226H276V236H286V226Z" fill="#E82910"/>
<path d="M306 226H296V236H306V226Z" fill="white"/>
<path d="M326 226H316V236H326V226Z" fill="#B2B2B2"/>
<path d="M336 226H346V236H336V226Z" fill="#B2B2B2"/>
<path d="M356 226H366V236H356V226Z" fill="white"/>
<path d="M376 226H386V236H376V226Z" fill="#E82910"/>
<path d="M396 226H406V236H396V226Z" fill="#888888"/>
<path d="M416 226H426V236H416V226Z" fill="#B2B2B2"/>
<path d="M436 226H446V236H436V226Z" fill="#E82910"/>
<path d="M456 226H466V236H456V226Z" fill="#B2B2B2"/>
<path d="M476 226H486V236H476V226Z" fill="#3F3F3F"/>
<path d="M506 236H496V226H506V236Z" fill="white"/>
<path d="M526 236H516V226H526V236Z" fill="#B2B2B2"/>
<path d="M546 236H536V226H546V236Z" fill="#B2B2B2"/>
<path d="M566 236H556V226H566V236Z" fill="white"/>
<path d="M16 221H26V211H16V221Z" fill="#B2B2B2"/>
<path d="M36 221H46V211H36V221Z" fill="#555555"/>
<path d="M56 221H66V211H56V221Z" fill="#B2B2B2"/>
<path d="M76 221H86V211H76V221Z" fill="#741508"/>
<path d="M96 221H106V211H96V221Z" fill="white"/>
<path d="M116 221H126V211H116V221Z" fill="#B2B2B2"/>
<path d="M136 221H146V211H136V221Z" fill="#B2B2B2"/>
<path d="M156 216C156 218.761 158.239 221 161 221C163.761 221 166 218.761 166 216C166 213.239 163.761 211 161 211C158.239 211 156 213.239 156 216Z" fill="#555555"/>
<path d="M186 211H176V221H186V211Z" fill="#3F3F3F"/>
<path d="M206 211H196V221H206V211Z" fill="#B2B2B2"/>
<path d="M226 211H216V221H226V211Z" fill="#E82910"/>
<path d="M246 216C246 213.239 243.761 211 241 211C238.239 211 236 213.239 236 216C236 218.761 238.239 221 241 221C243.761 221 246 218.761 246 216Z" fill="#B2B2B2"/>
<path d="M266 216C266 213.239 263.761 211 261 211C258.239 211 256 213.239 256 216C256 218.761 258.239 221 261 221C263.761 221 266 218.761 266 216Z" fill="#741508"/>
<path d="M286 211H276V221H286V211Z" fill="#E82910"/>
<path d="M306 211H296V221H306V211Z" fill="white"/>
<path d="M326 211H316V221H326V211Z" fill="#B2B2B2"/>
<path d="M336 211H346V221H336V211Z" fill="#B2B2B2"/>
<path d="M356 211H366V221H356V211Z" fill="white"/>
<path d="M376 211H386V221H376V211Z" fill="#E82910"/>
<path d="M396 216C396 213.239 398.239 211 401 211C403.761 211 406 213.239 406 216C406 218.761 403.761 221 401 221C398.239 221 396 218.761 396 216Z" fill="#741508"/>
<path d="M416 216C416 213.239 418.239 211 421 211C423.761 211 426 213.239 426 216C426 218.761 423.761 221 421 221C418.239 221 416 218.761 416 216Z" fill="#B2B2B2"/>
<path d="M436 211H446V221H436V211Z" fill="#E82910"/>
<path d="M456 211H466V221H456V211Z" fill="#B2B2B2"/>
<path d="M476 211H486V221H476V211Z" fill="#3F3F3F"/>
<path d="M506 216C506 218.761 503.761 221 501 221C498.239 221 496 218.761 496 216C496 213.239 498.239 211 501 211C503.761 211 506 213.239 506 216Z" fill="#555555"/>
<path d="M526 221H516V211H526V221Z" fill="#B2B2B2"/>
<path d="M546 221H536V211H546V221Z" fill="#B2B2B2"/>
<path d="M566 221H556V211H566V221Z" fill="white"/>
<path d="M16 206H26V196H16V206Z" fill="#B2B2B2"/>
<path d="M36 206H46V196H36V206Z" fill="#555555"/>
<path d="M56 206H66V196H56V206Z" fill="#B2B2B2"/>
<path d="M76 206H86V196H76V206Z" fill="#741508"/>
<path d="M96 206H106V196H96V206Z" fill="white"/>
<path d="M116 206H126V196H116V206Z" fill="#B2B2B2"/>
<path d="M136 206H146V196H136V206Z" fill="#B2B2B2"/>
<path d="M156 201C156 203.761 158.239 206 161 206C163.761 206 166 203.761 166 201C166 198.239 163.761 196 161 196C158.239 196 156 198.239 156 201Z" fill="#555555"/>
<path d="M186 196H176V206H186V196Z" fill="#3F3F3F"/>
<path d="M206 196H196V206H206V196Z" fill="#B2B2B2"/>
<path d="M226 196H216V206H226V196Z" fill="#E82910"/>
<path d="M246 201C246 198.239 243.761 196 241 196C238.239 196 236 198.239 236 201C236 203.761 238.239 206 241 206C243.761 206 246 203.761 246 201Z" fill="#B2B2B2"/>
<path d="M266 201C266 198.239 263.761 196 261 196C258.239 196 256 198.239 256 201C256 203.761 258.239 206 261 206C263.761 206 266 203.761 266 201Z" fill="#741508"/>
<path d="M286 196H276V206H286V196Z" fill="#E82910"/>
<path d="M306 196H296V206H306V196Z" fill="white"/>
<path d="M326 196H316V206H326V196Z" fill="#B2B2B2"/>
<path d="M336 196H346V206H336V196Z" fill="#B2B2B2"/>
<path d="M356 196H366V206H356V196Z" fill="white"/>
<path d="M376 196H386V206H376V196Z" fill="#E82910"/>
<path d="M396 201C396 198.239 398.239 196 401 196C403.761 196 406 198.239 406 201C406 203.761 403.761 206 401 206C398.239 206 396 203.761 396 201Z" fill="#741508"/>
<path d="M416 201C416 198.239 418.239 196 421 196C423.761 196 426 198.239 426 201C426 203.761 423.761 206 421 206C418.239 206 416 203.761 416 201Z" fill="#B2B2B2"/>
<path d="M436 196H446V206H436V196Z" fill="#E82910"/>
<path d="M456 196H466V206H456V196Z" fill="#B2B2B2"/>
<path d="M476 196H486V206H476V196Z" fill="#3F3F3F"/>
<path d="M506 201C506 203.761 503.761 206 501 206C498.239 206 496 203.761 496 201C496 198.239 498.239 196 501 196C503.761 196 506 198.239 506 201Z" fill="#555555"/>
<path d="M526 206H516V196H526V206Z" fill="#B2B2B2"/>
<path d="M546 206H536V196H546V206Z" fill="#B2B2B2"/>
<path d="M566 206H556V196H566V206Z" fill="white"/>
<path d="M16 191H26V181H16V191Z" fill="#B2B2B2"/>
<path d="M36 191H46V181H36V191Z" fill="#555555"/>
<path d="M56 191H66V181H56V191Z" fill="#B2B2B2"/>
<path d="M76 186C76 188.761 78.2386 191 81 191C83.7614 191 86 188.761 86 186C86 183.239 83.7614 181 81 181C78.2386 181 76 183.239 76 186Z" fill="#E82910"/>
<path d="M96 186C96 188.761 98.2386 191 101 191C103.761 191 106 188.761 106 186C106 183.239 103.761 181 101 181C98.2386 181 96 183.239 96 186Z" fill="#3F3F3F"/>
<path d="M116 191H126V181H116V191Z" fill="#B2B2B2"/>
<path d="M136 191H146V181H136V191Z" fill="#B2B2B2"/>
<path d="M156 186C156 188.761 158.239 191 161 191C163.761 191 166 188.761 166 186C166 183.239 163.761 181 161 181C158.239 181 156 183.239 156 186Z" fill="#555555"/>
<path d="M186 181H176V191H186V181Z" fill="#3F3F3F"/>
<path d="M206 181H196V191H206V181Z" fill="#B2B2B2"/>
<path d="M226 181H216V191H226V181Z" fill="#E82910"/>
<path d="M246 186C246 183.239 243.761 181 241 181C238.239 181 236 183.239 236 186C236 188.761 238.239 191 241 191C243.761 191 246 188.761 246 186Z" fill="#3F3F3F"/>
<path d="M266 186C266 183.239 263.761 181 261 181C258.239 181 256 183.239 256 186C256 188.761 258.239 191 261 191C263.761 191 266 188.761 266 186Z" fill="#741508"/>
<path d="M286 181H276V191H286V181Z" fill="#E82910"/>
<path d="M306 181H296V191H306V181Z" fill="white"/>
<path d="M326 181H316V191H326V181Z" fill="#B2B2B2"/>
<path d="M336 181H346V191H336V181Z" fill="#B2B2B2"/>
<path d="M356 181H366V191H356V181Z" fill="white"/>
<path d="M376 181H386V191H376V181Z" fill="#E82910"/>
<path d="M396 186C396 183.239 398.239 181 401 181C403.761 181 406 183.239 406 186C406 188.761 403.761 191 401 191C398.239 191 396 188.761 396 186Z" fill="#741508"/>
<path d="M416 186C416 183.239 418.239 181 421 181C423.761 181 426 183.239 426 186C426 188.761 423.761 191 421 191C418.239 191 416 188.761 416 186Z" fill="#3F3F3F"/>
<path d="M436 181H446V191H436V181Z" fill="#E82910"/>
<path d="M456 181H466V191H456V181Z" fill="#B2B2B2"/>
<path d="M476 181H486V191H476V181Z" fill="#3F3F3F"/>
<path d="M506 186C506 188.761 503.761 191 501 191C498.239 191 496 188.761 496 186C496 183.239 498.239 181 501 181C503.761 181 506 183.239 506 186Z" fill="#555555"/>
<path d="M526 191H516V181H526V191Z" fill="#B2B2B2"/>
<path d="M546 191H536V181H546V191Z" fill="#B2B2B2"/>
<path d="M566 186C566 188.761 563.761 191 561 191C558.239 191 556 188.761 556 186C556 183.239 558.239 181 561 181C563.761 181 566 183.239 566 186Z" fill="#3F3F3F"/>
<path d="M16 176H26V166H16V176Z" fill="#B2B2B2"/>
<path d="M36 176H46V166H36V176Z" fill="#555555"/>
<path d="M56 176H66V166H56V176Z" fill="#B2B2B2"/>
<path d="M76 171C76 173.761 78.2386 176 81 176C83.7614 176 86 173.761 86 171C86 168.239 83.7614 166 81 166C78.2386 166 76 168.239 76 171Z" fill="#E82910"/>
<path d="M96 171C96 173.761 98.2386 176 101 176C103.761 176 106 173.761 106 171C106 168.239 103.761 166 101 166C98.2386 166 96 168.239 96 171Z" fill="#3F3F3F"/>
<path d="M116 176H126V166H116V176Z" fill="#B2B2B2"/>
<path d="M136 176H146V166H136V176Z" fill="#B2B2B2"/>
<path d="M156 171C156 173.761 158.239 176 161 176C163.761 176 166 173.761 166 171C166 168.239 163.761 166 161 166C158.239 166 156 168.239 156 171Z" fill="#555555"/>
<path d="M186 166H176V176H186V166Z" fill="#3F3F3F"/>
<path d="M206 166H196V176H206V166Z" fill="#B2B2B2"/>
<path d="M226 166H216V176H226V166Z" fill="#741508"/>
<path d="M246 171C246 168.239 243.761 166 241 166C238.239 166 236 168.239 236 171C236 173.761 238.239 176 241 176C243.761 176 246 173.761 246 171Z" fill="#3F3F3F"/>
<path d="M266 171C266 168.239 263.761 166 261 166C258.239 166 256 168.239 256 171C256 173.761 258.239 176 261 176C263.761 176 266 173.761 266 171Z" fill="#E82910"/>
<path d="M286 166H276V176H286V166Z" fill="#E82910"/>
<path d="M306 166H296V176H306V166Z" fill="white"/>
<path d="M326 166H316V176H326V166Z" fill="#B2B2B2"/>
<path d="M336 166H346V176H336V166Z" fill="#B2B2B2"/>
<path d="M356 166H366V176H356V166Z" fill="white"/>
<path d="M376 166H386V176H376V166Z" fill="#E82910"/>
<path d="M396 171C396 168.239 398.239 166 401 166C403.761 166 406 168.239 406 171C406 173.761 403.761 176 401 176C398.239 176 396 173.761 396 171Z" fill="#E82910"/>
<path d="M416 171C416 168.239 418.239 166 421 166C423.761 166 426 168.239 426 171C426 173.761 423.761 176 421 176C418.239 176 416 173.761 416 171Z" fill="#3F3F3F"/>
<path d="M436 166H446V176H436V166Z" fill="#741508"/>
<path d="M456 166H466V176H456V166Z" fill="#B2B2B2"/>
<path d="M476 166H486V176H476V166Z" fill="#3F3F3F"/>
<path d="M506 171C506 173.761 503.761 176 501 176C498.239 176 496 173.761 496 171C496 168.239 498.239 166 501 166C503.761 166 506 168.239 506 171Z" fill="#555555"/>
<path d="M526 176H516V166H526V176Z" fill="#B2B2B2"/>
<path d="M546 176H536V166H546V176Z" fill="#B2B2B2"/>
<path d="M566 171C566 173.761 563.761 176 561 176C558.239 176 556 173.761 556 171C556 168.239 558.239 166 561 166C563.761 166 566 168.239 566 171Z" fill="#3F3F3F"/>
<path d="M16 161H26V151H16V161Z" fill="#B2B2B2"/>
<path d="M36 161H46V151H36V161Z" fill="#555555"/>
<path d="M56 161H66V151H56V161Z" fill="#E82910"/>
<path d="M76 156C76 158.761 78.2386 161 81 161C83.7614 161 86 158.761 86 156C86 153.239 83.7614 151 81 151C78.2386 151 76 153.239 76 156Z" fill="#E82910"/>
<path d="M96 156C96 158.761 98.2386 161 101 161C103.761 161 106 158.761 106 156C106 153.239 103.761 151 101 151C98.2386 151 96 153.239 96 156Z" fill="#3F3F3F"/>
<path d="M116 161H126V151H116V161Z" fill="#B2B2B2"/>
<path d="M136 161H146V151H136V161Z" fill="#B2B2B2"/>
<path d="M156 156C156 158.761 158.239 161 161 161C163.761 161 166 158.761 166 156C166 153.239 163.761 151 161 151C158.239 151 156 153.239 156 156Z" fill="#555555"/>
<path d="M186 151H176V161H186V151Z" fill="#3F3F3F"/>
<path d="M206 151H196V161H206V151Z" fill="#B2B2B2"/>
<path d="M226 151H216V161H226V151Z" fill="#741508"/>
<path d="M246 156C246 153.239 243.761 151 241 151C238.239 151 236 153.239 236 156C236 158.761 238.239 161 241 161C243.761 161 246 158.761 246 156Z" fill="#3F3F3F"/>
<path d="M266 156C266 153.239 263.761 151 261 151C258.239 151 256 153.239 256 156C256 158.761 258.239 161 261 161C263.761 161 266 158.761 266 156Z" fill="#E82910"/>
<path d="M286 151H276V161H286V151Z" fill="#E82910"/>
<path d="M306 151H296V161H306V151Z" fill="#555555"/>
<path d="M326 151H316V161H326V151Z" fill="#B2B2B2"/>
<path d="M336 151H346V161H336V151Z" fill="#B2B2B2"/>
<path d="M356 151H366V161H356V151Z" fill="#555555"/>
<path d="M376 151H386V161H376V151Z" fill="#E82910"/>
<path d="M396 156C396 153.239 398.239 151 401 151C403.761 151 406 153.239 406 156C406 158.761 403.761 161 401 161C398.239 161 396 158.761 396 156Z" fill="#E82910"/>
<path d="M416 156C416 153.239 418.239 151 421 151C423.761 151 426 153.239 426 156C426 158.761 423.761 161 421 161C418.239 161 416 158.761 416 156Z" fill="#3F3F3F"/>
<path d="M436 151H446V161H436V151Z" fill="#741508"/>
<path d="M456 151H466V161H456V151Z" fill="#B2B2B2"/>
<path d="M476 151H486V161H476V151Z" fill="#3F3F3F"/>
<path d="M506 156C506 158.761 503.761 161 501 161C498.239 161 496 158.761 496 156C496 153.239 498.239 151 501 151C503.761 151 506 153.239 506 156Z" fill="#555555"/>
<path d="M526 161H516V151H526V161Z" fill="#B2B2B2"/>
<path d="M546 161H536V151H546V161Z" fill="#B2B2B2"/>
<path d="M566 156C566 158.761 563.761 161 561 161C558.239 161 556 158.761 556 156C556 153.239 558.239 151 561 151C563.761 151 566 153.239 566 156Z" fill="#3F3F3F"/>
<path d="M16 146H26V136H16V146Z" fill="#B2B2B2"/>
<path d="M36 146H46V136H36V146Z" fill="#555555"/>
<path d="M56 146H66V136H56V146Z" fill="#E82910"/>
<path d="M76 141C76 143.761 78.2386 146 81 146C83.7614 146 86 143.761 86 141C86 138.239 83.7614 136 81 136C78.2386 136 76 138.239 76 141Z" fill="#E82910"/>
<path d="M96 141C96 143.761 98.2386 146 101 146C103.761 146 106 143.761 106 141C106 138.239 103.761 136 101 136C98.2386 136 96 138.239 96 141Z" fill="#3F3F3F"/>
<path d="M116 141C116 143.761 118.239 146 121 146C123.761 146 126 143.761 126 141C126 138.239 123.761 136 121 136C118.239 136 116 138.239 116 141Z" fill="#555555"/>
<path d="M136 141C136 143.761 138.239 146 141 146C143.761 146 146 143.761 146 141C146 138.239 143.761 136 141 136C138.239 136 136 138.239 136 141Z" fill="#555555"/>
<path d="M156 141C156 143.761 158.239 146 161 146C163.761 146 166 143.761 166 141C166 138.239 163.761 136 161 136C158.239 136 156 138.239 156 141Z" fill="#555555"/>
<path d="M186 136H176V146H186V136Z" fill="#3F3F3F"/>
<path d="M206 136H196V146H206V136Z" fill="#B2B2B2"/>
<path d="M226 136H216V146H226V136Z" fill="#741508"/>
<path d="M246 141C246 138.239 243.761 136 241 136C238.239 136 236 138.239 236 141C236 143.761 238.239 146 241 146C243.761 146 246 143.761 246 141Z" fill="#3F3F3F"/>
<path d="M266 141C266 138.239 263.761 136 261 136C258.239 136 256 138.239 256 141C256 143.761 258.239 146 261 146C263.761 146 266 143.761 266 141Z" fill="#E82910"/>
<path d="M286 136H276V146H286V136Z" fill="#E82910"/>
<path d="M306 136H296V146H306V136Z" fill="#555555"/>
<path d="M326 136H316V146H326V136Z" fill="#B2B2B2"/>
<path d="M336 136H346V146H336V136Z" fill="#B2B2B2"/>
<path d="M356 136H366V146H356V136Z" fill="#555555"/>
<path d="M376 136H386V146H376V136Z" fill="#E82910"/>
<path d="M396 141C396 138.239 398.239 136 401 136C403.761 136 406 138.239 406 141C406 143.761 403.761 146 401 146C398.239 146 396 143.761 396 141Z" fill="#E82910"/>
<path d="M416 141C416 138.239 418.239 136 421 136C423.761 136 426 138.239 426 141C426 143.761 423.761 146 421 146C418.239 146 416 143.761 416 141Z" fill="#3F3F3F"/>
<path d="M436 136H446V146H436V136Z" fill="#741508"/>
<path d="M456 136H466V146H456V136Z" fill="#B2B2B2"/>
<path d="M476 136H486V146H476V136Z" fill="#3F3F3F"/>
<path d="M506 141C506 143.761 503.761 146 501 146C498.239 146 496 143.761 496 141C496 138.239 498.239 136 501 136C503.761 136 506 138.239 506 141Z" fill="#555555"/>
<path d="M526 141C526 143.761 523.761 146 521 146C518.239 146 516 143.761 516 141C516 138.239 518.239 136 521 136C523.761 136 526 138.239 526 141Z" fill="#555555"/>
<path d="M546 141C546 143.761 543.761 146 541 146C538.239 146 536 143.761 536 141C536 138.239 538.239 136 541 136C543.761 136 546 138.239 546 141Z" fill="#555555"/>
<path d="M566 141C566 143.761 563.761 146 561 146C558.239 146 556 143.761 556 141C556 138.239 558.239 136 561 136C563.761 136 566 138.239 566 141Z" fill="#3F3F3F"/>
<path d="M16 131H26V121H16V131Z" fill="#B2B2B2"/>
<path d="M36 131H46V121H36V131Z" fill="#555555"/>
<path d="M56 131H66V121H56V131Z" fill="#E82910"/>
<path d="M76 126C76 128.761 78.2386 131 81 131C83.7614 131 86 128.761 86 126C86 123.239 83.7614 121 81 121C78.2386 121 76 123.239 76 126Z" fill="#E82910"/>
<path d="M96 126C96 128.761 98.2386 131 101 131C103.761 131 106 128.761 106 126C106 123.239 103.761 121 101 121C98.2386 121 96 123.239 96 126Z" fill="#3F3F3F"/>
<path d="M116 131H126V121H116V131Z" fill="#741508"/>
<path d="M136 131H146V121H136V131Z" fill="#B2B2B2"/>
<path d="M156 131H166V121H156V131Z" fill="#3F3F3F"/>
<path d="M186 126C186 123.239 183.761 121 181 121C178.239 121 176 123.239 176 126C176 128.761 178.239 131 181 131C183.761 131 186 128.761 186 126Z" fill="#555555"/>
<path d="M206 126C206 123.239 203.761 121 201 121C198.239 121 196 123.239 196 126C196 128.761 198.239 131 201 131C203.761 131 206 128.761 206 126Z" fill="#555555"/>
<path d="M226 126C226 123.239 223.761 121 221 121C218.239 121 216 123.239 216 126C216 128.761 218.239 131 221 131C223.761 131 226 128.761 226 126Z" fill="#555555"/>
<path d="M246 126C246 123.239 243.761 121 241 121C238.239 121 236 123.239 236 126C236 128.761 238.239 131 241 131C243.761 131 246 128.761 246 126Z" fill="#3F3F3F"/>
<path d="M266 126C266 123.239 263.761 121 261 121C258.239 121 256 123.239 256 126C256 128.761 258.239 131 261 131C263.761 131 266 128.761 266 126Z" fill="#E82910"/>
<path d="M286 121H276V131H286V121Z" fill="#E82910"/>
<path d="M306 121H296V131H306V121Z" fill="#555555"/>
<path d="M326 121H316V131H326V121Z" fill="#B2B2B2"/>
<path d="M336 121H346V131H336V121Z" fill="#B2B2B2"/>
<path d="M356 121H366V131H356V121Z" fill="#555555"/>
<path d="M376 121H386V131H376V121Z" fill="#E82910"/>
<path d="M396 126C396 123.239 398.239 121 401 121C403.761 121 406 123.239 406 126C406 128.761 403.761 131 401 131C398.239 131 396 128.761 396 126Z" fill="#E82910"/>
<path d="M416 126C416 123.239 418.239 121 421 121C423.761 121 426 123.239 426 126C426 128.761 423.761 131 421 131C418.239 131 416 128.761 416 126Z" fill="#3F3F3F"/>
<path d="M436 126C436 123.239 438.239 121 441 121C443.761 121 446 123.239 446 126C446 128.761 443.761 131 441 131C438.239 131 436 128.761 436 126Z" fill="#555555"/>
<path d="M456 126C456 123.239 458.239 121 461 121C463.761 121 466 123.239 466 126C466 128.761 463.761 131 461 131C458.239 131 456 128.761 456 126Z" fill="#555555"/>
<path d="M476 126C476 123.239 478.239 121 481 121C483.761 121 486 123.239 486 126C486 128.761 483.761 131 481 131C478.239 131 476 128.761 476 126Z" fill="#555555"/>
<path d="M506 131H496V121H506V131Z" fill="#3F3F3F"/>
<path d="M526 131H516V121H526V131Z" fill="#B2B2B2"/>
<path d="M546 131H536V121H546V131Z" fill="#741508"/>
<path d="M566 126C566 128.761 563.761 131 561 131C558.239 131 556 128.761 556 126C556 123.239 558.239 121 561 121C563.761 121 566 123.239 566 126Z" fill="#3F3F3F"/>
<path d="M16 116H26V106H16V116Z" fill="#B2B2B2"/>
<path d="M36 116H46V106H36V116Z" fill="#555555"/>
<path d="M56 116H66V106H56V116Z" fill="#E82910"/>
<path d="M76 111C76 113.761 78.2386 116 81 116C83.7614 116 86 113.761 86 111C86 108.239 83.7614 106 81 106C78.2386 106 76 108.239 76 111Z" fill="#E82910"/>
<path d="M96 111C96 113.761 98.2386 116 101 116C103.761 116 106 113.761 106 111C106 108.239 103.761 106 101 106C98.2386 106 96 108.239 96 111Z" fill="#3F3F3F"/>
<path d="M116 116H126V106H116V116Z" fill="#741508"/>
<path d="M136 116H146V106H136V116Z" fill="#B2B2B2"/>
<path d="M156 116H166V106H156V116Z" fill="#3F3F3F"/>
<path d="M186 111C186 108.239 183.761 106 181 106C178.239 106 176 108.239 176 111C176 113.761 178.239 116 181 116C183.761 116 186 113.761 186 111Z" fill="#555555"/>
<path d="M206 106H196V116H206V106Z" fill="#B2B2B2"/>
<path d="M226 106H216V116H226V106Z" fill="#B2B2B2"/>
<path d="M246 111C246 108.239 243.761 106 241 106C238.239 106 236 108.239 236 111C236 113.761 238.239 116 241 116C243.761 116 246 113.761 246 111Z" fill="#3F3F3F"/>
<path d="M266 111C266 108.239 263.761 106 261 106C258.239 106 256 108.239 256 111C256 113.761 258.239 116 261 116C263.761 116 266 113.761 266 111Z" fill="#E82910"/>
<path d="M286 106H276V116H286V106Z" fill="#E82910"/>
<path d="M306 106H296V116H306V106Z" fill="#555555"/>
<path d="M326 106H316V116H326V106Z" fill="#B2B2B2"/>
<path d="M336 106H346V116H336V106Z" fill="#B2B2B2"/>
<path d="M356 106H366V116H356V106Z" fill="#555555"/>
<path d="M376 106H386V116H376V106Z" fill="#E82910"/>
<path d="M396 111C396 108.239 398.239 106 401 106C403.761 106 406 108.239 406 111C406 113.761 403.761 116 401 116C398.239 116 396 113.761 396 111Z" fill="#E82910"/>
<path d="M416 111C416 108.239 418.239 106 421 106C423.761 106 426 108.239 426 111C426 113.761 423.761 116 421 116C418.239 116 416 113.761 416 111Z" fill="#3F3F3F"/>
<path d="M436 106H446V116H436V106Z" fill="#B2B2B2"/>
<path d="M456 106H466V116H456V106Z" fill="#B2B2B2"/>
<path d="M476 111C476 108.239 478.239 106 481 106C483.761 106 486 108.239 486 111C486 113.761 483.761 116 481 116C478.239 116 476 113.761 476 111Z" fill="#555555"/>
<path d="M506 116H496V106H506V116Z" fill="#3F3F3F"/>
<path d="M526 116H516V106H526V116Z" fill="#B2B2B2"/>
<path d="M546 116H536V106H546V116Z" fill="#741508"/>
<path d="M566 111C566 113.761 563.761 116 561 116C558.239 116 556 113.761 556 111C556 108.239 558.239 106 561 106C563.761 106 566 108.239 566 111Z" fill="#3F3F3F"/>
<path d="M16 101H26V91H16V101Z" fill="#B2B2B2"/>
<path d="M36 101H46V91H36V101Z" fill="white"/>
<path d="M56 101H66V91H56V101Z" fill="#E82910"/>
<path d="M76 96C76 98.7614 78.2386 101 81 101C83.7614 101 86 98.7614 86 96C86 93.2386 83.7614 91 81 91C78.2386 91 76 93.2386 76 96Z" fill="#E82910"/>
<path d="M96 96C96 98.7614 98.2386 101 101 101C103.761 101 106 98.7614 106 96C106 93.2386 103.761 91 101 91C98.2386 91 96 93.2386 96 96Z" fill="#3F3F3F"/>
<path d="M116 101H126V91H116V101Z" fill="#741508"/>
<path d="M136 101H146V91H136V101Z" fill="#B2B2B2"/>
<path d="M156 101H166V91H156V101Z" fill="#3F3F3F"/>
<path d="M186 96C186 93.2386 183.761 91 181 91C178.239 91 176 93.2386 176 96C176 98.7614 178.239 101 181 101C183.761 101 186 98.7614 186 96Z" fill="#555555"/>
<path d="M206 91H196V101H206V91Z" fill="#B2B2B2"/>
<path d="M226 91H216V101H226V91Z" fill="#B2B2B2"/>
<path d="M246 96C246 93.2386 243.761 91 241 91C238.239 91 236 93.2386 236 96C236 98.7614 238.239 101 241 101C243.761 101 246 98.7614 246 96Z" fill="#3F3F3F"/>
<path d="M266 96C266 93.2386 263.761 91 261 91C258.239 91 256 93.2386 256 96C256 98.7614 258.239 101 261 101C263.761 101 266 98.7614 266 96Z" fill="#E82910"/>
<path d="M286 91H276V101H286V91Z" fill="#B2B2B2"/>
<path d="M306 91H296V101H306V91Z" fill="#555555"/>
<path d="M326 91H316V101H326V91Z" fill="#B2B2B2"/>
<path d="M336 91H346V101H336V91Z" fill="#B2B2B2"/>
<path d="M356 91H366V101H356V91Z" fill="#555555"/>
<path d="M376 91H386V101H376V91Z" fill="#B2B2B2"/>
<path d="M396 96C396 93.2386 398.239 91 401 91C403.761 91 406 93.2386 406 96C406 98.7614 403.761 101 401 101C398.239 101 396 98.7614 396 96Z" fill="#E82910"/>
<path d="M416 96C416 93.2386 418.239 91 421 91C423.761 91 426 93.2386 426 96C426 98.7614 423.761 101 421 101C418.239 101 416 98.7614 416 96Z" fill="#3F3F3F"/>
<path d="M436 91H446V101H436V91Z" fill="#B2B2B2"/>
<path d="M456 91H466V101H456V91Z" fill="#B2B2B2"/>
<path d="M476 96C476 93.2386 478.239 91 481 91C483.761 91 486 93.2386 486 96C486 98.7614 483.761 101 481 101C478.239 101 476 98.7614 476 96Z" fill="#555555"/>
<path d="M506 101H496V91H506V101Z" fill="#3F3F3F"/>
<path d="M526 101H516V91H526V101Z" fill="#B2B2B2"/>
<path d="M546 101H536V91H546V101Z" fill="#741508"/>
<path d="M566 96C566 98.7614 563.761 101 561 101C558.239 101 556 98.7614 556 96C556 93.2386 558.239 91 561 91C563.761 91 566 93.2386 566 96Z" fill="#3F3F3F"/>
<path d="M16 86H26V76H16V86Z" fill="#B2B2B2"/>
<path d="M36 86H46V76H36V86Z" fill="white"/>
<path d="M56 86H66V76H56V86Z" fill="#E82910"/>
<path d="M76 81C76 83.7614 78.2386 86 81 86C83.7614 86 86 83.7614 86 81C86 78.2386 83.7614 76 81 76C78.2386 76 76 78.2386 76 81Z" fill="#741508"/>
<path d="M96 81C96 83.7614 98.2386 86 101 86C103.761 86 106 83.7614 106 81C106 78.2386 103.761 76 101 76C98.2386 76 96 78.2386 96 81Z" fill="#3F3F3F"/>
<path d="M116 86H126V76H116V86Z" fill="#E82910"/>
<path d="M136 86H146V76H136V86Z" fill="#B2B2B2"/>
<path d="M156 86H166V76H156V86Z" fill="#3F3F3F"/>
<path d="M186 81C186 78.2386 183.761 76 181 76C178.239 76 176 78.2386 176 81C176 83.7614 178.239 86 181 86C183.761 86 186 83.7614 186 81Z" fill="#555555"/>
<path d="M206 76H196V86H206V76Z" fill="#B2B2B2"/>
<path d="M226 76H216V86H226V76Z" fill="#B2B2B2"/>
<path d="M246 81C246 78.2386 243.761 76 241 76C238.239 76 236 78.2386 236 81C236 83.7614 238.239 86 241 86C243.761 86 246 83.7614 246 81Z" fill="#3F3F3F"/>
<path d="M266 81C266 78.2386 263.761 76 261 76C258.239 76 256 78.2386 256 81C256 83.7614 258.239 86 261 86C263.761 86 266 83.7614 266 81Z" fill="#E82910"/>
<path d="M286 76H276V86H286V76Z" fill="#B2B2B2"/>
<path d="M306 76H296V86H306V76Z" fill="#555555"/>
<path d="M326 76H316V86H326V76Z" fill="#B2B2B2"/>
<path d="M336 76H346V86H336V76Z" fill="#B2B2B2"/>
<path d="M356 76H366V86H356V76Z" fill="#555555"/>
<path d="M376 76H386V86H376V76Z" fill="#B2B2B2"/>
<path d="M396 81C396 78.2386 398.239 76 401 76C403.761 76 406 78.2386 406 81C406 83.7614 403.761 86 401 86C398.239 86 396 83.7614 396 81Z" fill="#E82910"/>
<path d="M416 81C416 78.2386 418.239 76 421 76C423.761 76 426 78.2386 426 81C426 83.7614 423.761 86 421 86C418.239 86 416 83.7614 416 81Z" fill="#3F3F3F"/>
<path d="M436 76H446V86H436V76Z" fill="#B2B2B2"/>
<path d="M456 76H466V86H456V76Z" fill="#B2B2B2"/>
<path d="M476 81C476 78.2386 478.239 76 481 76C483.761 76 486 78.2386 486 81C486 83.7614 483.761 86 481 86C478.239 86 476 83.7614 476 81Z" fill="#555555"/>
<path d="M506 86H496V76H506V86Z" fill="#3F3F3F"/>
<path d="M526 86H516V76H526V86Z" fill="#B2B2B2"/>
<path d="M546 86H536V76H546V86Z" fill="#E82910"/>
<path d="M566 81C566 83.7614 563.761 86 561 86C558.239 86 556 83.7614 556 81C556 78.2386 558.239 76 561 76C563.761 76 566 78.2386 566 81Z" fill="#3F3F3F"/>
<path d="M16 71H26V61H16V71Z" fill="#B2B2B2"/>
<path d="M36 71H46V61H36V71Z" fill="white"/>
<path d="M56 71H66V61H56V71Z" fill="#E82910"/>
<path d="M76 66C76 68.7614 78.2386 71 81 71C83.7614 71 86 68.7614 86 66C86 63.2386 83.7614 61 81 61C78.2386 61 76 63.2386 76 66Z" fill="#741508"/>
<path d="M96 66C96 68.7614 98.2386 71 101 71C103.761 71 106 68.7614 106 66C106 63.2386 103.761 61 101 61C98.2386 61 96 63.2386 96 66Z" fill="#B2B2B2"/>
<path d="M116 71H126V61H116V71Z" fill="#E82910"/>
<path d="M136 71H146V61H136V71Z" fill="#B2B2B2"/>
<path d="M156 71H166V61H156V71Z" fill="#3F3F3F"/>
<path d="M186 66C186 63.2386 183.761 61 181 61C178.239 61 176 63.2386 176 66C176 68.7614 178.239 71 181 71C183.761 71 186 68.7614 186 66Z" fill="#555555"/>
<path d="M206 61H196V71H206V61Z" fill="#B2B2B2"/>
<path d="M226 61H216V71H226V61Z" fill="#B2B2B2"/>
<path d="M246 61H236V71H246V61Z" fill="white"/>
<path d="M266 61H256V71H266V61Z" fill="#741508"/>
<path d="M286 61H276V71H286V61Z" fill="#B2B2B2"/>
<path d="M306 61H296V71H306V61Z" fill="#555555"/>
<path d="M326 61H316V71H326V61Z" fill="#B2B2B2"/>
<path d="M336 61H346V71H336V61Z" fill="#B2B2B2"/>
<path d="M356 61H366V71H356V61Z" fill="#555555"/>
<path d="M376 61H386V71H376V61Z" fill="#B2B2B2"/>
<path d="M396 61H406V71H396V61Z" fill="#741508"/>
<path d="M416 61H426V71H416V61Z" fill="white"/>
<path d="M436 61H446V71H436V61Z" fill="#B2B2B2"/>
<path d="M456 61H466V71H456V61Z" fill="#B2B2B2"/>
<path d="M476 66C476 63.2386 478.239 61 481 61C483.761 61 486 63.2386 486 66C486 68.7614 483.761 71 481 71C478.239 71 476 68.7614 476 66Z" fill="#555555"/>
<path d="M506 71H496V61H506V71Z" fill="#3F3F3F"/>
<path d="M526 71H516V61H526V71Z" fill="#B2B2B2"/>
<path d="M546 71H536V61H546V71Z" fill="#E82910"/>
<path d="M566 66C566 68.7614 563.761 71 561 71C558.239 71 556 68.7614 556 66C556 63.2386 558.239 61 561 61C563.761 61 566 63.2386 566 66Z" fill="#B2B2B2"/>
<path d="M16 56H26V46H16V56Z" fill="#B2B2B2"/>
<path d="M36 56H46V46H36V56Z" fill="white"/>
<path d="M56 56H66V46H56V56Z" fill="#E82910"/>
<path d="M76 51C76 53.7614 78.2386 56 81 56C83.7614 56 86 53.7614 86 51C86 48.2386 83.7614 46 81 46C78.2386 46 76 48.2386 76 51Z" fill="#741508"/>
<path d="M96 51C96 53.7614 98.2386 56 101 56C103.761 56 106 53.7614 106 51C106 48.2386 103.761 46 101 46C98.2386 46 96 48.2386 96 51Z" fill="#B2B2B2"/>
<path d="M116 56H126V46H116V56Z" fill="#E82910"/>
<path d="M136 56H146V46H136V56Z" fill="#B2B2B2"/>
<path d="M156 56H166V46H156V56Z" fill="#3F3F3F"/>
<path d="M186 51C186 48.2386 183.761 46 181 46C178.239 46 176 48.2386 176 51C176 53.7614 178.239 56 181 56C183.761 56 186 53.7614 186 51Z" fill="#555555"/>
<path d="M206 46H196V56H206V46Z" fill="#B2B2B2"/>
<path d="M226 46H216V56H226V46Z" fill="#B2B2B2"/>
<path d="M246 46H236V56H246V46Z" fill="white"/>
<path d="M266 46H256V56H266V46Z" fill="#741508"/>
<path d="M286 46H276V56H286V46Z" fill="#B2B2B2"/>
<path d="M306 46H296V56H306V46Z" fill="#555555"/>
<path d="M326 46H316V56H326V46Z" fill="#B2B2B2"/>
<path d="M336 46H346V56H336V46Z" fill="#B2B2B2"/>
<path d="M356 46H366V56H356V46Z" fill="#555555"/>
<path d="M376 46H386V56H376V46Z" fill="#B2B2B2"/>
<path d="M396 46H406V56H396V46Z" fill="#741508"/>
<path d="M416 46H426V56H416V46Z" fill="white"/>
<path d="M436 46H446V56H436V46Z" fill="#B2B2B2"/>
<path d="M456 46H466V56H456V46Z" fill="#B2B2B2"/>
<path d="M476 51C476 48.2386 478.239 46 481 46C483.761 46 486 48.2386 486 51C486 53.7614 483.761 56 481 56C478.239 56 476 53.7614 476 51Z" fill="#555555"/>
<path d="M506 56H496V46H506V56Z" fill="#3F3F3F"/>
<path d="M526 56H516V46H526V56Z" fill="#B2B2B2"/>
<path d="M546 56H536V46H546V56Z" fill="#E82910"/>
<path d="M566 51C566 53.7614 563.761 56 561 56C558.239 56 556 53.7614 556 51C556 48.2386 558.239 46 561 46C563.761 46 566 48.2386 566 51Z" fill="#B2B2B2"/>
<path d="M16 41H26V31H16V41Z" fill="#B2B2B2"/>
<path d="M36 41H46V31H36V41Z" fill="white"/>
<path d="M56 41H66V31H56V41Z" fill="#E82910"/>
<path d="M76 41H86V31H76V41Z" fill="#888888"/>
<path d="M96 41H106V31H96V41Z" fill="#B2B2B2"/>
<path d="M116 41H126V31H116V41Z" fill="#E82910"/>
<path d="M136 41H146V31H136V41Z" fill="#B2B2B2"/>
<path d="M156 41H166V31H156V41Z" fill="#3F3F3F"/>
<path d="M186 31H176V41H186V31Z" fill="white"/>
<path d="M206 31H196V41H206V31Z" fill="#B2B2B2"/>
<path d="M226 31H216V41H226V31Z" fill="#B2B2B2"/>
<path d="M246 31H236V41H246V31Z" fill="white"/>
<path d="M266 31H256V41H266V31Z" fill="#741508"/>
<path d="M286 31H276V41H286V31Z" fill="#B2B2B2"/>
<path d="M306 31H296V41H306V31Z" fill="#555555"/>
<path d="M326 31H316V41H326V31Z" fill="#B2B2B2"/>
<path d="M336 31H346V41H336V31Z" fill="#B2B2B2"/>
<path d="M356 31H366V41H356V31Z" fill="#555555"/>
<path d="M376 31H386V41H376V31Z" fill="#B2B2B2"/>
<path d="M396 31H406V41H396V31Z" fill="#741508"/>
<path d="M416 31H426V41H416V31Z" fill="white"/>
<path d="M436 31H446V41H436V31Z" fill="#B2B2B2"/>
<path d="M456 31H466V41H456V31Z" fill="#B2B2B2"/>
<path d="M476 31H486V41H476V31Z" fill="white"/>
<path d="M506 41H496V31H506V41Z" fill="#3F3F3F"/>
<path d="M526 41H516V31H526V41Z" fill="#B2B2B2"/>
<path d="M546 41H536V31H546V41Z" fill="#E82910"/>
<path d="M566 41H556V31H566V41Z" fill="#B2B2B2"/>
<path d="M16 21C16 23.7614 18.2386 26 21 26C23.7614 26 26 23.7614 26 21C26 18.2386 23.7614 16 21 16C18.2386 16 16 18.2386 16 21Z" fill="#B2B2B2"/>
<path d="M36 26H46V16H36V26Z" fill="white"/>
<path d="M56 26H66V16H56V26Z" fill="#E82910"/>
<path d="M76 26H86V16H76V26Z" fill="#B2B2B2"/>
<path d="M96 26H106V16H96V26Z" fill="#B2B2B2"/>
<path d="M116 26H126V16H116V26Z" fill="#E82910"/>
<path d="M136 26H146V16H136V26Z" fill="#B2B2B2"/>
<path d="M156 26H166V16H156V26Z" fill="#3F3F3F"/>
<path d="M186 16H176V26H186V16Z" fill="white"/>
<path d="M206 16H196V26H206V16Z" fill="#B2B2B2"/>
<path d="M226 16H216V26H226V16Z" fill="#B2B2B2"/>
<path d="M246 16H236V26H246V16Z" fill="white"/>
<path d="M266 16H256V26H266V16Z" fill="#B2B2B2"/>
<path d="M286 16H276V26H286V16Z" fill="#B2B2B2"/>
<path d="M306 16H296V26H306V16Z" fill="#555555"/>
<path d="M326 21C326 18.2386 323.761 16 321 16C318.239 16 316 18.2386 316 21C316 23.7614 318.239 26 321 26C323.761 26 326 23.7614 326 21Z" fill="#B2B2B2"/>
<path d="M336 21C336 18.2386 338.239 16 341 16C343.761 16 346 18.2386 346 21C346 23.7614 343.761 26 341 26C338.239 26 336 23.7614 336 21Z" fill="#B2B2B2"/>
<path d="M356 16H366V26H356V16Z" fill="#555555"/>
<path d="M376 16H386V26H376V16Z" fill="#B2B2B2"/>
<path d="M396 16H406V26H396V16Z" fill="#B2B2B2"/>
<path d="M416 16H426V26H416V16Z" fill="white"/>
<path d="M436 16H446V26H436V16Z" fill="#B2B2B2"/>
<path d="M456 16H466V26H456V16Z" fill="#B2B2B2"/>
<path d="M476 16H486V26H476V16Z" fill="white"/>
<path d="M506 26H496V16H506V26Z" fill="#3F3F3F"/>
<path d="M526 26H516V16H526V26Z" fill="#B2B2B2"/>
<path d="M546 26H536V16H546V26Z" fill="#E82910"/>
<path d="M566 26H556V16H566V26Z" fill="#B2B2B2"/>
<path d="M16 486C16 488.761 18.2386 491 21 491C23.7614 491 26 488.761 26 486C26 483.239 23.7614 481 21 481C18.2386 481 16 483.239 16 486Z" fill="#B2B2B2"/>
<path d="M36 491H46V481H36V491Z" fill="#555555"/>
<path d="M56 491H66V481H56V491Z" fill="#B2B2B2"/>
<path d="M76 491H86V481H76V491Z" fill="#B2B2B2"/>
<path d="M96 491H106V481H96V491Z" fill="white"/>
<path d="M116 491H126V481H116V491Z" fill="#B2B2B2"/>
<path d="M136 491H146V481H136V491Z" fill="#B2B2B2"/>
<path d="M156 491H166V481H156V491Z" fill="white"/>
<path d="M186 481H176V491H186V481Z" fill="#3F3F3F"/>
<path d="M206 481H196V491H206V481Z" fill="#B2B2B2"/>
<path d="M226 481H216V491H226V481Z" fill="#E82910"/>
<path d="M246 481H236V491H246V481Z" fill="#B2B2B2"/>
<path d="M266 481H256V491H266V481Z" fill="#B2B2B2"/>
<path d="M286 481H276V491H286V481Z" fill="#E82910"/>
<path d="M306 481H296V491H306V481Z" fill="white"/>
<path d="M326 486C326 483.239 323.761 481 321 481C318.239 481 316 483.239 316 486C316 488.761 318.239 491 321 491C323.761 491 326 488.761 326 486Z" fill="#B2B2B2"/>
<path d="M336 486C336 483.239 338.239 481 341 481C343.761 481 346 483.239 346 486C346 488.761 343.761 491 341 491C338.239 491 336 488.761 336 486Z" fill="#B2B2B2"/>
<path d="M356 481H366V491H356V481Z" fill="white"/>
<path d="M376 481H386V491H376V481Z" fill="#E82910"/>
<path d="M396 481H406V491H396V481Z" fill="#B2B2B2"/>
<path d="M416 481H426V491H416V481Z" fill="#B2B2B2"/>
<path d="M436 481H446V491H436V481Z" fill="#E82910"/>
<path d="M456 481H466V491H456V481Z" fill="#B2B2B2"/>
<path d="M476 481H486V491H476V481Z" fill="#3F3F3F"/>
<path d="M506 491H496V481H506V491Z" fill="white"/>
<path d="M526 491H516V481H526V491Z" fill="#B2B2B2"/>
<path d="M546 491H536V481H546V491Z" fill="#B2B2B2"/>
<path d="M566 491H556V481H566V491Z" fill="white"/>
<path d="M16 476H26V466H16V476Z" fill="#B2B2B2"/>
<path d="M36 476H46V466H36V476Z" fill="#555555"/>
<path d="M56 476H66V466H56V476Z" fill="#B2B2B2"/>
<path d="M76 476H86V466H76V476Z" fill="#741508"/>
<path d="M96 476H106V466H96V476Z" fill="white"/>
<path d="M116 476H126V466H116V476Z" fill="#B2B2B2"/>
<path d="M136 476H146V466H136V476Z" fill="#B2B2B2"/>
<path d="M156 476H166V466H156V476Z" fill="white"/>
<path d="M186 466H176V476H186V466Z" fill="#3F3F3F"/>
<path d="M206 466H196V476H206V466Z" fill="#B2B2B2"/>
<path d="M226 466H216V476H226V466Z" fill="#E82910"/>
<path d="M246 466H236V476H246V466Z" fill="#B2B2B2"/>
<path d="M266 466H256V476H266V466Z" fill="#888888"/>
<path d="M286 466H276V476H286V466Z" fill="#E82910"/>
<path d="M306 466H296V476H306V466Z" fill="white"/>
<path d="M326 466H316V476H326V466Z" fill="#B2B2B2"/>
<path d="M336 466H346V476H336V466Z" fill="#B2B2B2"/>
<path d="M356 466H366V476H356V466Z" fill="white"/>
<path d="M376 466H386V476H376V466Z" fill="#E82910"/>
<path d="M396 466H406V476H396V466Z" fill="#888888"/>
<path d="M416 466H426V476H416V466Z" fill="#B2B2B2"/>
<path d="M436 466H446V476H436V466Z" fill="#E82910"/>
<path d="M456 466H466V476H456V466Z" fill="#B2B2B2"/>
<path d="M476 466H486V476H476V466Z" fill="#3F3F3F"/>
<path d="M506 476H496V466H506V476Z" fill="white"/>
<path d="M526 476H516V466H526V476Z" fill="#B2B2B2"/>
<path d="M546 476H536V466H546V476Z" fill="#B2B2B2"/>
<path d="M566 476H556V466H566V476Z" fill="white"/>
<path d="M16 461H26V451H16V461Z" fill="#B2B2B2"/>
<path d="M36 461H46V451H36V461Z" fill="#555555"/>
<path d="M56 461H66V451H56V461Z" fill="#B2B2B2"/>
<path d="M76 461H86V451H76V461Z" fill="#741508"/>
<path d="M96 461H106V451H96V461Z" fill="white"/>
<path d="M116 461H126V451H116V461Z" fill="#B2B2B2"/>
<path d="M136 461H146V451H136V461Z" fill="#B2B2B2"/>
<path d="M156 456C156 458.761 158.239 461 161 461C163.761 461 166 458.761 166 456C166 453.239 163.761 451 161 451C158.239 451 156 453.239 156 456Z" fill="#555555"/>
<path d="M186 451H176V461H186V451Z" fill="#3F3F3F"/>
<path d="M206 451H196V461H206V451Z" fill="#B2B2B2"/>
<path d="M226 451H216V461H226V451Z" fill="#E82910"/>
<path d="M246 456C246 453.239 243.761 451 241 451C238.239 451 236 453.239 236 456C236 458.761 238.239 461 241 461C243.761 461 246 458.761 246 456Z" fill="#B2B2B2"/>
<path d="M266 456C266 453.239 263.761 451 261 451C258.239 451 256 453.239 256 456C256 458.761 258.239 461 261 461C263.761 461 266 458.761 266 456Z" fill="#741508"/>
<path d="M286 451H276V461H286V451Z" fill="#E82910"/>
<path d="M306 451H296V461H306V451Z" fill="white"/>
<path d="M326 451H316V461H326V451Z" fill="#B2B2B2"/>
<path d="M336 451H346V461H336V451Z" fill="#B2B2B2"/>
<path d="M356 451H366V461H356V451Z" fill="white"/>
<path d="M376 451H386V461H376V451Z" fill="#E82910"/>
<path d="M396 456C396 453.239 398.239 451 401 451C403.761 451 406 453.239 406 456C406 458.761 403.761 461 401 461C398.239 461 396 458.761 396 456Z" fill="#741508"/>
<path d="M416 456C416 453.239 418.239 451 421 451C423.761 451 426 453.239 426 456C426 458.761 423.761 461 421 461C418.239 461 416 458.761 416 456Z" fill="#B2B2B2"/>
<path d="M436 451H446V461H436V451Z" fill="#E82910"/>
<path d="M456 451H466V461H456V451Z" fill="#B2B2B2"/>
<path d="M476 451H486V461H476V451Z" fill="#3F3F3F"/>
<path d="M506 456C506 458.761 503.761 461 501 461C498.239 461 496 458.761 496 456C496 453.239 498.239 451 501 451C503.761 451 506 453.239 506 456Z" fill="#555555"/>
<path d="M526 461H516V451H526V461Z" fill="#B2B2B2"/>
<path d="M546 461H536V451H546V461Z" fill="#B2B2B2"/>
<path d="M566 461H556V451H566V461Z" fill="white"/>
<path d="M16 446H26V436H16V446Z" fill="#B2B2B2"/>
<path d="M36 446H46V436H36V446Z" fill="#555555"/>
<path d="M56 446H66V436H56V446Z" fill="#B2B2B2"/>
<path d="M76 446H86V436H76V446Z" fill="#741508"/>
<path d="M96 446H106V436H96V446Z" fill="white"/>
<path d="M116 446H126V436H116V446Z" fill="#B2B2B2"/>
<path d="M136 446H146V436H136V446Z" fill="#B2B2B2"/>
<path d="M156 441C156 443.761 158.239 446 161 446C163.761 446 166 443.761 166 441C166 438.239 163.761 436 161 436C158.239 436 156 438.239 156 441Z" fill="#555555"/>
<path d="M186 436H176V446H186V436Z" fill="#3F3F3F"/>
<path d="M206 436H196V446H206V436Z" fill="#B2B2B2"/>
<path d="M226 436H216V446H226V436Z" fill="#E82910"/>
<path d="M246 441C246 438.239 243.761 436 241 436C238.239 436 236 438.239 236 441C236 443.761 238.239 446 241 446C243.761 446 246 443.761 246 441Z" fill="#B2B2B2"/>
<path d="M266 441C266 438.239 263.761 436 261 436C258.239 436 256 438.239 256 441C256 443.761 258.239 446 261 446C263.761 446 266 443.761 266 441Z" fill="#741508"/>
<path d="M286 436H276V446H286V436Z" fill="#E82910"/>
<path d="M306 436H296V446H306V436Z" fill="white"/>
<path d="M326 436H316V446H326V436Z" fill="#B2B2B2"/>
<path d="M336 436H346V446H336V436Z" fill="#B2B2B2"/>
<path d="M356 436H366V446H356V436Z" fill="white"/>
<path d="M376 436H386V446H376V436Z" fill="#E82910"/>
<path d="M396 441C396 438.239 398.239 436 401 436C403.761 436 406 438.239 406 441C406 443.761 403.761 446 401 446C398.239 446 396 443.761 396 441Z" fill="#741508"/>
<path d="M416 441C416 438.239 418.239 436 421 436C423.761 436 426 438.239 426 441C426 443.761 423.761 446 421 446C418.239 446 416 443.761 416 441Z" fill="#B2B2B2"/>
<path d="M436 436H446V446H436V436Z" fill="#E82910"/>
<path d="M456 436H466V446H456V436Z" fill="#B2B2B2"/>
<path d="M476 436H486V446H476V436Z" fill="#3F3F3F"/>
<path d="M506 441C506 443.761 503.761 446 501 446C498.239 446 496 443.761 496 441C496 438.239 498.239 436 501 436C503.761 436 506 438.239 506 441Z" fill="#555555"/>
<path d="M526 446H516V436H526V446Z" fill="#B2B2B2"/>
<path d="M546 446H536V436H546V446Z" fill="#B2B2B2"/>
<path d="M566 446H556V436H566V446Z" fill="white"/>
<path d="M16 431H26V421H16V431Z" fill="#B2B2B2"/>
<path d="M36 431H46V421H36V431Z" fill="#555555"/>
<path d="M56 431H66V421H56V431Z" fill="#B2B2B2"/>
<path d="M76 426C76 428.761 78.2386 431 81 431C83.7614 431 86 428.761 86 426C86 423.239 83.7614 421 81 421C78.2386 421 76 423.239 76 426Z" fill="#E82910"/>
<path d="M96 426C96 428.761 98.2386 431 101 431C103.761 431 106 428.761 106 426C106 423.239 103.761 421 101 421C98.2386 421 96 423.239 96 426Z" fill="#3F3F3F"/>
<path d="M116 431H126V421H116V431Z" fill="#B2B2B2"/>
<path d="M136 431H146V421H136V431Z" fill="#B2B2B2"/>
<path d="M156 426C156 428.761 158.239 431 161 431C163.761 431 166 428.761 166 426C166 423.239 163.761 421 161 421C158.239 421 156 423.239 156 426Z" fill="#555555"/>
<path d="M186 421H176V431H186V421Z" fill="#3F3F3F"/>
<path d="M206 421H196V431H206V421Z" fill="#B2B2B2"/>
<path d="M226 421H216V431H226V421Z" fill="#E82910"/>
<path d="M246 426C246 423.239 243.761 421 241 421C238.239 421 236 423.239 236 426C236 428.761 238.239 431 241 431C243.761 431 246 428.761 246 426Z" fill="#3F3F3F"/>
<path d="M266 426C266 423.239 263.761 421 261 421C258.239 421 256 423.239 256 426C256 428.761 258.239 431 261 431C263.761 431 266 428.761 266 426Z" fill="#741508"/>
<path d="M286 421H276V431H286V421Z" fill="#E82910"/>
<path d="M306 421H296V431H306V421Z" fill="white"/>
<path d="M326 421H316V431H326V421Z" fill="#B2B2B2"/>
<path d="M336 421H346V431H336V421Z" fill="#B2B2B2"/>
<path d="M356 421H366V431H356V421Z" fill="white"/>
<path d="M376 421H386V431H376V421Z" fill="#E82910"/>
<path d="M396 426C396 423.239 398.239 421 401 421C403.761 421 406 423.239 406 426C406 428.761 403.761 431 401 431C398.239 431 396 428.761 396 426Z" fill="#741508"/>
<path d="M416 426C416 423.239 418.239 421 421 421C423.761 421 426 423.239 426 426C426 428.761 423.761 431 421 431C418.239 431 416 428.761 416 426Z" fill="#3F3F3F"/>
<path d="M436 421H446V431H436V421Z" fill="#E82910"/>
<path d="M456 421H466V431H456V421Z" fill="#B2B2B2"/>
<path d="M476 421H486V431H476V421Z" fill="#3F3F3F"/>
<path d="M506 426C506 428.761 503.761 431 501 431C498.239 431 496 428.761 496 426C496 423.239 498.239 421 501 421C503.761 421 506 423.239 506 426Z" fill="#555555"/>
<path d="M526 431H516V421H526V431Z" fill="#B2B2B2"/>
<path d="M546 431H536V421H546V431Z" fill="#B2B2B2"/>
<path d="M566 426C566 428.761 563.761 431 561 431C558.239 431 556 428.761 556 426C556 423.239 558.239 421 561 421C563.761 421 566 423.239 566 426Z" fill="#3F3F3F"/>
<path d="M16 416H26V406H16V416Z" fill="#B2B2B2"/>
<path d="M36 416H46V406H36V416Z" fill="#555555"/>
<path d="M56 416H66V406H56V416Z" fill="#B2B2B2"/>
<path d="M76 411C76 413.761 78.2386 416 81 416C83.7614 416 86 413.761 86 411C86 408.239 83.7614 406 81 406C78.2386 406 76 408.239 76 411Z" fill="#E82910"/>
<path d="M96 411C96 413.761 98.2386 416 101 416C103.761 416 106 413.761 106 411C106 408.239 103.761 406 101 406C98.2386 406 96 408.239 96 411Z" fill="#3F3F3F"/>
<path d="M116 416H126V406H116V416Z" fill="#B2B2B2"/>
<path d="M136 416H146V406H136V416Z" fill="#B2B2B2"/>
<path d="M156 411C156 413.761 158.239 416 161 416C163.761 416 166 413.761 166 411C166 408.239 163.761 406 161 406C158.239 406 156 408.239 156 411Z" fill="#555555"/>
<path d="M186 406H176V416H186V406Z" fill="#3F3F3F"/>
<path d="M206 406H196V416H206V406Z" fill="#B2B2B2"/>
<path d="M226 406H216V416H226V406Z" fill="#741508"/>
<path d="M246 411C246 408.239 243.761 406 241 406C238.239 406 236 408.239 236 411C236 413.761 238.239 416 241 416C243.761 416 246 413.761 246 411Z" fill="#3F3F3F"/>
<path d="M266 411C266 408.239 263.761 406 261 406C258.239 406 256 408.239 256 411C256 413.761 258.239 416 261 416C263.761 416 266 413.761 266 411Z" fill="#E82910"/>
<path d="M286 406H276V416H286V406Z" fill="#E82910"/>
<path d="M306 406H296V416H306V406Z" fill="white"/>
<path d="M326 406H316V416H326V406Z" fill="#B2B2B2"/>
<path d="M336 406H346V416H336V406Z" fill="#B2B2B2"/>
<path d="M356 406H366V416H356V406Z" fill="white"/>
<path d="M376 406H386V416H376V406Z" fill="#E82910"/>
<path d="M396 411C396 408.239 398.239 406 401 406C403.761 406 406 408.239 406 411C406 413.761 403.761 416 401 416C398.239 416 396 413.761 396 411Z" fill="#E82910"/>
<path d="M416 411C416 408.239 418.239 406 421 406C423.761 406 426 408.239 426 411C426 413.761 423.761 416 421 416C418.239 416 416 413.761 416 411Z" fill="#3F3F3F"/>
<path d="M436 406H446V416H436V406Z" fill="#741508"/>
<path d="M456 406H466V416H456V406Z" fill="#B2B2B2"/>
<path d="M476 406H486V416H476V406Z" fill="#3F3F3F"/>
<path d="M506 411C506 413.761 503.761 416 501 416C498.239 416 496 413.761 496 411C496 408.239 498.239 406 501 406C503.761 406 506 408.239 506 411Z" fill="#555555"/>
<path d="M526 416H516V406H526V416Z" fill="#B2B2B2"/>
<path d="M546 416H536V406H546V416Z" fill="#B2B2B2"/>
<path d="M566 411C566 413.761 563.761 416 561 416C558.239 416 556 413.761 556 411C556 408.239 558.239 406 561 406C563.761 406 566 408.239 566 411Z" fill="#3F3F3F"/>
<path d="M16 401H26V391H16V401Z" fill="#B2B2B2"/>
<path d="M36 401H46V391H36V401Z" fill="#555555"/>
<path d="M56 401H66V391H56V401Z" fill="#E82910"/>
<path d="M76 396C76 398.761 78.2386 401 81 401C83.7614 401 86 398.761 86 396C86 393.239 83.7614 391 81 391C78.2386 391 76 393.239 76 396Z" fill="#E82910"/>
<path d="M96 396C96 398.761 98.2386 401 101 401C103.761 401 106 398.761 106 396C106 393.239 103.761 391 101 391C98.2386 391 96 393.239 96 396Z" fill="#3F3F3F"/>
<path d="M116 401H126V391H116V401Z" fill="#B2B2B2"/>
<path d="M136 401H146V391H136V401Z" fill="#B2B2B2"/>
<path d="M156 396C156 398.761 158.239 401 161 401C163.761 401 166 398.761 166 396C166 393.239 163.761 391 161 391C158.239 391 156 393.239 156 396Z" fill="#555555"/>
<path d="M186 391H176V401H186V391Z" fill="#3F3F3F"/>
<path d="M206 391H196V401H206V391Z" fill="#B2B2B2"/>
<path d="M226 391H216V401H226V391Z" fill="#741508"/>
<path d="M246 396C246 393.239 243.761 391 241 391C238.239 391 236 393.239 236 396C236 398.761 238.239 401 241 401C243.761 401 246 398.761 246 396Z" fill="#3F3F3F"/>
<path d="M266 396C266 393.239 263.761 391 261 391C258.239 391 256 393.239 256 396C256 398.761 258.239 401 261 401C263.761 401 266 398.761 266 396Z" fill="#E82910"/>
<path d="M286 391H276V401H286V391Z" fill="#E82910"/>
<path d="M306 391H296V401H306V391Z" fill="#555555"/>
<path d="M326 391H316V401H326V391Z" fill="#B2B2B2"/>
<path d="M336 391H346V401H336V391Z" fill="#B2B2B2"/>
<path d="M356 391H366V401H356V391Z" fill="#555555"/>
<path d="M376 391H386V401H376V391Z" fill="#E82910"/>
<path d="M396 396C396 393.239 398.239 391 401 391C403.761 391 406 393.239 406 396C406 398.761 403.761 401 401 401C398.239 401 396 398.761 396 396Z" fill="#E82910"/>
<path d="M416 396C416 393.239 418.239 391 421 391C423.761 391 426 393.239 426 396C426 398.761 423.761 401 421 401C418.239 401 416 398.761 416 396Z" fill="#3F3F3F"/>
<path d="M436 391H446V401H436V391Z" fill="#741508"/>
<path d="M456 391H466V401H456V391Z" fill="#B2B2B2"/>
<path d="M476 391H486V401H476V391Z" fill="#3F3F3F"/>
<path d="M506 396C506 398.761 503.761 401 501 401C498.239 401 496 398.761 496 396C496 393.239 498.239 391 501 391C503.761 391 506 393.239 506 396Z" fill="#555555"/>
<path d="M526 401H516V391H526V401Z" fill="#B2B2B2"/>
<path d="M546 401H536V391H546V401Z" fill="#B2B2B2"/>
<path d="M566 396C566 398.761 563.761 401 561 401C558.239 401 556 398.761 556 396C556 393.239 558.239 391 561 391C563.761 391 566 393.239 566 396Z" fill="#3F3F3F"/>
<path d="M16 386H26V376H16V386Z" fill="#B2B2B2"/>
<path d="M36 386H46V376H36V386Z" fill="#555555"/>
<path d="M56 386H66V376H56V386Z" fill="#E82910"/>
<path d="M76 381C76 383.761 78.2386 386 81 386C83.7614 386 86 383.761 86 381C86 378.239 83.7614 376 81 376C78.2386 376 76 378.239 76 381Z" fill="#E82910"/>
<path d="M96 381C96 383.761 98.2386 386 101 386C103.761 386 106 383.761 106 381C106 378.239 103.761 376 101 376C98.2386 376 96 378.239 96 381Z" fill="#3F3F3F"/>
<path d="M116 381C116 383.761 118.239 386 121 386C123.761 386 126 383.761 126 381C126 378.239 123.761 376 121 376C118.239 376 116 378.239 116 381Z" fill="#555555"/>
<path d="M136 381C136 383.761 138.239 386 141 386C143.761 386 146 383.761 146 381C146 378.239 143.761 376 141 376C138.239 376 136 378.239 136 381Z" fill="#555555"/>
<path d="M156 381C156 383.761 158.239 386 161 386C163.761 386 166 383.761 166 381C166 378.239 163.761 376 161 376C158.239 376 156 378.239 156 381Z" fill="#555555"/>
<path d="M186 376H176V386H186V376Z" fill="#3F3F3F"/>
<path d="M206 376H196V386H206V376Z" fill="#B2B2B2"/>
<path d="M226 376H216V386H226V376Z" fill="#741508"/>
<path d="M246 381C246 378.239 243.761 376 241 376C238.239 376 236 378.239 236 381C236 383.761 238.239 386 241 386C243.761 386 246 383.761 246 381Z" fill="#3F3F3F"/>
<path d="M266 381C266 378.239 263.761 376 261 376C258.239 376 256 378.239 256 381C256 383.761 258.239 386 261 386C263.761 386 266 383.761 266 381Z" fill="#E82910"/>
<path d="M286 376H276V386H286V376Z" fill="#E82910"/>
<path d="M306 376H296V386H306V376Z" fill="#555555"/>
<path d="M326 376H316V386H326V376Z" fill="#B2B2B2"/>
<path d="M336 376H346V386H336V376Z" fill="#B2B2B2"/>
<path d="M356 376H366V386H356V376Z" fill="#555555"/>
<path d="M376 376H386V386H376V376Z" fill="#E82910"/>
<path d="M396 381C396 378.239 398.239 376 401 376C403.761 376 406 378.239 406 381C406 383.761 403.761 386 401 386C398.239 386 396 383.761 396 381Z" fill="#E82910"/>
<path d="M416 381C416 378.239 418.239 376 421 376C423.761 376 426 378.239 426 381C426 383.761 423.761 386 421 386C418.239 386 416 383.761 416 381Z" fill="#3F3F3F"/>
<path d="M436 376H446V386H436V376Z" fill="#741508"/>
<path d="M456 376H466V386H456V376Z" fill="#B2B2B2"/>
<path d="M476 376H486V386H476V376Z" fill="#3F3F3F"/>
<path d="M506 381C506 383.761 503.761 386 501 386C498.239 386 496 383.761 496 381C496 378.239 498.239 376 501 376C503.761 376 506 378.239 506 381Z" fill="#555555"/>
<path d="M526 381C526 383.761 523.761 386 521 386C518.239 386 516 383.761 516 381C516 378.239 518.239 376 521 376C523.761 376 526 378.239 526 381Z" fill="#555555"/>
<path d="M546 381C546 383.761 543.761 386 541 386C538.239 386 536 383.761 536 381C536 378.239 538.239 376 541 376C543.761 376 546 378.239 546 381Z" fill="#555555"/>
<path d="M566 381C566 383.761 563.761 386 561 386C558.239 386 556 383.761 556 381C556 378.239 558.239 376 561 376C563.761 376 566 378.239 566 381Z" fill="#3F3F3F"/>
<path d="M16 371H26V361H16V371Z" fill="#B2B2B2"/>
<path d="M36 371H46V361H36V371Z" fill="#555555"/>
<path d="M56 371H66V361H56V371Z" fill="#E82910"/>
<path d="M76 366C76 368.761 78.2386 371 81 371C83.7614 371 86 368.761 86 366C86 363.239 83.7614 361 81 361C78.2386 361 76 363.239 76 366Z" fill="#E82910"/>
<path d="M96 366C96 368.761 98.2386 371 101 371C103.761 371 106 368.761 106 366C106 363.239 103.761 361 101 361C98.2386 361 96 363.239 96 366Z" fill="#3F3F3F"/>
<path d="M116 371H126V361H116V371Z" fill="#741508"/>
<path d="M136 371H146V361H136V371Z" fill="#B2B2B2"/>
<path d="M156 371H166V361H156V371Z" fill="#3F3F3F"/>
<path d="M186 366C186 363.239 183.761 361 181 361C178.239 361 176 363.239 176 366C176 368.761 178.239 371 181 371C183.761 371 186 368.761 186 366Z" fill="#555555"/>
<path d="M206 366C206 363.239 203.761 361 201 361C198.239 361 196 363.239 196 366C196 368.761 198.239 371 201 371C203.761 371 206 368.761 206 366Z" fill="#555555"/>
<path d="M226 366C226 363.239 223.761 361 221 361C218.239 361 216 363.239 216 366C216 368.761 218.239 371 221 371C223.761 371 226 368.761 226 366Z" fill="#555555"/>
<path d="M246 366C246 363.239 243.761 361 241 361C238.239 361 236 363.239 236 366C236 368.761 238.239 371 241 371C243.761 371 246 368.761 246 366Z" fill="#3F3F3F"/>
<path d="M266 366C266 363.239 263.761 361 261 361C258.239 361 256 363.239 256 366C256 368.761 258.239 371 261 371C263.761 371 266 368.761 266 366Z" fill="#E82910"/>
<path d="M286 361H276V371H286V361Z" fill="#E82910"/>
<path d="M306 361H296V371H306V361Z" fill="#555555"/>
<path d="M326 361H316V371H326V361Z" fill="#B2B2B2"/>
<path d="M336 361H346V371H336V361Z" fill="#B2B2B2"/>
<path d="M356 361H366V371H356V361Z" fill="#555555"/>
<path d="M376 361H386V371H376V361Z" fill="#E82910"/>
<path d="M396 366C396 363.239 398.239 361 401 361C403.761 361 406 363.239 406 366C406 368.761 403.761 371 401 371C398.239 371 396 368.761 396 366Z" fill="#E82910"/>
<path d="M416 366C416 363.239 418.239 361 421 361C423.761 361 426 363.239 426 366C426 368.761 423.761 371 421 371C418.239 371 416 368.761 416 366Z" fill="#3F3F3F"/>
<path d="M436 366C436 363.239 438.239 361 441 361C443.761 361 446 363.239 446 366C446 368.761 443.761 371 441 371C438.239 371 436 368.761 436 366Z" fill="#555555"/>
<path d="M456 366C456 363.239 458.239 361 461 361C463.761 361 466 363.239 466 366C466 368.761 463.761 371 461 371C458.239 371 456 368.761 456 366Z" fill="#555555"/>
<path d="M476 366C476 363.239 478.239 361 481 361C483.761 361 486 363.239 486 366C486 368.761 483.761 371 481 371C478.239 371 476 368.761 476 366Z" fill="#555555"/>
<path d="M506 371H496V361H506V371Z" fill="#3F3F3F"/>
<path d="M526 371H516V361H526V371Z" fill="#B2B2B2"/>
<path d="M546 371H536V361H546V371Z" fill="#741508"/>
<path d="M566 366C566 368.761 563.761 371 561 371C558.239 371 556 368.761 556 366C556 363.239 558.239 361 561 361C563.761 361 566 363.239 566 366Z" fill="#3F3F3F"/>
<path d="M16 356H26V346H16V356Z" fill="#B2B2B2"/>
<path d="M36 356H46V346H36V356Z" fill="#555555"/>
<path d="M56 356H66V346H56V356Z" fill="#E82910"/>
<path d="M76 351C76 353.761 78.2386 356 81 356C83.7614 356 86 353.761 86 351C86 348.239 83.7614 346 81 346C78.2386 346 76 348.239 76 351Z" fill="#E82910"/>
<path d="M96 351C96 353.761 98.2386 356 101 356C103.761 356 106 353.761 106 351C106 348.239 103.761 346 101 346C98.2386 346 96 348.239 96 351Z" fill="#3F3F3F"/>
<path d="M116 356H126V346H116V356Z" fill="#741508"/>
<path d="M136 356H146V346H136V356Z" fill="#B2B2B2"/>
<path d="M156 356H166V346H156V356Z" fill="#3F3F3F"/>
<path d="M186 351C186 348.239 183.761 346 181 346C178.239 346 176 348.239 176 351C176 353.761 178.239 356 181 356C183.761 356 186 353.761 186 351Z" fill="#555555"/>
<path d="M206 346H196V356H206V346Z" fill="#B2B2B2"/>
<path d="M226 346H216V356H226V346Z" fill="#B2B2B2"/>
<path d="M246 351C246 348.239 243.761 346 241 346C238.239 346 236 348.239 236 351C236 353.761 238.239 356 241 356C243.761 356 246 353.761 246 351Z" fill="#3F3F3F"/>
<path d="M266 351C266 348.239 263.761 346 261 346C258.239 346 256 348.239 256 351C256 353.761 258.239 356 261 356C263.761 356 266 353.761 266 351Z" fill="#E82910"/>
<path d="M286 346H276V356H286V346Z" fill="#E82910"/>
<path d="M306 346H296V356H306V346Z" fill="#555555"/>
<path d="M326 346H316V356H326V346Z" fill="#B2B2B2"/>
<path d="M336 346H346V356H336V346Z" fill="#B2B2B2"/>
<path d="M356 346H366V356H356V346Z" fill="#555555"/>
<path d="M376 346H386V356H376V346Z" fill="#E82910"/>
<path d="M396 351C396 348.239 398.239 346 401 346C403.761 346 406 348.239 406 351C406 353.761 403.761 356 401 356C398.239 356 396 353.761 396 351Z" fill="#E82910"/>
<path d="M416 351C416 348.239 418.239 346 421 346C423.761 346 426 348.239 426 351C426 353.761 423.761 356 421 356C418.239 356 416 353.761 416 351Z" fill="#3F3F3F"/>
<path d="M436 346H446V356H436V346Z" fill="#B2B2B2"/>
<path d="M456 346H466V356H456V346Z" fill="#B2B2B2"/>
<path d="M476 351C476 348.239 478.239 346 481 346C483.761 346 486 348.239 486 351C486 353.761 483.761 356 481 356C478.239 356 476 353.761 476 351Z" fill="#555555"/>
<path d="M506 356H496V346H506V356Z" fill="#3F3F3F"/>
<path d="M526 356H516V346H526V356Z" fill="#B2B2B2"/>
<path d="M546 356H536V346H546V356Z" fill="#741508"/>
<path d="M566 351C566 353.761 563.761 356 561 356C558.239 356 556 353.761 556 351C556 348.239 558.239 346 561 346C563.761 346 566 348.239 566 351Z" fill="#3F3F3F"/>
<path d="M16 341H26V331H16V341Z" fill="#B2B2B2"/>
<path d="M36 341H46V331H36V341Z" fill="white"/>
<path d="M56 341H66V331H56V341Z" fill="#E82910"/>
<path d="M76 336C76 338.761 78.2386 341 81 341C83.7614 341 86 338.761 86 336C86 333.239 83.7614 331 81 331C78.2386 331 76 333.239 76 336Z" fill="#E82910"/>
<path d="M96 336C96 338.761 98.2386 341 101 341C103.761 341 106 338.761 106 336C106 333.239 103.761 331 101 331C98.2386 331 96 333.239 96 336Z" fill="#3F3F3F"/>
<path d="M116 341H126V331H116V341Z" fill="#741508"/>
<path d="M136 341H146V331H136V341Z" fill="#B2B2B2"/>
<path d="M156 341H166V331H156V341Z" fill="#3F3F3F"/>
<path d="M186 336C186 333.239 183.761 331 181 331C178.239 331 176 333.239 176 336C176 338.761 178.239 341 181 341C183.761 341 186 338.761 186 336Z" fill="#555555"/>
<path d="M206 331H196V341H206V331Z" fill="#B2B2B2"/>
<path d="M226 331H216V341H226V331Z" fill="#B2B2B2"/>
<path d="M246 336C246 333.239 243.761 331 241 331C238.239 331 236 333.239 236 336C236 338.761 238.239 341 241 341C243.761 341 246 338.761 246 336Z" fill="#3F3F3F"/>
<path d="M266 336C266 333.239 263.761 331 261 331C258.239 331 256 333.239 256 336C256 338.761 258.239 341 261 341C263.761 341 266 338.761 266 336Z" fill="#E82910"/>
<path d="M286 331H276V341H286V331Z" fill="#B2B2B2"/>
<path d="M306 331H296V341H306V331Z" fill="#555555"/>
<path d="M326 331H316V341H326V331Z" fill="#B2B2B2"/>
<path d="M336 331H346V341H336V331Z" fill="#B2B2B2"/>
<path d="M356 331H366V341H356V331Z" fill="#555555"/>
<path d="M376 331H386V341H376V331Z" fill="#B2B2B2"/>
<path d="M396 336C396 333.239 398.239 331 401 331C403.761 331 406 333.239 406 336C406 338.761 403.761 341 401 341C398.239 341 396 338.761 396 336Z" fill="#E82910"/>
<path d="M416 336C416 333.239 418.239 331 421 331C423.761 331 426 333.239 426 336C426 338.761 423.761 341 421 341C418.239 341 416 338.761 416 336Z" fill="#3F3F3F"/>
<path d="M436 331H446V341H436V331Z" fill="#B2B2B2"/>
<path d="M456 331H466V341H456V331Z" fill="#B2B2B2"/>
<path d="M476 336C476 333.239 478.239 331 481 331C483.761 331 486 333.239 486 336C486 338.761 483.761 341 481 341C478.239 341 476 338.761 476 336Z" fill="#555555"/>
<path d="M506 341H496V331H506V341Z" fill="#3F3F3F"/>
<path d="M526 341H516V331H526V341Z" fill="#B2B2B2"/>
<path d="M546 341H536V331H546V341Z" fill="#741508"/>
<path d="M566 336C566 338.761 563.761 341 561 341C558.239 341 556 338.761 556 336C556 333.239 558.239 331 561 331C563.761 331 566 333.239 566 336Z" fill="#3F3F3F"/>
<path d="M16 326H26V316H16V326Z" fill="#B2B2B2"/>
<path d="M36 326H46V316H36V326Z" fill="white"/>
<path d="M56 326H66V316H56V326Z" fill="#E82910"/>
<path d="M76 321C76 323.761 78.2386 326 81 326C83.7614 326 86 323.761 86 321C86 318.239 83.7614 316 81 316C78.2386 316 76 318.239 76 321Z" fill="#741508"/>
<path d="M96 321C96 323.761 98.2386 326 101 326C103.761 326 106 323.761 106 321C106 318.239 103.761 316 101 316C98.2386 316 96 318.239 96 321Z" fill="#3F3F3F"/>
<path d="M116 326H126V316H116V326Z" fill="#E82910"/>
<path d="M136 326H146V316H136V326Z" fill="#B2B2B2"/>
<path d="M156 326H166V316H156V326Z" fill="#3F3F3F"/>
<path d="M186 321C186 318.239 183.761 316 181 316C178.239 316 176 318.239 176 321C176 323.761 178.239 326 181 326C183.761 326 186 323.761 186 321Z" fill="#555555"/>
<path d="M206 316H196V326H206V316Z" fill="#B2B2B2"/>
<path d="M226 316H216V326H226V316Z" fill="#B2B2B2"/>
<path d="M246 321C246 318.239 243.761 316 241 316C238.239 316 236 318.239 236 321C236 323.761 238.239 326 241 326C243.761 326 246 323.761 246 321Z" fill="#3F3F3F"/>
<path d="M266 321C266 318.239 263.761 316 261 316C258.239 316 256 318.239 256 321C256 323.761 258.239 326 261 326C263.761 326 266 323.761 266 321Z" fill="#E82910"/>
<path d="M286 316H276V326H286V316Z" fill="#B2B2B2"/>
<path d="M306 316H296V326H306V316Z" fill="#555555"/>
<path d="M326 316H316V326H326V316Z" fill="#B2B2B2"/>
<path d="M336 316H346V326H336V316Z" fill="#B2B2B2"/>
<path d="M356 316H366V326H356V316Z" fill="#555555"/>
<path d="M376 316H386V326H376V316Z" fill="#B2B2B2"/>
<path d="M396 321C396 318.239 398.239 316 401 316C403.761 316 406 318.239 406 321C406 323.761 403.761 326 401 326C398.239 326 396 323.761 396 321Z" fill="#E82910"/>
<path d="M416 321C416 318.239 418.239 316 421 316C423.761 316 426 318.239 426 321C426 323.761 423.761 326 421 326C418.239 326 416 323.761 416 321Z" fill="#3F3F3F"/>
<path d="M436 316H446V326H436V316Z" fill="#B2B2B2"/>
<path d="M456 316H466V326H456V316Z" fill="#B2B2B2"/>
<path d="M476 321C476 318.239 478.239 316 481 316C483.761 316 486 318.239 486 321C486 323.761 483.761 326 481 326C478.239 326 476 323.761 476 321Z" fill="#555555"/>
<path d="M506 326H496V316H506V326Z" fill="#3F3F3F"/>
<path d="M526 326H516V316H526V326Z" fill="#B2B2B2"/>
<path d="M546 326H536V316H546V326Z" fill="#E82910"/>
<path d="M566 321C566 323.761 563.761 326 561 326C558.239 326 556 323.761 556 321C556 318.239 558.239 316 561 316C563.761 316 566 318.239 566 321Z" fill="#3F3F3F"/>
<path d="M16 311H26V301H16V311Z" fill="#B2B2B2"/>
<path d="M36 311H46V301H36V311Z" fill="white"/>
<path d="M56 311H66V301H56V311Z" fill="#E82910"/>
<path d="M76 306C76 308.761 78.2386 311 81 311C83.7614 311 86 308.761 86 306C86 303.239 83.7614 301 81 301C78.2386 301 76 303.239 76 306Z" fill="#741508"/>
<path d="M96 306C96 308.761 98.2386 311 101 311C103.761 311 106 308.761 106 306C106 303.239 103.761 301 101 301C98.2386 301 96 303.239 96 306Z" fill="#B2B2B2"/>
<path d="M116 311H126V301H116V311Z" fill="#E82910"/>
<path d="M136 311H146V301H136V311Z" fill="#B2B2B2"/>
<path d="M156 311H166V301H156V311Z" fill="#3F3F3F"/>
<path d="M186 306C186 303.239 183.761 301 181 301C178.239 301 176 303.239 176 306C176 308.761 178.239 311 181 311C183.761 311 186 308.761 186 306Z" fill="#555555"/>
<path d="M206 301H196V311H206V301Z" fill="#B2B2B2"/>
<path d="M226 301H216V311H226V301Z" fill="#B2B2B2"/>
<path d="M246 301H236V311H246V301Z" fill="white"/>
<path d="M266 301H256V311H266V301Z" fill="#741508"/>
<path d="M286 301H276V311H286V301Z" fill="#B2B2B2"/>
<path d="M306 301H296V311H306V301Z" fill="#555555"/>
<path d="M326 301H316V311H326V301Z" fill="#B2B2B2"/>
<path d="M336 301H346V311H336V301Z" fill="#B2B2B2"/>
<path d="M356 301H366V311H356V301Z" fill="#555555"/>
<path d="M376 301H386V311H376V301Z" fill="#B2B2B2"/>
<path d="M396 301H406V311H396V301Z" fill="#741508"/>
<path d="M416 301H426V311H416V301Z" fill="white"/>
<path d="M436 301H446V311H436V301Z" fill="#B2B2B2"/>
<path d="M456 301H466V311H456V301Z" fill="#B2B2B2"/>
<path d="M476 306C476 303.239 478.239 301 481 301C483.761 301 486 303.239 486 306C486 308.761 483.761 311 481 311C478.239 311 476 308.761 476 306Z" fill="#555555"/>
<path d="M506 311H496V301H506V311Z" fill="#3F3F3F"/>
<path d="M526 311H516V301H526V311Z" fill="#B2B2B2"/>
<path d="M546 311H536V301H546V311Z" fill="#E82910"/>
<path d="M566 306C566 308.761 563.761 311 561 311C558.239 311 556 308.761 556 306C556 303.239 558.239 301 561 301C563.761 301 566 303.239 566 306Z" fill="#B2B2B2"/>
<path d="M16 296H26V286H16V296Z" fill="#B2B2B2"/>
<path d="M36 296H46V286H36V296Z" fill="white"/>
<path d="M56 296H66V286H56V296Z" fill="#E82910"/>
<path d="M76 291C76 293.761 78.2386 296 81 296C83.7614 296 86 293.761 86 291C86 288.239 83.7614 286 81 286C78.2386 286 76 288.239 76 291Z" fill="#741508"/>
<path d="M96 291C96 293.761 98.2386 296 101 296C103.761 296 106 293.761 106 291C106 288.239 103.761 286 101 286C98.2386 286 96 288.239 96 291Z" fill="#B2B2B2"/>
<path d="M116 296H126V286H116V296Z" fill="#E82910"/>
<path d="M136 296H146V286H136V296Z" fill="#B2B2B2"/>
<path d="M156 296H166V286H156V296Z" fill="#3F3F3F"/>
<path d="M186 291C186 288.239 183.761 286 181 286C178.239 286 176 288.239 176 291C176 293.761 178.239 296 181 296C183.761 296 186 293.761 186 291Z" fill="#555555"/>
<path d="M206 286H196V296H206V286Z" fill="#B2B2B2"/>
<path d="M226 286H216V296H226V286Z" fill="#B2B2B2"/>
<path d="M246 286H236V296H246V286Z" fill="white"/>
<path d="M266 286H256V296H266V286Z" fill="#741508"/>
<path d="M286 286H276V296H286V286Z" fill="#B2B2B2"/>
<path d="M306 286H296V296H306V286Z" fill="#555555"/>
<path d="M326 286H316V296H326V286Z" fill="#B2B2B2"/>
<path d="M336 286H346V296H336V286Z" fill="#B2B2B2"/>
<path d="M356 286H366V296H356V286Z" fill="#555555"/>
<path d="M376 286H386V296H376V286Z" fill="#B2B2B2"/>
<path d="M396 286H406V296H396V286Z" fill="#741508"/>
<path d="M416 286H426V296H416V286Z" fill="white"/>
<path d="M436 286H446V296H436V286Z" fill="#B2B2B2"/>
<path d="M456 286H466V296H456V286Z" fill="#B2B2B2"/>
<path d="M476 291C476 288.239 478.239 286 481 286C483.761 286 486 288.239 486 291C486 293.761 483.761 296 481 296C478.239 296 476 293.761 476 291Z" fill="#555555"/>
<path d="M506 296H496V286H506V296Z" fill="#3F3F3F"/>
<path d="M526 296H516V286H526V296Z" fill="#B2B2B2"/>
<path d="M546 296H536V286H546V296Z" fill="#E82910"/>
<path d="M566 291C566 293.761 563.761 296 561 296C558.239 296 556 293.761 556 291C556 288.239 558.239 286 561 286C563.761 286 566 288.239 566 291Z" fill="#B2B2B2"/>
<path d="M16 281H26V271H16V281Z" fill="#B2B2B2"/>
<path d="M36 281H46V271H36V281Z" fill="white"/>
<path d="M56 281H66V271H56V281Z" fill="#E82910"/>
<path d="M76 281H86V271H76V281Z" fill="#888888"/>
<path d="M96 281H106V271H96V281Z" fill="#B2B2B2"/>
<path d="M116 281H126V271H116V281Z" fill="#E82910"/>
<path d="M136 281H146V271H136V281Z" fill="#B2B2B2"/>
<path d="M156 281H166V271H156V281Z" fill="#3F3F3F"/>
<path d="M186 271H176V281H186V271Z" fill="white"/>
<path d="M206 271H196V281H206V271Z" fill="#B2B2B2"/>
<path d="M226 271H216V281H226V271Z" fill="#B2B2B2"/>
<path d="M246 271H236V281H246V271Z" fill="white"/>
<path d="M266 271H256V281H266V271Z" fill="#741508"/>
<path d="M286 271H276V281H286V271Z" fill="#B2B2B2"/>
<path d="M306 271H296V281H306V271Z" fill="#555555"/>
<path d="M326 271H316V281H326V271Z" fill="#B2B2B2"/>
<path d="M336 271H346V281H336V271Z" fill="#B2B2B2"/>
<path d="M356 271H366V281H356V271Z" fill="#555555"/>
<path d="M376 271H386V281H376V271Z" fill="#B2B2B2"/>
<path d="M396 271H406V281H396V271Z" fill="#741508"/>
<path d="M416 271H426V281H416V271Z" fill="white"/>
<path d="M436 271H446V281H436V271Z" fill="#B2B2B2"/>
<path d="M456 271H466V281H456V271Z" fill="#B2B2B2"/>
<path d="M476 271H486V281H476V271Z" fill="white"/>
<path d="M506 281H496V271H506V281Z" fill="#3F3F3F"/>
<path d="M526 281H516V271H526V281Z" fill="#B2B2B2"/>
<path d="M546 281H536V271H546V281Z" fill="#E82910"/>
<path d="M566 281H556V271H566V281Z" fill="#B2B2B2"/>
<path d="M16 261C16 263.761 18.2386 266 21 266C23.7614 266 26 263.761 26 261C26 258.239 23.7614 256 21 256C18.2386 256 16 258.239 16 261Z" fill="#B2B2B2"/>
<path d="M36 266H46V256H36V266Z" fill="white"/>
<path d="M56 266H66V256H56V266Z" fill="#E82910"/>
<path d="M76 266H86V256H76V266Z" fill="#B2B2B2"/>
<path d="M96 266H106V256H96V266Z" fill="#B2B2B2"/>
<path d="M116 266H126V256H116V266Z" fill="#E82910"/>
<path d="M136 266H146V256H136V266Z" fill="#B2B2B2"/>
<path d="M156 266H166V256H156V266Z" fill="#3F3F3F"/>
<path d="M186 256H176V266H186V256Z" fill="white"/>
<path d="M206 256H196V266H206V256Z" fill="#B2B2B2"/>
<path d="M226 256H216V266H226V256Z" fill="#B2B2B2"/>
<path d="M246 256H236V266H246V256Z" fill="white"/>
<path d="M266 256H256V266H266V256Z" fill="#B2B2B2"/>
<path d="M286 256H276V266H286V256Z" fill="#B2B2B2"/>
<path d="M306 256H296V266H306V256Z" fill="#555555"/>
<path d="M326 261C326 258.239 323.761 256 321 256C318.239 256 316 258.239 316 261C316 263.761 318.239 266 321 266C323.761 266 326 263.761 326 261Z" fill="#B2B2B2"/>
<path d="M336 261C336 258.239 338.239 256 341 256C343.761 256 346 258.239 346 261C346 263.761 343.761 266 341 266C338.239 266 336 263.761 336 261Z" fill="#B2B2B2"/>
<path d="M356 256H366V266H356V256Z" fill="#555555"/>
<path d="M376 256H386V266H376V256Z" fill="#B2B2B2"/>
<path d="M396 256H406V266H396V256Z" fill="#B2B2B2"/>
<path d="M416 256H426V266H416V256Z" fill="white"/>
<path d="M436 256H446V266H436V256Z" fill="#B2B2B2"/>
<path d="M456 256H466V266H456V256Z" fill="#B2B2B2"/>
<path d="M476 256H486V266H476V256Z" fill="white"/>
<path d="M506 266H496V256H506V266Z" fill="#3F3F3F"/>
<path d="M526 266H516V256H526V266Z" fill="#B2B2B2"/>
<path d="M546 266H536V256H546V266Z" fill="#E82910"/>
<path d="M566 266H556V256H566V266Z" fill="#B2B2B2"/>
</g>
<rect x="581.5" y="0.5" width="506" height="581" transform="rotate(90 581.5 0.5)" stroke="white" stroke-dasharray="2 4 6 8"/>
<defs>
<clipPath id="clip0_186_233">
<rect x="582" width="507" height="582" transform="rotate(90 582 0)" fill="white"/>
</clipPath>
</defs>
</svg>
