<svg width="875" height="122" viewBox="0 0 875 122" fill="none" xmlns="http://www.w3.org/2000/svg">
<g style="mix-blend-mode:plus-lighter">
<path d="M12.7089 147V25.1339H48.0501L74.6865 134.465H77.472L104.109 25.1339H139.45V147H121.17V38.365H118.384L91.9219 147H60.2367L33.7743 38.365H30.9888V147H12.7089ZM164.872 147V25.1339H241.647V42.1951H183.674V77.1881H236.773V94.2494H183.674V129.939H242.518V147H164.872ZM291.193 147V42.1951H253.763V25.1339H347.426V42.1951H309.996V147H291.193ZM343.344 147L378.163 25.1339H411.241L445.886 147H426.561L418.553 118.274H370.851L362.843 147H343.344ZM375.552 100.865H413.853L396.095 36.7982H393.309L375.552 100.865ZM462.396 147V25.1339H498.608L531.686 134.465H534.471V25.1339H553.1V147H516.888L483.81 37.4946H481.024V147H462.396ZM578.516 147V25.1339H655.292V42.1951H597.318V77.1881H650.417V94.2494H597.318V129.939H656.162V147H578.516ZM721.029 149.437C706.173 149.437 694.392 145.259 685.687 136.903C676.983 128.43 672.63 116.243 672.63 100.343V71.7912C672.63 55.8906 676.983 43.762 685.687 35.4054C694.392 26.9328 706.173 22.6965 721.029 22.6965C735.653 22.6965 746.911 26.7587 754.803 34.8831C762.811 43.0076 766.815 54.0916 766.815 68.1352V69.1798H748.187V67.6129C748.187 59.3724 745.924 52.6408 741.398 47.418C736.987 42.1951 730.198 39.5837 721.029 39.5837C711.744 39.5837 704.49 42.4272 699.267 48.1143C694.044 53.6854 691.433 61.4616 691.433 71.443V100.691C691.433 110.556 694.044 118.332 699.267 124.02C704.49 129.707 711.744 132.55 721.029 132.55C730.198 132.55 736.987 129.939 741.398 124.716C745.924 119.377 748.187 112.645 748.187 104.521V101.561H766.815V103.999C766.815 118.042 762.811 129.126 754.803 137.251C746.911 145.375 735.653 149.437 721.029 149.437ZM814.157 147V42.1951H776.727V25.1339H870.389V42.1951H832.959V147H814.157Z" fill="url(#paint0_linear_186_661)"/>
<path d="M12.7089 147V25.1339H48.0501L74.6865 134.465H77.472L104.109 25.1339H139.45V147H121.17V38.365H118.384L91.9219 147H60.2367L33.7743 38.365H30.9888V147H12.7089ZM164.872 147V25.1339H241.647V42.1951H183.674V77.1881H236.773V94.2494H183.674V129.939H242.518V147H164.872ZM291.193 147V42.1951H253.763V25.1339H347.426V42.1951H309.996V147H291.193ZM343.344 147L378.163 25.1339H411.241L445.886 147H426.561L418.553 118.274H370.851L362.843 147H343.344ZM375.552 100.865H413.853L396.095 36.7982H393.309L375.552 100.865ZM462.396 147V25.1339H498.608L531.686 134.465H534.471V25.1339H553.1V147H516.888L483.81 37.4946H481.024V147H462.396ZM578.516 147V25.1339H655.292V42.1951H597.318V77.1881H650.417V94.2494H597.318V129.939H656.162V147H578.516ZM721.029 149.437C706.173 149.437 694.392 145.259 685.687 136.903C676.983 128.43 672.63 116.243 672.63 100.343V71.7912C672.63 55.8906 676.983 43.762 685.687 35.4054C694.392 26.9328 706.173 22.6965 721.029 22.6965C735.653 22.6965 746.911 26.7587 754.803 34.8831C762.811 43.0076 766.815 54.0916 766.815 68.1352V69.1798H748.187V67.6129C748.187 59.3724 745.924 52.6408 741.398 47.418C736.987 42.1951 730.198 39.5837 721.029 39.5837C711.744 39.5837 704.49 42.4272 699.267 48.1143C694.044 53.6854 691.433 61.4616 691.433 71.443V100.691C691.433 110.556 694.044 118.332 699.267 124.02C704.49 129.707 711.744 132.55 721.029 132.55C730.198 132.55 736.987 129.939 741.398 124.716C745.924 119.377 748.187 112.645 748.187 104.521V101.561H766.815V103.999C766.815 118.042 762.811 129.126 754.803 137.251C746.911 145.375 735.653 149.437 721.029 149.437ZM814.157 147V42.1951H776.727V25.1339H870.389V42.1951H832.959V147H814.157Z" fill="black" fill-opacity="0.8"/>
</g>
<defs>
<linearGradient id="paint0_linear_186_661" x1="438.921" y1="-24.7708" x2="437.5" y2="175" gradientUnits="userSpaceOnUse">
<stop stop-color="white"/>
<stop offset="0.384613" stop-color="white" stop-opacity="0.76745"/>
<stop offset="0.656838" stop-opacity="0.5"/>
<stop offset="0.700609" stop-color="white"/>
</linearGradient>
</defs>
</svg>
