<svg width="615" height="308" viewBox="0 0 615 308" fill="none" xmlns="http://www.w3.org/2000/svg">
<g filter="url(#filter0_f_186_613)">
<path d="M150.328 154.236C124.861 101.519 73.4329 25.0705 27.6797 -7.11328L567.206 -3.63852C485.329 59.9768 447.389 101.435 447.389 154.098L150.328 154.236Z" fill="url(#paint0_linear_186_613)" fill-opacity="0.4"/>
</g>
<rect x="153.882" y="203.979" width="30.8" height="30.8" transform="rotate(-20 153.882 203.979)" fill="#888888"/>
<rect x="153.882" y="203.979" width="30.8" height="30.8" transform="rotate(-20 153.882 203.979)" stroke="#3F3F3F" stroke-width="1.2" stroke-miterlimit="16" stroke-dasharray="2 4 6 8"/>
<path d="M164.264 218.184C163.792 216.887 164.461 215.452 165.758 214.98L166.228 214.809L166.57 215.748L166.1 215.919C165.322 216.203 164.92 217.064 165.204 217.842C165.487 218.621 166.348 219.022 167.126 218.739L167.596 218.568L167.938 219.507L167.468 219.678C166.171 220.15 164.736 219.482 164.264 218.184Z" fill="#3F3F3F"/>
<path d="M183.058 211.344C182.775 210.565 181.914 210.164 181.135 210.447L180.665 210.618L180.323 209.678L180.793 209.507C182.091 209.035 183.525 209.704 183.998 211.002C184.47 212.299 183.801 213.734 182.503 214.206L182.034 214.377L181.692 213.437L182.161 213.266C182.94 212.983 183.341 212.122 183.058 211.344Z" fill="#3F3F3F"/>
<path d="M165.542 207.077L166.482 206.735L167.85 210.494L166.91 210.836L165.542 207.077Z" fill="#3F3F3F"/>
<path d="M174.939 203.657L175.879 203.315L177.247 207.074L176.307 207.416L174.939 203.657Z" fill="#3F3F3F"/>
<path d="M180.608 211.923C180.103 210.536 179.74 209.541 179.367 208.82C178.999 208.111 178.654 207.735 178.222 207.524C177.793 207.315 177.302 207.281 176.554 207.441C175.789 207.605 174.831 207.953 173.488 208.442L170.669 209.468C169.327 209.956 168.369 210.306 167.678 210.672C167.001 211.03 166.648 211.372 166.453 211.808C166.258 212.246 166.235 212.756 166.409 213.536C166.586 214.329 166.948 215.324 167.453 216.712C167.958 218.099 168.321 219.094 168.694 219.815C169.062 220.525 169.408 220.9 169.84 221.111C170.269 221.32 170.759 221.353 171.507 221.193C172.272 221.029 173.23 220.682 174.573 220.193L175.537 219.843C175.937 219.697 176.286 219.615 176.659 219.654C177.021 219.691 177.351 219.838 177.716 220.028C178.098 220.226 178.565 220.442 179.031 220.596C179.508 220.753 179.937 220.829 180.263 220.792L180.457 220.766C180.63 220.738 180.741 220.705 180.808 220.674C180.81 220.673 180.813 220.67 180.813 220.67C180.807 220.647 180.801 220.613 180.783 220.568C180.729 220.434 180.63 220.256 180.474 220.017C180.413 219.924 180.238 219.687 180.125 219.482C180.012 219.275 179.862 218.937 179.95 218.569L180.003 218.411C180.067 218.265 180.163 218.151 180.269 218.058C180.391 217.95 180.551 217.85 180.7 217.754C181.169 217.455 181.463 217.151 181.608 216.828C181.803 216.389 181.826 215.879 181.652 215.099C181.475 214.306 181.113 213.311 180.608 211.923ZM181.548 211.581C182.044 212.943 182.433 214.01 182.627 214.881C182.825 215.764 182.84 216.519 182.521 217.235C182.265 217.809 181.791 218.245 181.239 218.598C181.156 218.65 181.092 218.691 181.038 218.728C180.984 218.765 180.951 218.79 180.93 218.809C180.928 218.81 180.925 218.813 180.925 218.813C180.929 218.837 180.944 218.896 181.002 219.002C181.093 219.168 181.188 219.282 181.311 219.47C181.477 219.724 181.62 219.968 181.711 220.195C181.799 220.414 181.868 220.691 181.788 220.972C181.7 221.279 181.471 221.469 181.225 221.582C180.992 221.69 180.7 221.75 180.375 221.787C179.837 221.847 179.244 221.719 178.718 221.546C178.182 221.369 177.664 221.128 177.255 220.915C176.904 220.733 176.717 220.665 176.555 220.648C176.404 220.633 176.222 220.657 175.879 220.782L174.915 221.133C173.6 221.612 172.565 221.989 171.717 222.171C170.852 222.355 170.109 222.355 169.402 222.01C168.697 221.667 168.224 221.079 167.807 220.275C167.396 219.483 167.009 218.416 166.513 217.054C166.017 215.692 165.628 214.625 165.434 213.754C165.236 212.871 165.221 212.116 165.54 211.4C165.861 210.681 166.429 210.202 167.21 209.788C167.976 209.382 169.012 209.007 170.327 208.528L173.146 207.502C174.461 207.023 175.496 206.645 176.344 206.464C177.209 206.279 177.952 206.281 178.659 206.625C179.364 206.968 179.837 207.557 180.254 208.36C180.665 209.152 181.052 210.22 181.548 211.581Z" fill="#3F3F3F"/>
<path d="M177.65 214.884L177.452 215.344C177.064 216.25 176.233 217.02 175.157 217.412C174.081 217.804 172.949 217.748 172.069 217.303L171.623 217.078L172.074 216.185L172.52 216.412C173.127 216.718 173.97 216.78 174.815 216.472C175.66 216.165 176.266 215.576 176.534 214.951L176.73 214.491L177.65 214.884Z" fill="#3F3F3F"/>
<path d="M170.764 212.626L171.106 213.566L170.158 213.911L169.816 212.971L170.764 212.626Z" fill="#3F3F3F"/>
<path d="M166.35 204.377L167.205 206.726L164.838 207.588L163.983 205.239L166.35 204.377Z" fill="#3F3F3F"/>
<path d="M176.402 210.574L176.744 211.513L175.796 211.858L175.454 210.919L176.402 210.574Z" fill="#3F3F3F"/>
<path d="M175.771 200.899L176.626 203.248L174.259 204.11L173.404 201.76L175.771 200.899Z" fill="#3F3F3F"/>
<rect x="397.164" y="184.075" width="30.8" height="30.8" transform="rotate(-10 397.164 184.075)" fill="#888888"/>
<rect x="397.164" y="184.075" width="30.8" height="30.8" transform="rotate(-10 397.164 184.075)" stroke="#3F3F3F" stroke-width="1.2" stroke-miterlimit="16" stroke-dasharray="2 4 6 8"/>
<path d="M404.242 197.449L403.711 194.439C403.556 193.558 403.431 192.85 403.38 192.27C403.329 191.68 403.348 191.152 403.525 190.643C403.753 189.986 404.16 189.405 404.699 188.966C405.117 188.625 405.607 188.427 406.178 188.274C406.74 188.123 407.449 187.998 408.33 187.843C409.418 187.651 410.152 187.51 410.852 187.64C412.417 187.932 413.244 189.184 413.892 190.058L414.461 190.824L418.682 190.079C419.704 189.899 420.525 189.754 421.195 189.705C421.877 189.655 422.484 189.696 423.059 189.949C423.51 190.147 423.917 190.433 424.258 190.789C424.692 191.242 424.939 191.798 425.125 192.457C425.308 193.103 425.452 193.925 425.633 194.946C425.935 196.66 426.172 198 426.251 199.085C426.332 200.183 426.259 201.101 425.884 201.953C425.58 202.644 425.143 203.27 424.597 203.792C423.924 204.436 423.086 204.818 422.028 205.117C420.981 205.414 419.64 205.649 417.927 205.952L416.695 206.169C414.395 206.574 412.596 206.893 411.162 206.952C409.705 207.012 408.512 206.81 407.475 206.084C406.439 205.358 405.841 204.306 405.399 202.917C404.963 201.549 404.648 199.749 404.242 197.449ZM405.719 197.188C406.132 199.53 406.431 201.213 406.829 202.462C407.22 203.691 407.676 204.393 408.336 204.855C408.995 205.317 409.811 205.505 411.099 205.453C412.41 205.399 414.093 205.104 416.435 204.691L417.666 204.474C419.41 204.167 420.663 203.945 421.619 203.674C422.563 203.407 423.137 203.113 423.56 202.708C423.963 202.323 424.286 201.86 424.511 201.35C424.746 200.814 424.827 200.174 424.755 199.195C424.683 198.204 424.463 196.951 424.155 195.207C423.97 194.154 423.839 193.42 423.682 192.865C423.547 192.389 423.408 192.106 423.245 191.906L423.174 191.826C422.97 191.612 422.725 191.441 422.455 191.322C422.197 191.208 421.868 191.159 421.305 191.2C420.729 191.243 419.995 191.371 418.942 191.557L411.31 192.902L411.05 191.425L412.809 191.115L412.688 190.952C411.938 189.942 411.454 189.279 410.577 189.116C410.208 189.047 409.795 189.108 408.591 189.32C407.684 189.48 407.051 189.593 406.568 189.722C406.094 189.85 405.832 189.977 405.646 190.129C405.322 190.392 405.078 190.741 404.941 191.135C404.862 191.362 404.832 191.651 404.875 192.14C404.918 192.639 405.029 193.272 405.189 194.179L405.719 197.188Z" fill="#3F3F3F"/>
<path d="M418.182 196.426L419.489 197.341L418.642 198.551L419.051 198.839L419.461 199.126L420.882 197.096L418.755 195.607L418.182 196.426Z" fill="#3F3F3F"/>
<path d="M411.967 197.522L411.051 198.829L412.261 199.676L411.975 200.087L411.688 200.496L409.659 199.075L411.148 196.948L411.967 197.522Z" fill="#3F3F3F"/>
<path d="M415.386 199.903L415.201 200.782L414.223 200.577L414.406 199.699L415.386 199.903ZM415.936 197.268L415.569 199.024L414.59 198.82L414.957 197.064L415.936 197.268ZM416.303 195.511L416.119 196.389L415.14 196.185L415.325 195.306L416.303 195.511Z" fill="#3F3F3F"/>
<rect x="249.789" y="145.016" width="30.8" height="30.8" transform="rotate(-35 249.789 145.016)" fill="#888888"/>
<rect x="249.789" y="145.016" width="30.8" height="30.8" transform="rotate(-35 249.789 145.016)" stroke="#3F3F3F" stroke-width="1.2" stroke-miterlimit="16" stroke-dasharray="2 4 6 8"/>
<path d="M279.921 146.379C279.109 145.22 278.521 144.383 277.998 143.776C277.48 143.176 277.059 142.846 276.601 142.668C276.227 142.522 275.83 142.442 275.429 142.431L275.256 142.43C274.765 142.441 274.257 142.608 273.565 142.995C272.866 143.385 272.027 143.972 270.868 144.783L267.591 147.077C266.432 147.889 265.594 148.477 264.988 149C264.388 149.518 264.057 149.939 263.879 150.397C263.713 150.825 263.632 151.282 263.642 151.742C263.653 152.233 263.82 152.741 264.206 153.433C264.597 154.132 265.183 154.971 265.995 156.13C266.806 157.289 267.394 158.127 267.918 158.733C268.436 159.333 268.856 159.664 269.314 159.842L269.476 159.9C269.857 160.027 270.257 160.088 270.659 160.079C271.15 160.068 271.658 159.902 272.35 159.515C273.05 159.124 273.889 158.538 275.048 157.726L278.324 155.432C279.483 154.621 280.321 154.033 280.928 153.509C281.528 152.991 281.858 152.571 282.036 152.113C282.203 151.685 282.283 151.227 282.273 150.768C282.263 150.277 282.096 149.769 281.709 149.077C281.318 148.377 280.732 147.538 279.921 146.379ZM280.74 145.806C281.539 146.948 282.161 147.835 282.582 148.589C283.008 149.351 283.257 150.025 283.273 150.746C283.286 151.337 283.182 151.924 282.968 152.475C282.706 153.148 282.242 153.696 281.581 154.266C280.928 154.831 280.04 155.452 278.898 156.251L275.621 158.546C274.479 159.345 273.592 159.967 272.838 160.388C272.076 160.814 271.402 161.063 270.681 161.079C270.09 161.091 269.503 160.988 268.952 160.774C268.279 160.512 267.731 160.048 267.161 159.387C266.596 158.733 265.975 157.846 265.176 156.704C264.376 155.562 263.754 154.675 263.333 153.92C262.908 153.159 262.658 152.485 262.643 151.763C262.63 151.173 262.733 150.585 262.948 150.035C263.209 149.362 263.674 148.814 264.334 148.243C264.988 147.679 265.876 147.058 267.018 146.258L270.294 143.964C271.436 143.164 272.323 142.543 273.078 142.121C273.839 141.696 274.513 141.447 275.235 141.431C275.825 141.418 276.413 141.522 276.963 141.736C277.636 141.997 278.184 142.462 278.755 143.122C279.319 143.776 279.94 144.664 280.74 145.806Z" fill="#3F3F3F"/>
<path d="M269.833 141.375C270.594 140.842 271.206 140.413 271.731 140.141C272.269 139.863 272.782 139.715 273.341 139.813C274.227 139.969 274.816 140.679 275.521 141.657L274.71 142.241C273.964 141.208 273.595 140.873 273.167 140.798C272.91 140.753 272.628 140.802 272.19 141.029C271.738 141.263 271.191 141.645 270.407 142.194L265.488 145.638C264.704 146.187 264.158 146.571 263.784 146.915C263.421 147.25 263.277 147.498 263.232 147.755C263.156 148.182 263.345 148.644 264.061 149.698L263.234 150.26C262.557 149.263 262.091 148.467 262.247 147.581C262.346 147.022 262.661 146.591 263.106 146.181C263.541 145.78 264.154 145.352 264.915 144.819L269.833 141.375Z" fill="#3F3F3F"/>
<path d="M267.291 139.492C267.667 139.229 267.97 139.017 268.227 138.862C268.488 138.705 268.734 138.586 269.004 138.526C269.651 138.383 270.328 138.502 270.888 138.858C271.12 139.006 271.311 139.202 271.502 139.44C271.691 139.674 271.903 139.976 272.166 140.352L271.347 140.926C271.076 140.538 270.887 140.268 270.724 140.067C270.565 139.869 270.453 139.767 270.35 139.702C270.015 139.488 269.608 139.416 269.22 139.502C269.101 139.529 268.961 139.587 268.744 139.718C268.522 139.851 268.252 140.04 267.865 140.312L264.588 142.606C264.201 142.877 263.931 143.066 263.73 143.229C263.532 143.388 263.43 143.5 263.364 143.602C263.151 143.938 263.079 144.344 263.165 144.733C263.192 144.852 263.249 144.991 263.381 145.209C263.514 145.43 263.703 145.7 263.974 146.088L263.155 146.661C262.892 146.285 262.68 145.983 262.525 145.726C262.368 145.464 262.249 145.218 262.189 144.949C262.045 144.302 262.165 143.624 262.521 143.065C262.669 142.833 262.865 142.642 263.103 142.45C263.337 142.262 263.639 142.05 264.015 141.787L267.291 139.492Z" fill="#3F3F3F"/>
<path d="M273.272 147.975L273.845 148.794L267.292 153.382L266.719 152.563L273.272 147.975Z" fill="#3F3F3F"/>
<path d="M275.954 146.091L276.528 146.91L275.709 147.484L275.135 146.664L275.954 146.091Z" fill="#3F3F3F"/>
<path d="M278.505 149.343L279.078 150.162L278.259 150.736L277.685 149.917L278.505 149.343Z" fill="#3F3F3F"/>
<path d="M273.928 152.399L274.501 153.218L269.587 156.659L269.013 155.84L273.928 152.399Z" fill="#3F3F3F"/>
<rect x="300.274" y="0.813546" width="30.8" height="30.8" transform="rotate(-15 300.274 0.813546)" fill="#888888"/>
<rect x="300.274" y="0.813546" width="30.8" height="30.8" transform="rotate(-15 300.274 0.813546)" stroke="#3F3F3F" stroke-width="1.2" stroke-miterlimit="16" stroke-dasharray="2 4 6 8"/>
<path d="M326.379 9.76176C325.887 7.92688 325.531 6.5994 325.123 5.62342C324.721 4.66082 324.297 4.11074 323.712 3.77316C323.128 3.43559 322.439 3.34324 321.405 3.47655C320.356 3.61175 319.028 3.96681 317.193 4.45846C315.358 4.95011 314.031 5.30654 313.055 5.71392C312.092 6.11575 311.542 6.53997 311.204 7.12466C310.867 7.70936 310.775 8.39785 310.908 9.43241C311.043 10.4813 311.398 11.8092 311.89 13.644C312.381 15.4789 312.738 16.8064 313.145 17.7824C313.547 18.745 313.971 19.2951 314.556 19.6326C315.141 19.9702 315.829 20.0626 316.864 19.9293C317.913 19.7941 319.24 19.439 321.075 18.9473C322.91 18.4557 324.238 18.0993 325.214 17.6919C326.176 17.2901 326.726 16.8658 327.064 16.2811C327.401 15.6965 327.494 15.008 327.361 13.9734C327.225 12.9245 326.87 11.5966 326.379 9.76176ZM327.345 9.50294C327.829 11.3106 328.206 12.7152 328.352 13.8463C328.499 14.9917 328.421 15.931 327.93 16.7811C327.439 17.6312 326.665 18.1689 325.599 18.6138C324.547 19.0531 323.142 19.4289 321.334 19.9133C319.526 20.3977 318.122 20.7746 316.991 20.9204C315.845 21.0679 314.906 20.9894 314.056 20.4986C313.206 20.0078 312.668 19.2336 312.223 18.1679C311.784 17.1154 311.408 15.7106 310.924 13.9029C310.439 12.0952 310.062 10.6906 309.917 9.55947C309.769 8.41412 309.848 7.4748 310.338 6.62472C310.829 5.77464 311.603 5.23695 312.669 4.79206C313.722 4.35272 315.126 3.97691 316.934 3.49253C318.742 3.00816 320.146 2.63119 321.278 2.48543C322.423 2.33789 323.362 2.41641 324.212 2.90723C325.062 3.39802 325.6 4.17224 326.045 5.2379C326.484 6.29037 326.86 7.69523 327.345 9.50294Z" fill="#3F3F3F"/>
<path d="M320.593 15.6706C320.538 15.6204 320.469 15.5827 320.393 15.5643L320.354 15.7213L320.502 15.7676L320.895 15.8917L320.809 16.1687C320.78 16.2614 320.728 16.3378 320.664 16.3985L320.286 16.0024L320.156 16.5347C320.071 16.5139 319.988 16.4733 319.917 16.4078L319.702 16.2114L319.981 15.9073L320.086 15.7933L319.974 15.6765C319.918 15.7302 319.877 15.7975 319.855 15.8682L319.941 15.5913L320.197 15.6713L320.379 15.474L320.593 15.6706ZM318.915 14.2102C319.201 14.4201 319.476 14.6465 319.739 14.8874L319.952 15.083L319.277 15.8199L319.063 15.6245C318.827 15.4082 318.58 15.2055 318.323 15.0171L318.915 14.2102ZM321.493 14.1676C321.365 14.4591 321.253 14.7583 321.157 15.0634L321.069 15.3397L320.116 15.039L320.203 14.763C320.31 14.4231 320.435 14.0896 320.577 13.7649L321.493 14.1676ZM316.074 12.7716C316.414 12.8786 316.747 13.0033 317.072 13.1461L316.669 14.0621C316.377 13.934 316.078 13.8215 315.774 13.7256L315.496 13.6381L315.798 12.6848L316.074 12.7716ZM323.251 11.5602L323.056 11.7743C322.84 12.0101 322.636 12.2567 322.448 12.5134L321.641 11.9218C321.851 11.6357 322.078 11.361 322.319 11.0983L322.514 10.8852L323.251 11.5602ZM314.626 12.2719L314.929 12.5497L315.043 12.6546L315.161 12.5432C315.134 12.5152 315.104 12.4911 315.071 12.471L314.969 12.4237L315.246 12.5102L315.165 12.7665L315.363 12.9479L315.166 13.1613C315.217 13.1067 315.254 13.0376 315.273 12.962L315.115 12.9234L314.945 13.4642L314.668 13.3777C314.575 13.3484 314.498 13.297 314.438 13.2333L314.799 12.8887L314.834 12.8552L314.831 12.8538L314.301 12.7249C314.322 12.6396 314.364 12.5569 314.429 12.4854L314.625 12.2712L314.626 12.2719ZM323.6 10.0281C323.692 10.0572 323.769 10.1086 323.83 10.1718L323.434 10.5508L323.481 10.5624L323.966 10.6802C323.945 10.7656 323.905 10.8487 323.839 10.9204L323.642 11.1339L323.338 10.8554L323.224 10.7505L323.108 10.8626C323.161 10.9189 323.229 10.9598 323.299 10.9821L323.023 10.8956L323.103 10.6396L322.905 10.4579L323.102 10.2445C323.052 10.2991 323.014 10.3682 322.996 10.4438L323.152 10.4817L323.199 10.3338L323.323 9.94155L323.6 10.0281ZM315.82 10.8924L316.627 11.484C316.417 11.7701 316.191 12.0448 315.95 12.3075L315.754 12.5206L315.017 11.8456L315.016 11.8449L315.213 11.6315C315.429 11.3958 315.631 11.1484 315.819 10.8917L315.82 10.8924ZM321.599 9.34305C321.89 9.47134 322.189 9.58411 322.495 9.68022L322.771 9.76701L322.47 10.721L322.194 10.6342C321.854 10.5272 321.521 10.4025 321.196 10.2597L321.599 9.34305ZM317.199 8.0661L318.152 8.36678L318.065 8.64279C317.958 8.9827 317.834 9.31619 317.691 9.64093L316.775 9.23823L316.774 9.23754C316.902 8.94608 317.015 8.64744 317.111 8.34236L317.198 8.06541L317.199 8.0661ZM319.206 7.78125C319.441 7.9973 319.688 8.19981 319.944 8.38804L319.353 9.19558C319.067 8.98574 318.792 8.75931 318.53 8.51844L318.316 8.3228L318.991 7.58587L319.206 7.78125ZM318.111 6.87036C318.197 6.8911 318.28 6.93219 318.352 6.99803L318.565 7.19366L318.182 7.61181L318.294 7.72931C318.35 7.67556 318.391 7.60833 318.413 7.53756L318.327 7.81451L318.071 7.73354L317.889 7.93179L317.676 7.73521C317.73 7.78537 317.799 7.8231 317.875 7.84154L317.913 7.68385L317.373 7.51408L317.372 7.51339L317.459 7.23713C317.482 7.16565 317.517 7.10289 317.561 7.05018L317.603 7.0066L317.982 7.40245L318.111 6.87036Z" fill="#3F3F3F"/>
<path d="M317.824 20.3362L318.342 22.268L317.376 22.5268L316.858 20.595L317.824 20.3362ZM321.688 19.3009L322.205 21.2328L321.239 21.4916L320.722 19.5597L321.688 19.3009ZM325.551 18.2656L326.069 20.1975L325.103 20.4563L324.585 18.5244L325.551 18.2656ZM312.313 17.1542L312.571 18.1201L310.64 18.6378L310.381 17.6718L312.313 17.1542ZM329.699 12.4955L329.958 13.4614L328.026 13.979L327.767 13.0131L329.699 12.4955ZM311.277 13.2905L311.536 14.2564L309.604 14.7741L309.345 13.8081L311.277 13.2905ZM328.664 8.63175L328.923 9.59768L326.991 10.1153L326.732 9.14939L328.664 8.63175ZM310.242 9.42679L310.501 10.3927L308.569 10.9104L308.31 9.94443L310.242 9.42679ZM327.629 4.76805L327.888 5.73397L325.956 6.25161L325.697 5.28569L327.629 4.76805ZM313.165 2.94951L313.683 4.88136L312.717 5.14018L312.199 3.20833L313.165 2.94951ZM317.029 1.91424L317.547 3.84609L316.581 4.10491L316.063 2.17306L317.029 1.91424ZM320.893 0.87896L321.41 2.81081L320.444 3.06963L319.927 1.13778L320.893 0.87896Z" fill="#3F3F3F"/>
<rect x="129.605" y="141.738" width="29.0579" height="27.3732" transform="rotate(-10 129.605 141.738)" fill="#888888"/>
<rect x="129.605" y="141.738" width="29.0579" height="27.3732" transform="rotate(-10 129.605 141.738)" stroke="#3F3F3F" stroke-width="1.2" stroke-miterlimit="16" stroke-dasharray="2 4 6 8"/>
<path d="M153.664 146.174C154.039 145.898 154.522 145.812 154.969 145.944C155.223 146.019 155.46 146.193 155.74 146.389C156.02 146.585 156.265 146.748 156.422 146.962C156.698 147.337 156.784 147.82 156.652 148.267C156.578 148.521 156.404 148.758 156.207 149.038L150.981 156.503L150.914 156.6L150.81 156.656L147.172 158.626L147.779 154.534L147.796 154.417L147.864 154.32L153.091 146.856C153.287 146.576 153.45 146.331 153.664 146.174ZM148.75 154.798L148.454 156.793L150.228 155.833L154.146 150.238L152.667 149.202L148.75 154.798ZM154.687 146.903C154.539 146.86 154.38 146.888 154.257 146.979C154.208 147.014 154.152 147.083 153.91 147.429L153.241 148.383L154.72 149.419L155.388 148.465C155.631 148.119 155.676 148.042 155.693 147.985C155.736 147.837 155.708 147.678 155.618 147.555C155.582 147.506 155.513 147.45 155.167 147.208C154.82 146.965 154.744 146.92 154.687 146.903Z" fill="#3F3F3F"/>
<path d="M141.665 157.223C141.852 157.19 142.041 157.266 142.153 157.418L143.634 159.415L144.315 159.295L144.489 160.279L143.504 160.453C143.317 160.486 143.128 160.411 143.015 160.259L141.946 158.817L141.434 160.537C141.38 160.719 141.228 160.854 141.042 160.887L140.057 161.061L139.883 160.076L140.564 159.956L141.273 157.573L141.298 157.507C141.365 157.359 141.502 157.252 141.665 157.223Z" fill="#3F3F3F"/>
<path d="M145.242 146.685L145.415 147.67L137.537 149.059L137.363 148.074L145.242 146.685Z" fill="#3F3F3F"/>
<path d="M143.967 150.971L144.141 151.956L138.232 152.998L138.059 152.013L143.967 150.971Z" fill="#3F3F3F"/>
<path d="M149.865 141.618L150.573 145.631L149.588 145.805L149.054 142.776L134.701 145.307L137.927 163.598L152.279 161.068L151.682 157.681L152.667 157.508L153.438 161.879L137.115 164.757L133.543 144.496L149.865 141.618Z" fill="#3F3F3F"/>
<rect x="245.163" y="68.1978" width="30.8" height="30.8" transform="rotate(-28 245.163 68.1978)" fill="#888888"/>
<rect x="245.163" y="68.1978" width="30.8" height="30.8" transform="rotate(-28 245.163 68.1978)" stroke="#3F3F3F" stroke-width="1.2" stroke-miterlimit="16" stroke-dasharray="2 4 6 8"/>
<path d="M270.124 61.0414L279.513 78.7003L261.854 88.0897L252.465 70.4308L270.124 61.0414ZM262.268 86.7373L278.161 78.2868L269.71 62.3938L253.817 70.8443L262.268 86.7373Z" fill="#3F3F3F"/>
<path d="M268.303 78.1035C268.238 78.0669 268.162 78.0457 268.084 78.0447L268.082 78.2064L268.236 78.2183L268.648 78.2508L268.625 78.5401C268.618 78.6371 268.585 78.7232 268.536 78.7966L268.079 78.4957L268.071 79.0437C267.984 79.0425 267.894 79.0216 267.81 78.9738L267.557 78.8307L267.76 78.4718L267.836 78.3371L267.702 78.2483C267.659 78.3133 267.634 78.388 267.628 78.462L267.65 78.1727L267.918 78.193L268.05 77.9599L268.303 78.1035ZM266.34 77.0578C266.666 77.198 266.984 77.3568 267.294 77.5324L267.546 77.6751L267.054 78.545L266.802 78.4027C266.523 78.245 266.237 78.1031 265.944 77.9773L266.34 77.0578ZM268.842 76.4364C268.783 76.7493 268.741 77.066 268.716 77.3849L268.692 77.6739L267.696 77.5953L267.719 77.3068C267.746 76.9516 267.793 76.5986 267.859 76.25L268.842 76.4364ZM263.248 76.2952C263.603 76.323 263.956 76.3695 264.305 76.4356L264.117 77.4189C263.805 77.3596 263.488 77.3173 263.17 77.2923L262.88 77.2695L262.959 76.2727L263.248 76.2952ZM269.968 73.5004L269.826 73.753C269.669 74.0313 269.526 74.3173 269.4 74.6098L268.481 74.2148C268.621 73.8889 268.78 73.5702 268.956 73.2601L269.099 73.0084L269.968 73.5004ZM261.724 76.1341L262.082 76.3366L262.217 76.4132L262.306 76.2781C262.274 76.2569 262.239 76.2402 262.203 76.2279L262.093 76.2049L262.382 76.2269L262.361 76.4948L262.595 76.627L262.451 76.8791C262.488 76.8146 262.509 76.7388 262.51 76.661L262.347 76.6589L262.304 77.224L262.014 77.202C261.917 77.1944 261.831 77.1616 261.757 77.1132L262.032 76.6961L262.058 76.6557L262.055 76.6549L261.51 76.6485C261.511 76.5607 261.533 76.4708 261.581 76.3863L261.723 76.1337L261.724 76.1341ZM269.964 71.9291C270.06 71.9367 270.146 71.9695 270.22 72.0175L269.919 72.4758L269.968 72.4764L270.467 72.4822C270.466 72.5701 270.445 72.6601 270.397 72.7448L270.254 72.997L269.895 72.7941L269.76 72.7175L269.672 72.8529C269.737 72.8957 269.811 72.9205 269.885 72.9262L269.596 72.9042L269.617 72.6368L269.383 72.5041L269.527 72.2519C269.49 72.3165 269.469 72.3923 269.468 72.4701L269.629 72.4717L269.641 72.3172L269.674 71.9071L269.964 71.9291ZM262.578 74.5212L263.497 74.9163C263.357 75.2422 263.198 75.5609 263.022 75.871L262.88 76.1227L262.01 75.6307L262.008 75.6303L262.152 75.3781C262.309 75.0998 262.451 74.8134 262.576 74.5208L262.578 74.5212ZM267.859 71.7118C268.173 71.7712 268.489 71.8138 268.808 71.8388L269.097 71.8612L269.019 72.8584L268.73 72.8359C268.375 72.8081 268.022 72.7616 267.674 72.6955L267.859 71.7118ZM263.286 71.4572L264.282 71.5358L264.259 71.8243C264.232 72.1795 264.185 72.5325 264.119 72.8811L263.136 72.6947L263.135 72.6943C263.194 72.3815 263.237 72.065 263.262 71.7461L263.284 71.4568L263.286 71.4572ZM265.176 70.7283C265.455 70.8859 265.741 71.0277 266.033 71.1534L265.638 72.0733C265.312 71.9331 264.994 71.7743 264.684 71.5987L264.432 71.456L264.924 70.5861L265.176 70.7283ZM263.905 70.087C263.993 70.0879 264.083 70.1093 264.168 70.1573L264.42 70.2999L264.141 70.7936L264.276 70.8828C264.319 70.8178 264.344 70.7431 264.35 70.6691L264.328 70.9584L264.06 70.9372L263.928 71.1712L263.675 71.0276C263.74 71.0642 263.816 71.0854 263.894 71.0864L263.895 70.9243L263.331 70.8803L263.329 70.8799L263.353 70.591C263.358 70.5163 263.379 70.4472 263.409 70.386L263.441 70.3341L263.899 70.6345L263.905 70.087Z" fill="#3F3F3F"/>
<rect x="158.983" y="17.5058" width="30.8" height="30.8" transform="rotate(-38 158.983 17.5058)" fill="#888888"/>
<rect x="158.983" y="17.5058" width="30.8" height="30.8" transform="rotate(-38 158.983 17.5058)" stroke="#3F3F3F" stroke-width="1.2" stroke-miterlimit="16" stroke-dasharray="2 4 6 8"/>
<path d="M171.512 25.9904L169.631 23.5825C169.08 22.8775 168.637 22.3104 168.32 21.8221C167.998 21.3254 167.767 20.851 167.684 20.3177C167.577 19.6306 167.663 18.9271 167.933 18.2862C168.143 17.7889 168.482 17.3845 168.914 16.9805C169.34 16.5832 169.907 16.1403 170.612 15.5895C171.483 14.9094 172.064 14.4403 172.744 14.2267C174.262 13.7496 175.58 14.4667 176.563 14.9343L177.424 15.3434L180.802 12.7046C181.619 12.0658 182.277 11.5516 182.845 11.1939C183.424 10.8295 183.979 10.5814 184.605 10.5348C185.097 10.4983 185.591 10.559 186.058 10.7132C186.655 10.9099 187.134 11.285 187.607 11.7786C188.072 12.2631 188.585 12.9211 189.224 13.7387C190.295 15.1098 191.134 16.1822 191.713 17.1027C192.3 18.0338 192.667 18.8787 192.736 19.8073C192.792 20.5603 192.699 21.3178 192.462 22.0348C192.171 22.9191 191.61 23.65 190.816 24.4117C190.031 25.1647 188.958 26.0023 187.587 27.0736L186.602 27.8431C184.761 29.2811 183.322 30.4075 182.083 31.1329C180.825 31.8693 179.677 32.2511 178.421 32.0969C177.165 31.9427 176.143 31.2944 175.1 30.2755C174.074 29.2719 172.95 27.8308 171.512 25.9904ZM172.694 25.0669C174.158 26.9409 175.212 28.2861 176.15 29.2029C177.072 30.1043 177.804 30.5101 178.604 30.6083C179.403 30.7064 180.211 30.4897 181.324 29.8382C182.456 29.1756 183.804 28.1253 185.678 26.6611L186.663 25.8915C188.059 24.8011 189.061 24.017 189.778 23.329C190.486 22.65 190.855 22.1209 191.038 21.565C191.213 21.0352 191.281 20.4755 191.24 19.9193C191.196 19.3355 190.967 18.7322 190.444 17.9021C189.915 17.0611 189.132 16.0579 188.042 14.6622C187.384 13.8198 186.924 13.2333 186.524 12.8165C186.182 12.4597 185.927 12.2752 185.689 12.1755L185.588 12.1374C185.308 12.0449 185.011 12.0085 184.717 12.0304C184.435 12.0513 184.122 12.1621 183.644 12.4629C183.156 12.7706 182.568 13.2285 181.725 13.8866L175.618 18.658L174.695 17.476L176.102 16.3763L175.919 16.2891C174.783 15.7489 174.044 15.3914 173.193 15.6587C172.835 15.7713 172.499 16.0189 171.536 16.7715C170.81 17.3388 170.304 17.7351 169.938 18.0767C169.579 18.4117 169.408 18.6466 169.315 18.8685C169.153 19.2529 169.101 19.6749 169.165 20.0871C169.202 20.3249 169.311 20.5943 169.578 21.0061C169.851 21.4261 170.246 21.9329 170.813 22.659L172.694 25.0669Z" fill="#3F3F3F"/>
<path d="M183.34 18.5432L184.924 18.737L184.744 20.2037L185.24 20.2654L185.737 20.3263L186.039 17.8672L183.462 17.5507L183.34 18.5432Z" fill="#3F3F3F"/>
<path d="M178.367 22.4283L178.172 24.0121L179.639 24.1922L179.578 24.6892L179.517 25.1854L177.058 24.8835L177.375 22.3064L178.367 22.4283Z" fill="#3F3F3F"/>
<path d="M182.504 22.9263L182.753 23.7884L181.794 24.0671L181.543 23.2057L182.504 22.9263ZM181.752 20.3406L182.253 22.0641L181.292 22.3435L180.792 20.62L181.752 20.3406ZM181.251 18.617L181.501 19.4784L180.541 19.7578L180.291 18.8957L181.251 18.617Z" fill="#3F3F3F"/>
<rect x="365.175" y="48.1973" width="30.8" height="30.8" transform="rotate(-28 365.175 48.1973)" fill="#888888"/>
<rect x="365.175" y="48.1973" width="30.8" height="30.8" transform="rotate(-28 365.175 48.1973)" stroke="#3F3F3F" stroke-width="1.2" stroke-miterlimit="16" stroke-dasharray="2 4 6 8"/>
<path d="M390.692 45.2767C390.471 44.8592 390.316 44.568 390.179 44.3485C390.045 44.133 389.947 44.0179 389.853 43.9404C389.546 43.6875 389.151 43.5668 388.755 43.6048C388.634 43.6165 388.488 43.657 388.256 43.7606C388.02 43.8662 387.729 44.021 387.311 44.243L376.716 49.8766C376.299 50.0986 376.007 50.2534 375.788 50.3901C375.572 50.5242 375.457 50.6225 375.38 50.7166C375.127 51.0235 375.006 51.4182 375.044 51.8141C375.056 51.9355 375.096 52.0813 375.2 52.313C375.306 52.549 375.46 52.8402 375.682 53.2577C375.904 53.6751 376.059 53.9663 376.196 54.1858C376.33 54.4014 376.428 54.5164 376.522 54.594C376.829 54.8469 377.224 54.9676 377.62 54.9295C377.741 54.9179 377.887 54.8774 378.119 54.7738C378.355 54.6682 378.646 54.5133 379.063 54.2914L389.659 48.6577C390.076 48.4358 390.367 48.2809 390.587 48.1443C390.802 48.0101 390.917 47.9119 390.995 47.8178C391.248 47.5109 391.369 47.1161 391.331 46.7203C391.319 46.5989 391.278 46.4531 391.175 46.2213C391.069 45.9853 390.914 45.6941 390.692 45.2767ZM391.575 44.8072C391.791 45.2124 391.964 45.5384 392.087 45.8127C392.211 46.0912 392.3 46.35 392.326 46.6246C392.389 47.2843 392.188 47.9423 391.767 48.4538C391.591 48.6666 391.374 48.8318 391.115 48.993C390.859 49.1518 390.533 49.3252 390.128 49.5407L379.533 55.1743C379.128 55.3898 378.802 55.563 378.527 55.6857C378.249 55.8103 377.99 55.8985 377.716 55.925C377.056 55.9884 376.398 55.7872 375.886 55.3657C375.673 55.1902 375.508 54.9724 375.347 54.7134C375.188 54.4583 375.015 54.1323 374.799 53.7272C374.584 53.322 374.411 52.9959 374.288 52.7216C374.163 52.4431 374.075 52.1844 374.049 51.9098C373.985 51.25 374.186 50.5921 374.608 50.0806C374.783 49.8678 375.001 49.7026 375.26 49.5413C375.515 49.3825 375.841 49.2091 376.247 48.9937L386.842 43.36C387.247 43.1446 387.573 42.9713 387.847 42.8486C388.126 42.724 388.385 42.6359 388.659 42.6094C389.319 42.546 389.977 42.7471 390.488 43.1686C390.701 43.3441 390.867 43.5619 391.028 43.8209C391.187 44.076 391.36 44.402 391.575 44.8072Z" fill="#3F3F3F"/>
<path d="M393.509 50.5744C393.287 50.1569 393.133 49.8657 392.996 49.6462C392.862 49.4307 392.763 49.3157 392.669 49.238C392.362 48.9852 391.968 48.8645 391.572 48.9025C391.45 48.9142 391.305 48.9546 391.073 49.0583C390.837 49.1638 390.546 49.3187 390.128 49.5407L379.533 55.1743C379.115 55.3963 378.824 55.5511 378.605 55.6877C378.389 55.8219 378.274 55.9202 378.197 56.0143C377.944 56.3212 377.823 56.7159 377.861 57.1118C377.873 57.2332 377.913 57.3789 378.017 57.6107C378.122 57.8467 378.277 58.1379 378.499 58.5554C378.721 58.9728 378.876 59.264 379.013 59.4835C379.147 59.6991 379.245 59.8141 379.339 59.8917C379.646 60.1446 380.041 60.2653 380.437 60.2272C380.558 60.2155 380.704 60.1751 380.936 60.0714C381.172 59.9659 381.463 59.811 381.88 59.5891L392.476 53.9554C392.893 53.7334 393.184 53.5786 393.404 53.442C393.619 53.3078 393.734 53.2096 393.812 53.1155C394.065 52.8086 394.185 52.4138 394.147 52.0179C394.136 51.8965 394.095 51.7508 393.992 51.519C393.886 51.283 393.731 50.9918 393.509 50.5744ZM394.392 50.1049C394.608 50.5101 394.781 50.8361 394.904 51.1104C395.028 51.3889 395.116 51.6477 395.143 51.9222C395.206 52.582 395.005 53.24 394.584 53.7514C394.408 53.9643 394.19 54.1295 393.931 54.2907C393.676 54.4495 393.35 54.6229 392.945 54.8384L382.35 60.472C381.945 60.6875 381.618 60.8607 381.344 60.9834C381.066 61.108 380.807 61.1962 380.532 61.2226C379.873 61.2861 379.215 61.0849 378.703 60.6634C378.49 60.4879 378.325 60.2701 378.164 60.0111C378.005 59.756 377.832 59.43 377.616 59.0248C377.401 58.6197 377.228 58.2936 377.105 58.0193C376.98 57.7408 376.892 57.4821 376.866 57.2075C376.802 56.5477 377.003 55.8898 377.425 55.3783C377.6 55.1654 377.818 55.0002 378.077 54.839C378.332 54.6802 378.658 54.5068 379.063 54.2914L389.659 48.6577C390.064 48.4423 390.39 48.269 390.664 48.1463C390.943 48.0217 391.202 47.9335 391.476 47.9071C392.136 47.8437 392.794 48.0448 393.305 48.4663C393.518 48.6418 393.683 48.8596 393.845 49.1186C394.003 49.3737 394.177 49.6997 394.392 50.1049Z" fill="#3F3F3F"/>
<path d="M396.326 55.872C396.104 55.4546 395.949 55.1634 395.813 54.9439C395.679 54.7283 395.58 54.6133 395.486 54.5357C395.179 54.2829 394.784 54.1622 394.389 54.2002C394.267 54.2119 394.122 54.2523 393.89 54.356C393.654 54.4615 393.363 54.6164 392.945 54.8384L382.35 60.472C381.932 60.694 381.641 60.8488 381.422 60.9854C381.206 61.1196 381.091 61.2179 381.013 61.3119C380.76 61.6188 380.64 62.0136 380.678 62.4095C380.69 62.5309 380.73 62.6766 380.834 62.9084C380.939 63.1444 381.094 63.4356 381.316 63.8531C381.538 64.2705 381.693 64.5617 381.829 64.7812C381.964 64.9967 382.062 65.1118 382.156 65.1894C382.463 65.4423 382.858 65.563 383.253 65.5249C383.375 65.5132 383.521 65.4728 383.752 65.3691C383.988 65.2636 384.28 65.1087 384.697 64.8867L395.292 59.2531C395.71 59.0311 396.001 58.8763 396.221 58.7397C396.436 58.6055 396.551 58.5073 396.629 58.4132C396.882 58.1063 397.002 57.7115 396.964 57.3156C396.953 57.1942 396.912 57.0485 396.808 56.8167C396.703 56.5807 396.548 56.2895 396.326 55.872ZM397.209 55.4026C397.425 55.8078 397.598 56.1338 397.72 56.4081C397.845 56.6866 397.933 56.9454 397.96 57.2199C398.023 57.8797 397.822 58.5376 397.4 59.0491C397.225 59.2619 397.007 59.4272 396.748 59.5884C396.493 59.7472 396.167 59.9206 395.762 60.136L385.167 65.7697C384.761 65.9851 384.435 66.1584 384.161 66.2811C383.883 66.4057 383.624 66.4939 383.349 66.5203C382.689 66.5837 382.031 66.3826 381.52 65.9611C381.307 65.7856 381.142 65.5678 380.981 65.3088C380.822 65.0537 380.649 64.7277 380.433 64.3225C380.218 63.9173 380.044 63.5913 379.922 63.317C379.797 63.0385 379.709 62.7798 379.682 62.5052C379.619 61.8455 379.82 61.1875 380.242 60.676C380.417 60.4632 380.635 60.2979 380.894 60.1367C381.149 59.9779 381.475 59.8045 381.88 59.5891L392.476 53.9554C392.881 53.74 393.207 53.5667 393.481 53.444C393.76 53.3194 394.018 53.2313 394.293 53.2048C394.953 53.1414 395.611 53.3425 396.122 53.764C396.335 53.9395 396.5 54.1573 396.661 54.4163C396.82 54.6714 396.994 54.9974 397.209 55.4026Z" fill="#3F3F3F"/>
<path d="M378.105 51.4032L378.575 52.2862L378.124 52.5255L377.655 51.6425L378.105 51.4032Z" fill="#3F3F3F"/>
<path d="M380.922 56.7009L381.391 57.5838L380.941 57.8232L380.472 56.9402L380.922 56.7009Z" fill="#3F3F3F"/>
<path d="M383.739 61.9986L384.208 62.8815L383.758 63.1209L383.289 62.2379L383.739 61.9986Z" fill="#3F3F3F"/>
<path d="M380.754 49.9948L381.223 50.8777L380.773 51.1171L380.304 50.2341L380.754 49.9948Z" fill="#3F3F3F"/>
<path d="M383.571 55.2925L384.04 56.1754L383.59 56.4148L383.121 55.5318L383.571 55.2925Z" fill="#3F3F3F"/>
<path d="M386.388 60.5902L386.857 61.4731L386.407 61.7124L385.937 60.8295L386.388 60.5902Z" fill="#3F3F3F"/>
<rect x="267.697" y="196.878" width="30.8" height="30.8" transform="rotate(-3 267.697 196.878)" fill="#888888"/>
<rect x="267.697" y="196.878" width="30.8" height="30.8" transform="rotate(-3 267.697 196.878)" stroke="#3F3F3F" stroke-width="1.2" stroke-miterlimit="16" stroke-dasharray="2 4 6 8"/>
<path d="M278.545 214.735L278.231 208.743L279.23 208.691L279.544 214.683C279.631 216.344 279.695 217.54 279.865 218.444C280.033 219.334 280.291 219.867 280.716 220.25C281.141 220.632 281.698 220.834 282.6 220.907C283.518 220.982 284.714 220.921 286.375 220.834L287.374 220.781C289.035 220.694 290.231 220.63 291.136 220.46C292.026 220.292 292.559 220.034 292.941 219.609C293.324 219.184 293.525 218.627 293.598 217.725C293.673 216.808 293.612 215.611 293.525 213.95L293.472 212.951C293.385 211.29 293.321 210.094 293.151 209.19C292.984 208.299 292.725 207.766 292.301 207.384C291.876 207.001 291.319 206.8 290.416 206.727C289.499 206.652 288.303 206.713 286.641 206.8L280.649 207.114L280.597 206.116L286.589 205.802C288.222 205.716 289.498 205.648 290.498 205.73C291.512 205.813 292.317 206.053 292.97 206.641C293.622 207.228 293.946 208.004 294.134 209.004C294.319 209.99 294.385 211.265 294.471 212.899L294.523 213.898C294.609 215.531 294.677 216.807 294.595 217.806C294.513 218.821 294.272 219.626 293.684 220.278C293.097 220.931 292.321 221.255 291.321 221.443C290.335 221.628 289.06 221.694 287.426 221.78L286.428 221.832C284.794 221.918 283.519 221.985 282.519 221.904C281.505 221.821 280.699 221.581 280.047 220.993C279.394 220.405 279.071 219.63 278.882 218.63C278.697 217.644 278.631 216.368 278.545 214.735Z" fill="#3F3F3F"/>
<path d="M276.602 206.325L276.655 207.324L273.659 207.481L273.607 206.482L276.602 206.325Z" fill="#3F3F3F"/>
<path d="M278.864 201.7L279.021 204.696L278.022 204.749L277.865 201.753L278.864 201.7Z" fill="#3F3F3F"/>
<defs>
<filter id="filter0_f_186_613" x="14.6797" y="-20.1133" width="565.527" height="187.35" filterUnits="userSpaceOnUse" color-interpolation-filters="sRGB">
<feFlood flood-opacity="0" result="BackgroundImageFix"/>
<feBlend mode="normal" in="SourceGraphic" in2="BackgroundImageFix" result="shape"/>
<feGaussianBlur stdDeviation="6.5" result="effect1_foregroundBlur_186_613"/>
</filter>
<linearGradient id="paint0_linear_186_613" x1="283.915" y1="196.948" x2="279.702" y2="-67.5169" gradientUnits="userSpaceOnUse">
<stop offset="0.0913767" stop-color="#E82910" stop-opacity="0"/>
<stop offset="1" stop-color="#E82910"/>
</linearGradient>
</defs>
</svg>
