<svg width="143" height="51" viewBox="0 0 143 51" fill="none" xmlns="http://www.w3.org/2000/svg">
<rect width="142.387" height="50.0534" fill="#E82910"/>
<path d="M16.2326 37.3991L16.2288 29.1872L9.02734 25.0264V31.4277C9.02792 31.989 9.17608 32.5402 9.45697 33.0261C9.73786 33.5121 10.1416 33.9156 10.6277 34.1962L16.2326 37.3991Z" fill="white"/>
<path d="M37.8332 25.0264L30.6318 29.1872L30.6345 37.3949L36.2329 34.1962C36.719 33.9156 37.1227 33.5121 37.4036 33.0261C37.6845 32.5402 37.8327 31.989 37.8332 31.4277V25.0264Z" fill="white"/>
<path d="M16.2313 12.6537L23.4303 16.7207L30.6143 12.6466L25.0306 9.45517C24.5441 9.17426 23.9921 9.02637 23.4303 9.02637C22.8685 9.02637 22.3165 9.17426 21.83 9.45517L16.2313 12.6537Z" fill="white"/>
<path fill-rule="evenodd" clip-rule="evenodd" d="M16.2313 12.6537L23.4303 16.7207L30.6143 12.6466L25.0306 9.45517L36.2329 15.8565C36.719 16.1371 37.1227 16.5406 37.4036 17.0266C37.6845 17.5125 37.8327 18.0638 37.8332 18.6251V25.0264L30.6318 29.1872L30.6345 37.3949L25.0306 40.5976C24.5441 40.8785 23.9921 41.0264 23.4303 41.0264C22.8685 41.0264 22.3165 40.8785 21.83 40.5976L16.2326 37.3991L16.2288 29.1872L9.02734 25.0264V18.6251C9.02792 18.0638 9.17608 17.5125 9.45697 17.0266C9.73786 16.5406 10.1416 16.1371 10.6277 15.8565L16.2313 12.6537Z" fill="white"/>
<path d="M16.2326 37.3991L16.2288 29.1872L9.02734 25.0264M16.2326 37.3991L10.6277 34.1962C10.1416 33.9156 9.73786 33.5121 9.45697 33.0261C9.17608 32.5402 9.02792 31.989 9.02734 31.4277V25.0264M16.2326 37.3991L21.83 40.5976C22.3165 40.8785 22.8685 41.0264 23.4303 41.0264C23.9921 41.0264 24.5441 40.8785 25.0306 40.5976M9.02734 25.0264V18.6251C9.02792 18.0638 9.17608 17.5125 9.45697 17.0266C9.73786 16.5406 10.1416 16.1371 10.6277 15.8565L16.2313 12.6537M37.8332 25.0264L30.6318 29.1872L30.6345 37.3949M37.8332 25.0264V31.4277C37.8327 31.989 37.6845 32.5402 37.4036 33.0261C37.1227 33.5121 36.719 33.9156 36.2329 34.1962M37.8332 25.0264V18.6251C37.8327 18.0638 37.6845 17.5125 37.4036 17.0266C37.1227 16.5406 36.719 16.1371 36.2329 15.8565L25.0306 9.45517M30.6345 37.3949L36.2329 34.1962M30.6345 37.3949L25.0306 40.5976M36.2329 34.1962C34.4708 35.2622 30.8875 37.3923 30.6353 37.3949L25.0306 40.5976M16.2313 12.6537L23.4303 16.7207L30.6143 12.6466L25.0306 9.45517M16.2313 12.6537L21.83 9.45517C22.3165 9.17426 22.8685 9.02637 23.4303 9.02637C23.9921 9.02637 24.5441 9.17426 25.0306 9.45517M26.9949 27.7757L29.4443 25.3264L26.9949 22.877M19.6469 22.877L17.1975 25.3264L19.6469 27.7757M24.8517 20.4277L21.79 30.2251" stroke="#010101" stroke-width="1.20921" stroke-linecap="round" stroke-linejoin="round"/>
<path d="M44.8194 32.0264V18.0264H48.8794L51.9394 30.5864H52.2594L55.3194 18.0264H59.3794V32.0264H57.2794V19.5464H56.9594L53.9194 32.0264H50.2794L47.2394 19.5464H46.9194V32.0264H44.8194ZM66.2798 32.3064C65.2798 32.3064 64.4065 32.0997 63.6598 31.6864C62.9132 31.2597 62.3265 30.6664 61.8998 29.9064C61.4865 29.133 61.2798 28.2397 61.2798 27.2264V26.9864C61.2798 25.9597 61.4865 25.0664 61.8998 24.3064C62.3132 23.533 62.8865 22.9397 63.6198 22.5264C64.3665 22.0997 65.2265 21.8864 66.1998 21.8864C67.1465 21.8864 67.9732 22.0997 68.6798 22.5264C69.3998 22.9397 69.9598 23.5197 70.3598 24.2664C70.7598 25.013 70.9598 25.8864 70.9598 26.8864V27.6664H63.3798C63.4065 28.533 63.6932 29.2264 64.2398 29.7464C64.7998 30.253 65.4932 30.5064 66.3198 30.5064C67.0932 30.5064 67.6732 30.333 68.0598 29.9864C68.4598 29.6397 68.7665 29.2397 68.9798 28.7864L70.6798 29.6664C70.4932 30.0397 70.2198 30.433 69.8598 30.8464C69.5132 31.2597 69.0532 31.6064 68.4798 31.8864C67.9065 32.1664 67.1732 32.3064 66.2798 32.3064ZM63.3998 26.0864H68.8598C68.8065 25.3397 68.5398 24.7597 68.0598 24.3464C67.5798 23.9197 66.9532 23.7064 66.1798 23.7064C65.4065 23.7064 64.7732 23.9197 64.2798 24.3464C63.7998 24.7597 63.5065 25.3397 63.3998 26.0864ZM76.1684 32.0264C75.5684 32.0264 75.0884 31.8464 74.7284 31.4864C74.3818 31.1264 74.2084 30.6464 74.2084 30.0464V23.9064H71.4884V22.1664H74.2084V18.9064H76.2684V22.1664H79.2084V23.9064H76.2684V29.6864C76.2684 30.0864 76.4551 30.2864 76.8284 30.2864H78.8884V32.0264H76.1684ZM84.0691 32.3064C83.3624 32.3064 82.7291 32.1864 82.1691 31.9464C81.6224 31.7064 81.1824 31.353 80.8491 30.8864C80.5291 30.4197 80.3691 29.853 80.3691 29.1864C80.3691 28.5064 80.5291 27.9464 80.8491 27.5064C81.1824 27.053 81.6291 26.713 82.1891 26.4864C82.7624 26.2597 83.4091 26.1464 84.1291 26.1464H87.1291V25.5064C87.1291 24.933 86.9557 24.473 86.6091 24.1264C86.2624 23.7797 85.7291 23.6064 85.0091 23.6064C84.3024 23.6064 83.7624 23.773 83.3891 24.1064C83.0157 24.4397 82.7691 24.873 82.6491 25.4064L80.7291 24.7864C80.8891 24.253 81.1424 23.773 81.4891 23.3464C81.8491 22.9064 82.3224 22.553 82.9091 22.2864C83.4957 22.0197 84.2024 21.8864 85.0291 21.8864C86.3091 21.8864 87.3157 22.213 88.0491 22.8664C88.7824 23.5197 89.1491 24.4464 89.1491 25.6464V29.7064C89.1491 30.1064 89.3357 30.3064 89.7091 30.3064H90.5491V32.0264H89.0091C88.5424 32.0264 88.1624 31.9064 87.8691 31.6664C87.5757 31.4264 87.4291 31.0997 87.4291 30.6864V30.6264H87.1291C87.0224 30.8264 86.8624 31.0597 86.6491 31.3264C86.4357 31.593 86.1224 31.8264 85.7091 32.0264C85.2957 32.213 84.7491 32.3064 84.0691 32.3064ZM84.3691 30.6064C85.1957 30.6064 85.8624 30.373 86.3691 29.9064C86.8757 29.4264 87.1291 28.773 87.1291 27.9464V27.7464H84.2491C83.7024 27.7464 83.2624 27.8664 82.9291 28.1064C82.5957 28.333 82.4291 28.673 82.4291 29.1264C82.4291 29.5797 82.6024 29.9397 82.9491 30.2064C83.2957 30.473 83.7691 30.6064 84.3691 30.6064ZM91.952 32.0264V22.1664H93.972V23.6464H94.292C94.4787 23.2464 94.812 22.873 95.292 22.5264C95.772 22.1797 96.4854 22.0064 97.432 22.0064C98.1787 22.0064 98.8387 22.173 99.412 22.5064C99.9987 22.8397 100.459 23.313 100.792 23.9264C101.125 24.5264 101.292 25.253 101.292 26.1064V32.0264H99.232V26.2664C99.232 25.413 99.0187 24.7864 98.592 24.3864C98.1654 23.973 97.5787 23.7664 96.832 23.7664C95.9787 23.7664 95.292 24.0464 94.772 24.6064C94.2654 25.1664 94.012 25.9797 94.012 27.0464V32.0264H91.952ZM108.177 32.3064C107.177 32.3064 106.303 32.0997 105.557 31.6864C104.81 31.2597 104.223 30.6664 103.797 29.9064C103.383 29.133 103.177 28.2397 103.177 27.2264V26.9864C103.177 25.9597 103.383 25.0664 103.797 24.3064C104.21 23.533 104.783 22.9397 105.517 22.5264C106.263 22.0997 107.123 21.8864 108.097 21.8864C109.043 21.8864 109.87 22.0997 110.577 22.5264C111.297 22.9397 111.857 23.5197 112.257 24.2664C112.657 25.013 112.857 25.8864 112.857 26.8864V27.6664H105.277C105.303 28.533 105.59 29.2264 106.137 29.7464C106.697 30.253 107.39 30.5064 108.217 30.5064C108.99 30.5064 109.57 30.333 109.957 29.9864C110.357 29.6397 110.663 29.2397 110.877 28.7864L112.577 29.6664C112.39 30.0397 112.117 30.433 111.757 30.8464C111.41 31.2597 110.95 31.6064 110.377 31.8864C109.803 32.1664 109.07 32.3064 108.177 32.3064ZM105.297 26.0864H110.757C110.703 25.3397 110.437 24.7597 109.957 24.3464C109.477 23.9197 108.85 23.7064 108.077 23.7064C107.303 23.7064 106.67 23.9197 106.177 24.3464C105.697 24.7597 105.403 25.3397 105.297 26.0864ZM119.316 32.3064C118.37 32.3064 117.51 32.1064 116.736 31.7064C115.976 31.3064 115.37 30.7264 114.916 29.9664C114.476 29.2064 114.256 28.293 114.256 27.2264V26.9664C114.256 25.8997 114.476 24.993 114.916 24.2464C115.37 23.4864 115.976 22.9064 116.736 22.5064C117.51 22.093 118.37 21.8864 119.316 21.8864C120.263 21.8864 121.07 22.0597 121.736 22.4064C122.403 22.753 122.936 23.213 123.336 23.7864C123.75 24.3597 124.016 24.993 124.136 25.6864L122.136 26.1064C122.07 25.6664 121.93 25.2664 121.716 24.9064C121.503 24.5464 121.203 24.2597 120.816 24.0464C120.43 23.833 119.943 23.7264 119.356 23.7264C118.783 23.7264 118.263 23.8597 117.796 24.1264C117.343 24.3797 116.983 24.753 116.716 25.2464C116.45 25.7264 116.316 26.313 116.316 27.0064V27.1864C116.316 27.8797 116.45 28.473 116.716 28.9664C116.983 29.4597 117.343 29.833 117.796 30.0864C118.263 30.3397 118.783 30.4664 119.356 30.4664C120.223 30.4664 120.883 30.2464 121.336 29.8064C121.79 29.353 122.076 28.7797 122.196 28.0864L124.196 28.5464C124.036 29.2264 123.75 29.853 123.336 30.4264C122.936 30.9997 122.403 31.4597 121.736 31.8064C121.07 32.1397 120.263 32.3064 119.316 32.3064ZM129.301 32.0264C128.701 32.0264 128.221 31.8464 127.861 31.4864C127.515 31.1264 127.341 30.6464 127.341 30.0464V23.9064H124.621V22.1664H127.341V18.9064H129.401V22.1664H132.341V23.9064H129.401V29.6864C129.401 30.0864 129.588 30.2864 129.961 30.2864H132.021V32.0264H129.301Z" fill="white"/>
</svg>
