<svg width="45" height="633" viewBox="0 0 45 633" fill="none" xmlns="http://www.w3.org/2000/svg">
<path d="M43.8145 0L43.8145 633M44 10.6909H36M44 36.2193H36M44 61.7477H36M44 87.2761H26M44 112.805H36M44 138.333H36M44 163.861H36M44 189.39H36M44 214.918H36M44 240.447H36M44 265.975H26M44 291.503H36M44 317.032H36M44 342.56H36M44 444.674H26M44 521.259H36M44 597.844H36M44 368.089H36M44 470.202H36M44 546.788H36M44 623.373H26M44 393.617H36M44 495.731H36M44 572.316H36M44 419.146H36" stroke="#B2B2B2" stroke-width="0.7"/>
<path d="M6.15 90.87C6.15 91.3233 6.03667 91.7233 5.81 92.07C5.59 92.4167 5.28667 92.6867 4.9 92.88C4.51333 93.0667 4.07 93.16 3.57 93.16C3.02333 93.16 2.55 93.0633 2.15 92.87C1.75 92.67 1.44 92.3833 1.22 92.01C1 91.63 0.883333 91.18 0.87 90.66H1.96C2.02667 91.12 2.2 91.4733 2.48 91.72C2.76 91.9667 3.12 92.09 3.56 92.09C3.84667 92.09 4.09667 92.0367 4.31 91.93C4.53 91.8233 4.7 91.6733 4.82 91.48C4.94 91.28 5 91.05 5 90.79C5 90.3967 4.87333 90.0767 4.62 89.83C4.37333 89.5833 4.04333 89.46 3.63 89.46H2.69V88.4H3.63C4.05667 88.4 4.4 88.2867 4.66 88.06C4.92 87.8333 5.05 87.54 5.05 87.18C5.05 86.8 4.91667 86.4933 4.65 86.26C4.39 86.0267 4.04 85.91 3.6 85.91C3.14 85.91 2.76667 86.04 2.48 86.3C2.19333 86.56 2.00333 86.94 1.91 87.44H0.82C0.846667 86.8867 0.976667 86.4167 1.21 86.03C1.44333 85.6433 1.76333 85.35 2.17 85.15C2.57667 84.9433 3.05667 84.84 3.61 84.84C4.11667 84.84 4.56333 84.9333 4.95 85.12C5.33667 85.3067 5.63667 85.5667 5.85 85.9C6.07 86.2333 6.18 86.6333 6.18 87.1C6.18 87.5333 6.06333 87.9033 5.83 88.21C5.60333 88.5167 5.3 88.72 4.92 88.82V88.98C5.29333 89.08 5.59 89.3 5.81 89.64C6.03667 89.9733 6.15 90.3833 6.15 90.87ZM12.292 85V89.61H13.482V90.68H12.292V93H11.152V90.68H7.55195V89.15L10.292 85H12.292ZM8.54195 89.5V89.61H11.152V85.11H11.462L8.54195 89.5ZM17.5039 93.16C16.5306 93.16 15.8006 92.8133 15.3139 92.12C14.8272 91.4267 14.5839 90.3867 14.5839 89C14.5839 87.6133 14.8272 86.5733 15.3139 85.88C15.8006 85.1867 16.5306 84.84 17.5039 84.84C18.4772 84.84 19.2072 85.1867 19.6939 85.88C20.1806 86.5733 20.4239 87.6133 20.4239 89C20.4239 90.3867 20.1806 91.4267 19.6939 92.12C19.2072 92.8133 18.4772 93.16 17.5039 93.16ZM17.5039 92.09C18.1172 92.09 18.5672 91.84 18.8539 91.34C19.1406 90.84 19.2839 90.06 19.2839 89C19.2839 87.94 19.1406 87.16 18.8539 86.66C18.5672 86.16 18.1172 85.91 17.5039 85.91C16.8906 85.91 16.4406 86.16 16.1539 86.66C15.8672 87.16 15.7239 87.94 15.7239 89C15.7239 90.06 15.8672 90.84 16.1539 91.34C16.4406 91.84 16.8906 92.09 17.5039 92.09ZM15.3939 89.93L19.5739 86.77V88.07L15.3939 91.23V89.93Z" fill="#B2B2B2"/>
<path d="M5.29 262V266.61H6.48V267.68H5.29V270H4.15V267.68H0.55V266.15L3.29 262H5.29ZM1.54 266.5V266.61H4.15V262.11H4.46L1.54 266.5ZM10.502 270.16C9.52862 270.16 8.79862 269.813 8.31195 269.12C7.82529 268.427 7.58195 267.387 7.58195 266C7.58195 264.613 7.82529 263.573 8.31195 262.88C8.79862 262.187 9.52862 261.84 10.502 261.84C11.4753 261.84 12.2053 262.187 12.692 262.88C13.1786 263.573 13.422 264.613 13.422 266C13.422 267.387 13.1786 268.427 12.692 269.12C12.2053 269.813 11.4753 270.16 10.502 270.16ZM10.502 269.09C11.1153 269.09 11.5653 268.84 11.852 268.34C12.1386 267.84 12.282 267.06 12.282 266C12.282 264.94 12.1386 264.16 11.852 263.66C11.5653 263.16 11.1153 262.91 10.502 262.91C9.88862 262.91 9.43862 263.16 9.15195 263.66C8.86529 264.16 8.72195 264.94 8.72195 266C8.72195 267.06 8.86529 267.84 9.15195 268.34C9.43862 268.84 9.88862 269.09 10.502 269.09ZM8.39195 266.93L12.572 263.77V265.07L8.39195 268.23V266.93ZM17.5039 270.16C16.5306 270.16 15.8006 269.813 15.3139 269.12C14.8272 268.427 14.5839 267.387 14.5839 266C14.5839 264.613 14.8272 263.573 15.3139 262.88C15.8006 262.187 16.5306 261.84 17.5039 261.84C18.4772 261.84 19.2072 262.187 19.6939 262.88C20.1806 263.573 20.4239 264.613 20.4239 266C20.4239 267.387 20.1806 268.427 19.6939 269.12C19.2072 269.813 18.4772 270.16 17.5039 270.16ZM17.5039 269.09C18.1172 269.09 18.5672 268.84 18.8539 268.34C19.1406 267.84 19.2839 267.06 19.2839 266C19.2839 264.94 19.1406 264.16 18.8539 263.66C18.5672 263.16 18.1172 262.91 17.5039 262.91C16.8906 262.91 16.4406 263.16 16.1539 263.66C15.8672 264.16 15.7239 264.94 15.7239 266C15.7239 267.06 15.8672 267.84 16.1539 268.34C16.4406 268.84 16.8906 269.09 17.5039 269.09ZM15.3939 266.93L19.5739 263.77V265.07L15.3939 268.23V266.93Z" fill="#B2B2B2"/>
<path d="M5.29 439V443.61H6.48V444.68H5.29V447H4.15V444.68H0.55V443.15L3.29 439H5.29ZM1.54 443.5V443.61H4.15V439.11H4.46L1.54 443.5ZM10.492 447.16C9.96529 447.16 9.49862 447.047 9.09195 446.82C8.68529 446.587 8.36529 446.267 8.13195 445.86C7.89862 445.447 7.78195 444.973 7.78195 444.44C7.78195 444.033 7.86195 443.62 8.02195 443.2C8.18195 442.78 8.43529 442.313 8.78195 441.8L10.692 439H11.962L10.052 441.75L10.212 441.91C10.292 441.883 10.3786 441.863 10.472 441.85C10.572 441.83 10.672 441.82 10.772 441.82C11.2453 441.82 11.6653 441.933 12.032 442.16C12.4053 442.387 12.6953 442.697 12.902 443.09C13.1153 443.483 13.222 443.933 13.222 444.44C13.222 444.973 13.1053 445.447 12.872 445.86C12.6386 446.267 12.3153 446.587 11.902 446.82C11.4953 447.047 11.0253 447.16 10.492 447.16ZM8.92195 444.44C8.92195 444.767 8.98862 445.053 9.12195 445.3C9.25529 445.547 9.43862 445.74 9.67195 445.88C9.91195 446.02 10.1886 446.09 10.502 446.09C10.822 446.09 11.0986 446.02 11.332 445.88C11.572 445.74 11.7553 445.547 11.882 445.3C12.0153 445.053 12.082 444.767 12.082 444.44C12.082 444.113 12.0153 443.83 11.882 443.59C11.7553 443.343 11.572 443.153 11.332 443.02C11.0986 442.88 10.822 442.81 10.502 442.81C10.1886 442.81 9.91195 442.88 9.67195 443.02C9.43862 443.153 9.25529 443.343 9.12195 443.59C8.98862 443.83 8.92195 444.113 8.92195 444.44ZM17.5039 447.16C16.5306 447.16 15.8006 446.813 15.3139 446.12C14.8272 445.427 14.5839 444.387 14.5839 443C14.5839 441.613 14.8272 440.573 15.3139 439.88C15.8006 439.187 16.5306 438.84 17.5039 438.84C18.4772 438.84 19.2072 439.187 19.6939 439.88C20.1806 440.573 20.4239 441.613 20.4239 443C20.4239 444.387 20.1806 445.427 19.6939 446.12C19.2072 446.813 18.4772 447.16 17.5039 447.16ZM17.5039 446.09C18.1172 446.09 18.5672 445.84 18.8539 445.34C19.1406 444.84 19.2839 444.06 19.2839 443C19.2839 441.94 19.1406 441.16 18.8539 440.66C18.5672 440.16 18.1172 439.91 17.5039 439.91C16.8906 439.91 16.4406 440.16 16.1539 440.66C15.8672 441.16 15.7239 441.94 15.7239 443C15.7239 444.06 15.8672 444.84 16.1539 445.34C16.4406 445.84 16.8906 446.09 17.5039 446.09ZM15.3939 443.93L19.5739 440.77V442.07L15.3939 445.23V443.93Z" fill="#B2B2B2"/>
<path d="M1.19 616H6.06V617.07H1.88L2.33 616.65V619.13H2.63C2.75667 618.99 2.93333 618.88 3.16 618.8C3.38667 618.72 3.62667 618.68 3.88 618.68C4.33333 618.68 4.73333 618.793 5.08 619.02C5.43333 619.24 5.71 619.55 5.91 619.95C6.11 620.35 6.21 620.817 6.21 621.35C6.21 621.897 6.09667 622.383 5.87 622.81C5.65 623.23 5.34333 623.56 4.95 623.8C4.55667 624.04 4.10333 624.16 3.59 624.16C2.82333 624.16 2.20333 623.957 1.73 623.55C1.26333 623.143 0.99 622.58 0.91 621.86H2.02C2.12667 622.253 2.30667 622.557 2.56 622.77C2.82 622.983 3.15667 623.09 3.57 623.09C3.87667 623.09 4.14 623.02 4.36 622.88C4.58667 622.733 4.76 622.53 4.88 622.27C5.00667 622.003 5.07 621.697 5.07 621.35C5.07 621.003 5.01 620.707 4.89 620.46C4.77 620.213 4.6 620.023 4.38 619.89C4.16667 619.757 3.90667 619.69 3.6 619.69C3.28 619.69 3 619.763 2.76 619.91C2.52667 620.05 2.35 620.26 2.23 620.54H1.19V616ZM8.10195 622.31L10.892 620.22C11.2786 619.933 11.562 619.64 11.742 619.34C11.922 619.033 12.012 618.703 12.012 618.35C12.012 617.903 11.8853 617.553 11.632 617.3C11.3786 617.04 11.0286 616.91 10.582 616.91C10.162 616.91 9.81862 617.04 9.55195 617.3C9.28529 617.56 9.09862 617.94 8.99195 618.44H7.89195C7.91862 617.9 8.05195 617.437 8.29195 617.05C8.53862 616.657 8.85862 616.357 9.25195 616.15C9.65195 615.943 10.0953 615.84 10.582 615.84C11.102 615.84 11.552 615.947 11.932 616.16C12.3186 616.367 12.6186 616.657 12.832 617.03C13.0453 617.403 13.152 617.843 13.152 618.35C13.152 618.87 13.0186 619.353 12.752 619.8C12.4853 620.247 12.082 620.667 11.542 621.06L9.07195 622.83V622.93H12.992V624H8.10195V622.31ZM17.5039 624.16C16.5306 624.16 15.8006 623.813 15.3139 623.12C14.8272 622.427 14.5839 621.387 14.5839 620C14.5839 618.613 14.8272 617.573 15.3139 616.88C15.8006 616.187 16.5306 615.84 17.5039 615.84C18.4772 615.84 19.2072 616.187 19.6939 616.88C20.1806 617.573 20.4239 618.613 20.4239 620C20.4239 621.387 20.1806 622.427 19.6939 623.12C19.2072 623.813 18.4772 624.16 17.5039 624.16ZM17.5039 623.09C18.1172 623.09 18.5672 622.84 18.8539 622.34C19.1406 621.84 19.2839 621.06 19.2839 620C19.2839 618.94 19.1406 618.16 18.8539 617.66C18.5672 617.16 18.1172 616.91 17.5039 616.91C16.8906 616.91 16.4406 617.16 16.1539 617.66C15.8672 618.16 15.7239 618.94 15.7239 620C15.7239 621.06 15.8672 621.84 16.1539 622.34C16.4406 622.84 16.8906 623.09 17.5039 623.09ZM15.3939 620.93L19.5739 617.77V619.07L15.3939 622.23V620.93Z" fill="#B2B2B2"/>
</svg>
