<svg width="45" height="633" viewBox="0 0 45 633" fill="none" xmlns="http://www.w3.org/2000/svg">
<path d="M0.349609 0L0.349583 633M0.164062 10.6909H8.16406M0.164062 36.2193H8.16406M0.164062 61.7477H8.16406M0.164062 87.2761H18.1641M0.164062 112.805H8.16406M0.164062 138.333H8.16406M0.164062 163.861H8.16406M0.164062 189.39H8.16406M0.164062 214.918H8.16406M0.164062 240.447H8.16406M0.164062 265.975H18.1641M0.164062 291.503H8.16406M0.164062 317.032H8.16406M0.164062 342.56H8.16406M0.164062 444.674H18.1641M0.164062 521.259H8.16406M0.164062 597.844H8.16406M0.164062 368.089H8.16406M0.164062 470.202H8.16406M0.164062 546.788H8.16406M0.164062 623.373H18.1641M0.164062 393.617H8.16406M0.164062 495.731H8.16406M0.164062 572.316H8.16406M0.164062 419.146H8.16406" stroke="#B2B2B2" stroke-width="0.7"/>
<path d="M28.3141 90.87C28.3141 91.3233 28.2007 91.7233 27.9741 92.07C27.7541 92.4167 27.4507 92.6867 27.0641 92.88C26.6774 93.0667 26.2341 93.16 25.7341 93.16C25.1874 93.16 24.7141 93.0633 24.3141 92.87C23.9141 92.67 23.6041 92.3833 23.3841 92.01C23.1641 91.63 23.0474 91.18 23.0341 90.66H24.1241C24.1907 91.12 24.3641 91.4733 24.6441 91.72C24.9241 91.9667 25.2841 92.09 25.7241 92.09C26.0107 92.09 26.2607 92.0367 26.4741 91.93C26.6941 91.8233 26.8641 91.6733 26.9841 91.48C27.1041 91.28 27.1641 91.05 27.1641 90.79C27.1641 90.3967 27.0374 90.0767 26.7841 89.83C26.5374 89.5833 26.2074 89.46 25.7941 89.46H24.8541V88.4H25.7941C26.2207 88.4 26.5641 88.2867 26.8241 88.06C27.0841 87.8333 27.2141 87.54 27.2141 87.18C27.2141 86.8 27.0807 86.4933 26.8141 86.26C26.5541 86.0267 26.2041 85.91 25.7641 85.91C25.3041 85.91 24.9307 86.04 24.6441 86.3C24.3574 86.56 24.1674 86.94 24.0741 87.44H22.9841C23.0107 86.8867 23.1407 86.4167 23.3741 86.03C23.6074 85.6433 23.9274 85.35 24.3341 85.15C24.7407 84.9433 25.2207 84.84 25.7741 84.84C26.2807 84.84 26.7274 84.9333 27.1141 85.12C27.5007 85.3067 27.8007 85.5667 28.0141 85.9C28.2341 86.2333 28.3441 86.6333 28.3441 87.1C28.3441 87.5333 28.2274 87.9033 27.9941 88.21C27.7674 88.5167 27.4641 88.72 27.0841 88.82V88.98C27.4574 89.08 27.7541 89.3 27.9741 89.64C28.2007 89.9733 28.3141 90.3833 28.3141 90.87ZM34.456 85V89.61H35.646V90.68H34.456V93H33.316V90.68H29.716V89.15L32.456 85H34.456ZM30.706 89.5V89.61H33.316V85.11H33.626L30.706 89.5ZM39.668 93.16C38.6946 93.16 37.9646 92.8133 37.478 92.12C36.9913 91.4267 36.748 90.3867 36.748 89C36.748 87.6133 36.9913 86.5733 37.478 85.88C37.9646 85.1867 38.6946 84.84 39.668 84.84C40.6413 84.84 41.3713 85.1867 41.858 85.88C42.3446 86.5733 42.588 87.6133 42.588 89C42.588 90.3867 42.3446 91.4267 41.858 92.12C41.3713 92.8133 40.6413 93.16 39.668 93.16ZM39.668 92.09C40.2813 92.09 40.7313 91.84 41.018 91.34C41.3046 90.84 41.448 90.06 41.448 89C41.448 87.94 41.3046 87.16 41.018 86.66C40.7313 86.16 40.2813 85.91 39.668 85.91C39.0546 85.91 38.6046 86.16 38.318 86.66C38.0313 87.16 37.888 87.94 37.888 89C37.888 90.06 38.0313 90.84 38.318 91.34C38.6046 91.84 39.0546 92.09 39.668 92.09ZM37.558 89.93L41.738 86.77V88.07L37.558 91.23V89.93Z" fill="#B2B2B2"/>
<path d="M27.4541 262V266.61H28.6441V267.68H27.4541V270H26.3141V267.68H22.7141V266.15L25.4541 262H27.4541ZM23.7041 266.5V266.61H26.3141V262.11H26.6241L23.7041 266.5ZM32.666 270.16C31.6927 270.16 30.9627 269.813 30.476 269.12C29.9893 268.427 29.746 267.387 29.746 266C29.746 264.613 29.9893 263.573 30.476 262.88C30.9627 262.187 31.6927 261.84 32.666 261.84C33.6393 261.84 34.3693 262.187 34.856 262.88C35.3427 263.573 35.586 264.613 35.586 266C35.586 267.387 35.3427 268.427 34.856 269.12C34.3693 269.813 33.6393 270.16 32.666 270.16ZM32.666 269.09C33.2793 269.09 33.7293 268.84 34.016 268.34C34.3027 267.84 34.446 267.06 34.446 266C34.446 264.94 34.3027 264.16 34.016 263.66C33.7293 263.16 33.2793 262.91 32.666 262.91C32.0527 262.91 31.6027 263.16 31.316 263.66C31.0293 264.16 30.886 264.94 30.886 266C30.886 267.06 31.0293 267.84 31.316 268.34C31.6027 268.84 32.0527 269.09 32.666 269.09ZM30.556 266.93L34.736 263.77V265.07L30.556 268.23V266.93ZM39.668 270.16C38.6946 270.16 37.9646 269.813 37.478 269.12C36.9913 268.427 36.748 267.387 36.748 266C36.748 264.613 36.9913 263.573 37.478 262.88C37.9646 262.187 38.6946 261.84 39.668 261.84C40.6413 261.84 41.3713 262.187 41.858 262.88C42.3446 263.573 42.588 264.613 42.588 266C42.588 267.387 42.3446 268.427 41.858 269.12C41.3713 269.813 40.6413 270.16 39.668 270.16ZM39.668 269.09C40.2813 269.09 40.7313 268.84 41.018 268.34C41.3046 267.84 41.448 267.06 41.448 266C41.448 264.94 41.3046 264.16 41.018 263.66C40.7313 263.16 40.2813 262.91 39.668 262.91C39.0546 262.91 38.6046 263.16 38.318 263.66C38.0313 264.16 37.888 264.94 37.888 266C37.888 267.06 38.0313 267.84 38.318 268.34C38.6046 268.84 39.0546 269.09 39.668 269.09ZM37.558 266.93L41.738 263.77V265.07L37.558 268.23V266.93Z" fill="#B2B2B2"/>
<path d="M27.4541 439V443.61H28.6441V444.68H27.4541V447H26.3141V444.68H22.7141V443.15L25.4541 439H27.4541ZM23.7041 443.5V443.61H26.3141V439.11H26.6241L23.7041 443.5ZM32.656 447.16C32.1293 447.16 31.6627 447.047 31.256 446.82C30.8493 446.587 30.5293 446.267 30.296 445.86C30.0627 445.447 29.946 444.973 29.946 444.44C29.946 444.033 30.026 443.62 30.186 443.2C30.346 442.78 30.5993 442.313 30.946 441.8L32.856 439H34.126L32.216 441.75L32.376 441.91C32.456 441.883 32.5427 441.863 32.636 441.85C32.736 441.83 32.836 441.82 32.936 441.82C33.4093 441.82 33.8293 441.933 34.196 442.16C34.5693 442.387 34.8593 442.697 35.066 443.09C35.2793 443.483 35.386 443.933 35.386 444.44C35.386 444.973 35.2693 445.447 35.036 445.86C34.8027 446.267 34.4793 446.587 34.066 446.82C33.6593 447.047 33.1893 447.16 32.656 447.16ZM31.086 444.44C31.086 444.767 31.1527 445.053 31.286 445.3C31.4193 445.547 31.6027 445.74 31.836 445.88C32.076 446.02 32.3527 446.09 32.666 446.09C32.986 446.09 33.2627 446.02 33.496 445.88C33.736 445.74 33.9193 445.547 34.046 445.3C34.1793 445.053 34.246 444.767 34.246 444.44C34.246 444.113 34.1793 443.83 34.046 443.59C33.9193 443.343 33.736 443.153 33.496 443.02C33.2627 442.88 32.986 442.81 32.666 442.81C32.3527 442.81 32.076 442.88 31.836 443.02C31.6027 443.153 31.4193 443.343 31.286 443.59C31.1527 443.83 31.086 444.113 31.086 444.44ZM39.668 447.16C38.6946 447.16 37.9646 446.813 37.478 446.12C36.9913 445.427 36.748 444.387 36.748 443C36.748 441.613 36.9913 440.573 37.478 439.88C37.9646 439.187 38.6946 438.84 39.668 438.84C40.6413 438.84 41.3713 439.187 41.858 439.88C42.3446 440.573 42.588 441.613 42.588 443C42.588 444.387 42.3446 445.427 41.858 446.12C41.3713 446.813 40.6413 447.16 39.668 447.16ZM39.668 446.09C40.2813 446.09 40.7313 445.84 41.018 445.34C41.3046 444.84 41.448 444.06 41.448 443C41.448 441.94 41.3046 441.16 41.018 440.66C40.7313 440.16 40.2813 439.91 39.668 439.91C39.0546 439.91 38.6046 440.16 38.318 440.66C38.0313 441.16 37.888 441.94 37.888 443C37.888 444.06 38.0313 444.84 38.318 445.34C38.6046 445.84 39.0546 446.09 39.668 446.09ZM37.558 443.93L41.738 440.77V442.07L37.558 445.23V443.93Z" fill="#B2B2B2"/>
<path d="M23.3541 616H28.2241V617.07H24.0441L24.4941 616.65V619.13H24.7941C24.9207 618.99 25.0974 618.88 25.3241 618.8C25.5507 618.72 25.7907 618.68 26.0441 618.68C26.4974 618.68 26.8974 618.793 27.2441 619.02C27.5974 619.24 27.8741 619.55 28.0741 619.95C28.2741 620.35 28.3741 620.817 28.3741 621.35C28.3741 621.897 28.2607 622.383 28.0341 622.81C27.8141 623.23 27.5074 623.56 27.1141 623.8C26.7207 624.04 26.2674 624.16 25.7541 624.16C24.9874 624.16 24.3674 623.957 23.8941 623.55C23.4274 623.143 23.1541 622.58 23.0741 621.86H24.1841C24.2907 622.253 24.4707 622.557 24.7241 622.77C24.9841 622.983 25.3207 623.09 25.7341 623.09C26.0407 623.09 26.3041 623.02 26.5241 622.88C26.7507 622.733 26.9241 622.53 27.0441 622.27C27.1707 622.003 27.2341 621.697 27.2341 621.35C27.2341 621.003 27.1741 620.707 27.0541 620.46C26.9341 620.213 26.7641 620.023 26.5441 619.89C26.3307 619.757 26.0707 619.69 25.7641 619.69C25.4441 619.69 25.1641 619.763 24.9241 619.91C24.6907 620.05 24.5141 620.26 24.3941 620.54H23.3541V616ZM30.266 622.31L33.056 620.22C33.4427 619.933 33.726 619.64 33.906 619.34C34.086 619.033 34.176 618.703 34.176 618.35C34.176 617.903 34.0493 617.553 33.796 617.3C33.5427 617.04 33.1927 616.91 32.746 616.91C32.326 616.91 31.9827 617.04 31.716 617.3C31.4493 617.56 31.2627 617.94 31.156 618.44H30.056C30.0827 617.9 30.216 617.437 30.456 617.05C30.7027 616.657 31.0227 616.357 31.416 616.15C31.816 615.943 32.2593 615.84 32.746 615.84C33.266 615.84 33.716 615.947 34.096 616.16C34.4827 616.367 34.7827 616.657 34.996 617.03C35.2093 617.403 35.316 617.843 35.316 618.35C35.316 618.87 35.1827 619.353 34.916 619.8C34.6493 620.247 34.246 620.667 33.706 621.06L31.236 622.83V622.93H35.156V624H30.266V622.31ZM39.668 624.16C38.6946 624.16 37.9646 623.813 37.478 623.12C36.9913 622.427 36.748 621.387 36.748 620C36.748 618.613 36.9913 617.573 37.478 616.88C37.9646 616.187 38.6946 615.84 39.668 615.84C40.6413 615.84 41.3713 616.187 41.858 616.88C42.3446 617.573 42.588 618.613 42.588 620C42.588 621.387 42.3446 622.427 41.858 623.12C41.3713 623.813 40.6413 624.16 39.668 624.16ZM39.668 623.09C40.2813 623.09 40.7313 622.84 41.018 622.34C41.3046 621.84 41.448 621.06 41.448 620C41.448 618.94 41.3046 618.16 41.018 617.66C40.7313 617.16 40.2813 616.91 39.668 616.91C39.0546 616.91 38.6046 617.16 38.318 617.66C38.0313 618.16 37.888 618.94 37.888 620C37.888 621.06 38.0313 621.84 38.318 622.34C38.6046 622.84 39.0546 623.09 39.668 623.09ZM37.558 620.93L41.738 617.77V619.07L37.558 622.23V620.93Z" fill="#B2B2B2"/>
</svg>
