<svg width="493" height="564" viewBox="0 0 493 564" fill="none" xmlns="http://www.w3.org/2000/svg">
<g clip-path="url(#clip0_186_256)">
<rect x="493" width="564" height="493" transform="rotate(90 493 0)" fill="#111111"/>
<path d="M48.804 298.379L28.0781 289.584L31.2832 309.031L50.7191 320.19L48.804 298.379Z" fill="#ECECEC"/>
<path d="M218.253 146.187L198.031 136.288L200.183 155.879L218.989 168.07L218.253 146.187Z" fill="white"/>
<path d="M219.269 466.906L228.527 487.429L209.013 484.662L197.42 465.483L219.269 466.906Z" fill="#ECECEC"/>
<path d="M379.385 323.659L387.523 344.651L368.187 340.837L357.644 321.06L379.385 323.659Z" fill="#E82910"/>
<path d="M76.886 260.937L56.1602 252.143L59.3652 271.59L78.8011 282.749L76.886 260.937Z" fill="#ECECEC"/>
<path d="M248.311 110.313L228.09 100.414L230.242 120.005L249.048 132.196L248.311 110.313Z" fill="#ECECEC"/>
<path d="M294.605 393.651L303.863 414.173L284.349 411.407L272.756 392.227L294.605 393.651Z" fill="#555555"/>
<path d="M458.561 254.572L466.699 275.564L447.363 271.749L436.82 251.972L458.561 254.572Z" fill="#555555"/>
<path d="M256.069 437.99L265.328 458.513L245.814 455.746L234.22 436.566L256.069 437.99Z" fill="#E82910"/>
<path d="M417.689 296.769L425.828 317.761L406.492 313.947L395.949 294.17L417.689 296.769Z" fill="#ECECEC"/>
<path d="M33.5032 344.056L12.7773 335.261L15.9824 354.708L35.4183 365.867L33.5032 344.056Z" fill="#ECECEC"/>
<path d="M200.511 190.971L180.289 181.072L182.441 200.663L201.247 212.854L200.511 190.971Z" fill="white"/>
<path d="M173.948 483.233L183.207 503.755L163.693 500.989L152.099 481.809L173.948 483.233Z" fill="#ECECEC"/>
<path d="M333.248 337.519L341.387 358.511L322.05 354.696L311.508 334.919L333.248 337.519Z" fill="#555555"/>
<path d="M76.5071 304.162L55.7812 295.368L58.9863 314.815L78.4222 325.974L76.5071 304.162Z" fill="#ECECEC"/>
<path d="M245.604 153.455L225.383 143.556L227.535 163.148L246.341 175.338L245.604 153.455Z" fill="#ECECEC"/>
<path d="M212.862 439.339L222.121 459.861L202.607 457.095L191.013 437.915L212.862 439.339Z" fill="#ECECEC"/>
<path d="M374.475 295.787L382.613 316.779L363.277 312.964L352.734 293.187L374.475 295.787Z" fill="#E82910"/>
<path d="M143.124 222.381L122.398 213.587L125.603 233.034L145.039 244.193L143.124 222.381Z" fill="#E82910"/>
<path d="M316.534 75.3839L296.312 65.4849L298.464 85.0763L317.27 97.2668L316.534 75.3839Z" fill="white"/>
<path d="M104.589 266.721L83.8633 257.926L87.0683 277.373L106.504 288.532L104.589 266.721Z" fill="#E82910"/>
<path d="M275.663 117.581L255.441 107.682L257.593 127.274L276.399 139.464L275.663 117.581Z" fill="white"/>
<path d="M288.198 366.083L297.457 386.605L277.943 383.839L266.349 364.659L288.198 366.083Z" fill="#555555"/>
<path d="M453.65 226.699L461.789 247.691L442.452 243.876L431.91 224.099L453.65 226.699Z" fill="#555555"/>
<path d="M249.663 410.422L258.922 430.945L239.408 428.178L227.814 408.999L249.663 410.422Z" fill="#E82910"/>
<path d="M412.779 268.896L420.918 289.888L401.581 286.074L391.039 266.297L412.779 268.896Z" fill="#ECECEC"/>
<path d="M61.2063 349.839L40.4805 341.045L43.6855 360.492L63.1214 371.651L61.2063 349.839Z" fill="#555555"/>
<path d="M227.862 198.241L207.641 188.342L209.792 207.933L228.598 220.124L227.862 198.241Z" fill="white"/>
<path d="M167.542 455.665L176.801 476.188L157.287 473.421L145.693 454.241L167.542 455.665Z" fill="#3F3F3F"/>
<path d="M328.338 309.646L336.477 330.638L317.14 326.823L306.597 307.046L328.338 309.646Z" fill="#555555"/>
<path d="M104.269 317.406L83.543 308.611L86.748 328.058L106.184 339.217L104.269 317.406Z" fill="#ECECEC"/>
<path d="M272.612 168.176L252.391 158.277L254.542 177.868L273.348 190.059L272.612 168.176Z" fill="#ECECEC"/>
<path d="M198.999 411.884L208.258 432.406L188.744 429.64L177.15 410.46L198.999 411.884Z" fill="#ECECEC"/>
<path d="M362.107 267.624L370.246 288.616L350.91 284.802L340.367 265.025L362.107 267.624Z" fill="#E82910"/>
<path d="M170.886 235.624L150.16 226.83L153.365 246.276L172.801 257.435L170.886 235.624Z" fill="white"/>
<path d="M343.538 90.105L323.316 80.2061L325.468 99.7975L344.274 111.988L343.538 90.105Z" fill="white"/>
<path d="M132.351 279.964L111.625 271.169L114.83 290.616L134.266 301.775L132.351 279.964Z" fill="#E82910"/>
<path d="M302.671 132.302L282.449 122.403L284.601 141.995L303.407 154.185L302.671 132.302Z" fill="white"/>
<path d="M274.335 338.628L283.594 359.15L264.08 356.384L252.486 337.204L274.335 338.628Z" fill="#555555"/>
<path d="M441.283 198.536L449.422 219.528L430.085 215.714L419.543 195.937L441.283 198.536Z" fill="#555555"/>
<path d="M235.8 382.968L245.059 403.49L225.544 400.724L213.951 381.544L235.8 382.968Z" fill="#E82910"/>
<path d="M400.416 240.734L408.555 261.726L389.218 257.911L378.676 238.134L400.416 240.734Z" fill="#ECECEC"/>
<path d="M88.968 363.082L68.2422 354.288L71.4472 373.734L90.8832 384.893L88.968 363.082Z" fill="#3F3F3F"/>
<path d="M254.87 212.961L234.648 203.062L236.8 222.653L255.606 234.843L254.87 212.961Z" fill="white"/>
<path d="M153.679 428.21L162.938 448.732L143.423 445.966L131.83 426.786L153.679 428.21Z" fill="#3F3F3F"/>
<path d="M315.975 281.483L324.113 302.475L304.777 298.66L294.234 278.883L315.975 281.483Z" fill="#555555"/>
<path d="M131.753 328.385L111.027 319.591L114.232 339.038L133.668 350.197L131.753 328.385Z" fill="#3F3F3F"/>
<path d="M299.464 180.622L279.242 170.723L281.394 190.314L300.2 202.505L299.464 180.622Z" fill="#E82910"/>
<path d="M187.401 384.655L196.66 405.178L177.146 402.411L165.552 383.232L187.401 384.655Z" fill="#ECECEC"/>
<path d="M351.998 239.81L360.137 260.802L340.8 256.988L330.258 237.211L351.998 239.81Z" fill="#E82910"/>
<path d="M198.366 246.604L177.641 237.81L180.846 257.256L200.282 268.415L198.366 246.604Z" fill="white"/>
<path d="M370.39 102.551L350.168 92.6519L352.32 112.243L371.126 124.434L370.39 102.551Z" fill="white"/>
<path d="M159.831 290.943L139.105 282.149L142.311 301.596L161.746 312.755L159.831 290.943Z" fill="#E82910"/>
<path d="M329.518 144.748L309.297 134.849L311.449 154.441L330.255 166.631L329.518 144.748Z" fill="white"/>
<path d="M224.817 259.862L205.219 248.781L206.204 268.465L224.254 281.75L224.817 259.862Z" fill="#ECECEC"/>
<path d="M396.086 117.216L377.113 105.094L377.036 124.803L394.343 139.042L396.086 117.216Z" fill="white"/>
<path d="M186.282 304.201L166.684 293.12L167.669 312.805L185.719 326.09L186.282 304.201Z" fill="#ECECEC"/>
<path d="M355.215 159.413L336.242 147.291L336.165 167L353.472 181.239L355.215 159.413Z" fill="white"/>
<path d="M156.928 341.547L138.992 331.406L139.894 349.42L156.413 361.578L156.928 341.547Z" fill="#555555"/>
<path d="M323.89 195.121L306.527 184.027L306.457 202.064L322.296 215.095L323.89 195.121Z" fill="#E82910"/>
<path d="M251.122 284.475L240.641 264.549L230.815 281.635L238.801 302.575L251.122 284.475Z" fill="#ECECEC"/>
<path d="M421.025 143.211L411.633 122.75L400.9 139.28L407.746 160.621L421.025 143.211Z" fill="#3F3F3F"/>
<path d="M212.587 328.814L202.105 308.889L192.28 325.974L200.266 346.914L212.587 328.814Z" fill="#ECECEC"/>
<path d="M380.158 185.408L370.766 164.946L360.033 181.477L366.879 202.817L380.158 185.408Z" fill="#ECECEC"/>
<path d="M176.393 363.334L166.801 345.099L157.809 360.735L165.118 379.898L176.393 363.334Z" fill="#555555"/>
<path d="M342.154 217.927L333.559 199.201L323.736 214.329L330.002 233.859L342.154 217.927Z" fill="#E82910"/>
<path d="M262.737 311.4L271.996 331.923L252.482 329.156L240.888 309.977L262.737 311.4Z" fill="#555555"/>
<path d="M431.174 170.723L439.312 191.715L419.976 187.9L409.433 168.123L431.174 170.723Z" fill="#3F3F3F"/>
<path d="M224.202 355.74L233.461 376.262L213.947 373.496L202.353 354.316L224.202 355.74Z" fill="#E82910"/>
<path d="M390.303 212.92L398.441 233.912L379.105 230.098L368.562 210.321L390.303 212.92Z" fill="#ECECEC"/>
<path d="M116.449 374.061L95.7227 365.267L98.9277 384.714L118.364 395.873L116.449 374.061Z" fill="#3F3F3F"/>
<path d="M281.718 225.406L261.496 215.507L263.648 235.098L282.454 247.289L281.718 225.406Z" fill="#555555"/>
<path d="M142.085 400.982L151.344 421.504L131.83 418.738L120.236 399.558L142.085 400.982Z" fill="#3F3F3F"/>
<path d="M305.865 253.67L314.004 274.662L294.667 270.847L284.125 251.07L305.865 253.67Z" fill="#555555"/>
<path d="M49.6598 296.458L31.3276 288.661L47.9206 279.142L65.2022 284.73L49.6598 296.458Z" fill="#ECECEC"/>
<path d="M219.213 144.315L201.327 135.541L218.41 126.93L235.365 133.442L219.213 144.315Z" fill="white"/>
<path d="M221.171 466.007L229.379 484.159L238.522 467.356L232.546 450.204L221.171 466.007Z" fill="#E82910"/>
<path d="M381.33 322.864L388.547 341.432L398.583 325.146L393.54 307.698L381.33 322.864Z" fill="#E82910"/>
<path d="M77.7419 259.015L59.4096 251.218L76.0026 241.699L93.2842 247.288L77.7419 259.015Z" fill="#E82910"/>
<path d="M249.271 108.44L231.386 99.6662L248.468 91.0557L265.423 97.5679L249.271 108.44Z" fill="white"/>
<path d="M296.507 392.751L304.715 410.903L313.858 394.1L307.882 376.948L296.507 392.751Z" fill="#555555"/>
<path d="M460.506 253.776L467.723 272.345L477.759 256.059L472.716 238.61L460.506 253.776Z" fill="#555555"/>
<path d="M257.972 437.09L266.18 455.242L275.323 438.439L269.347 421.288L257.972 437.09Z" fill="#E82910"/>
<path d="M419.639 295.974L426.856 314.542L436.891 298.257L431.849 280.808L419.639 295.974Z" fill="#ECECEC"/>
<path d="M34.3591 342.134L16.0268 334.337L32.6198 324.818L49.9014 330.406L34.3591 342.134Z" fill="#555555"/>
<path d="M201.47 189.098L183.585 180.324L200.667 171.713L217.623 178.226L201.47 189.098Z" fill="white"/>
<path d="M175.851 482.332L184.059 500.484L193.202 483.681L187.226 466.53L175.851 482.332Z" fill="#ECECEC"/>
<path d="M335.197 336.722L342.414 355.29L352.45 339.005L347.407 321.556L335.197 336.722Z" fill="#555555"/>
<path d="M77.3669 302.241L59.0346 294.444L75.6276 284.925L92.9092 290.514L77.3669 302.241Z" fill="#ECECEC"/>
<path d="M246.564 151.583L228.679 142.809L245.761 134.198L262.716 140.71L246.564 151.583Z" fill="#ECECEC"/>
<path d="M214.765 438.439L222.973 456.591L232.116 439.788L226.14 422.636L214.765 438.439Z" fill="#E82910"/>
<path d="M376.42 294.991L383.637 313.559L393.673 297.274L388.63 279.825L376.42 294.991Z" fill="#E82910"/>
<path d="M143.98 220.46L125.648 212.663L142.241 203.144L159.523 208.732L143.98 220.46Z" fill="white"/>
<path d="M317.494 73.5121L299.609 64.7379L316.691 56.1275L333.646 62.6397L317.494 73.5121Z" fill="white"/>
<path d="M105.445 264.799L87.1128 257.002L103.706 247.483L120.987 253.072L105.445 264.799Z" fill="#E82910"/>
<path d="M276.623 115.709L258.738 106.935L275.82 98.3248L292.775 104.837L276.623 115.709Z" fill="white"/>
<path d="M290.101 365.184L298.309 383.336L307.452 366.533L301.476 349.382L290.101 365.184Z" fill="#555555"/>
<path d="M455.596 225.904L462.813 244.472L472.848 228.186L467.806 210.738L455.596 225.904Z" fill="#555555"/>
<path d="M251.566 409.523L259.774 427.675L268.917 410.872L262.941 393.721L251.566 409.523Z" fill="#E82910"/>
<path d="M414.724 268.101L421.942 286.669L431.977 270.384L426.935 252.935L414.724 268.101Z" fill="#555555"/>
<path d="M62.0622 347.917L43.73 340.12L60.3229 330.601L77.6046 336.19L62.0622 347.917Z" fill="#555555"/>
<path d="M228.822 196.368L210.937 187.593L228.019 178.983L244.974 185.495L228.822 196.368Z" fill="white"/>
<path d="M169.445 454.766L177.653 472.918L186.796 456.115L180.82 438.963L169.445 454.766Z" fill="#3F3F3F"/>
<path d="M330.287 308.85L337.504 327.418L347.54 311.133L342.497 293.684L330.287 308.85Z" fill="#ECECEC"/>
<path d="M105.125 315.484L86.7925 307.687L103.385 298.168L120.667 303.757L105.125 315.484Z" fill="#E82910"/>
<path d="M273.572 166.304L255.687 157.529L272.769 148.919L289.724 155.431L273.572 166.304Z" fill="#ECECEC"/>
<path d="M200.898 410.984L209.106 429.136L218.249 412.333L212.273 395.181L200.898 410.984Z" fill="#E82910"/>
<path d="M364.057 266.828L371.274 285.396L381.309 269.111L376.267 251.662L364.057 266.828Z" fill="#E82910"/>
<path d="M171.742 233.703L153.41 225.906L170.003 216.387L187.284 221.976L171.742 233.703Z" fill="white"/>
<path d="M344.498 88.2333L326.613 79.4591L343.695 70.8487L360.65 77.3609L344.498 88.2333Z" fill="white"/>
<path d="M133.207 278.043L114.874 270.246L131.467 260.727L148.749 266.315L133.207 278.043Z" fill="#E82910"/>
<path d="M303.627 130.431L285.742 121.656L302.824 113.046L319.779 119.558L303.627 130.431Z" fill="white"/>
<path d="M276.234 337.728L284.442 355.88L293.585 339.077L287.609 321.925L276.234 337.728Z" fill="#555555"/>
<path d="M443.232 197.74L450.449 216.309L460.485 200.023L455.442 182.574L443.232 197.74Z" fill="#555555"/>
<path d="M237.699 382.067L245.907 400.219L255.05 383.416L249.073 366.265L237.699 382.067Z" fill="#E82910"/>
<path d="M402.361 239.938L409.578 258.506L419.614 242.22L414.571 224.771L402.361 239.938Z" fill="#555555"/>
<path d="M89.8239 361.161L71.4917 353.364L88.0846 343.845L105.366 349.433L89.8239 361.161Z" fill="#555555"/>
<path d="M255.826 211.088L237.941 202.314L255.023 193.704L271.978 200.216L255.826 211.088Z" fill="white"/>
<path d="M155.578 427.31L163.786 445.462L172.929 428.659L166.952 411.508L155.578 427.31Z" fill="#3F3F3F"/>
<path d="M317.92 280.687L325.137 299.255L335.173 282.97L330.13 265.521L317.92 280.687Z" fill="#ECECEC"/>
<path d="M132.609 326.464L114.277 318.667L130.87 309.148L148.151 314.737L132.609 326.464Z" fill="#555555"/>
<path d="M300.42 178.749L282.535 169.975L299.617 161.364L316.572 167.876L300.42 178.749Z" fill="#E82910"/>
<path d="M189.304 383.756L197.512 401.908L206.655 385.105L200.679 367.953L189.304 383.756Z" fill="#E82910"/>
<path d="M353.943 239.014L361.16 257.582L371.196 241.297L366.153 223.848L353.943 239.014Z" fill="#E82910"/>
<path d="M199.222 244.683L180.89 236.886L197.483 227.367L214.765 232.956L199.222 244.683Z" fill="white"/>
<path d="M371.349 100.679L353.464 91.9049L370.546 83.2945L387.501 89.8067L371.349 100.679Z" fill="#3F3F3F"/>
<path d="M160.687 289.023L142.355 281.226L158.948 271.707L176.23 277.295L160.687 289.023Z" fill="#E82910"/>
<path d="M330.478 142.876L312.593 134.102L329.675 125.492L346.63 132.004L330.478 142.876Z" fill="white"/>
<path d="M225.884 258.05L208.551 248.231L226.114 240.649L242.653 248.156L225.884 258.05Z" fill="#ECECEC"/>
<path d="M397.25 115.464L380.471 104.724L398.417 98.1001L414.527 106.488L397.25 115.464Z" fill="#3F3F3F"/>
<path d="M187.349 302.39L170.016 292.57L187.579 284.988L204.118 292.495L187.349 302.39Z" fill="#ECECEC"/>
<path d="M356.379 157.661L339.6 146.921L357.546 140.297L373.656 148.685L356.379 157.661Z" fill="white"/>
<path d="M157.904 339.888L142.042 330.902L158.115 323.963L173.25 330.833L157.904 339.888Z" fill="#555555"/>
<path d="M324.956 193.518L309.601 183.689L326.025 177.627L340.768 185.303L324.956 193.518Z" fill="#E82910"/>
<path d="M253.001 283.53L243.742 265.892L262.613 269.023L272.457 284.286L253.001 283.53Z" fill="#ECECEC"/>
<path d="M422.95 142.369L414.655 124.257L433.33 128.401L442.337 144.173L422.95 142.369Z" fill="#3F3F3F"/>
<path d="M214.466 327.87L205.206 310.231L224.078 313.362L233.922 328.626L214.466 327.87Z" fill="#ECECEC"/>
<path d="M382.083 184.566L373.788 166.454L392.463 170.598L401.469 186.37L382.083 184.566Z" fill="#ECECEC"/>
<path d="M178.11 362.469L169.636 346.327L186.907 349.192L195.916 363.161L178.11 362.469Z" fill="#555555"/>
<path d="M343.915 217.155L336.324 200.579L353.415 204.372L361.657 218.806L343.915 217.155Z" fill="#E82910"/>
<path d="M264.64 310.5L272.848 328.652L281.991 311.849L276.015 294.697L264.64 310.5Z" fill="#555555"/>
<path d="M433.119 169.927L440.336 188.495L450.372 172.209L445.329 154.761L433.119 169.927Z" fill="#3F3F3F"/>
<path d="M226.105 354.839L234.313 372.991L243.456 356.188L237.48 339.037L226.105 354.839Z" fill="#E82910"/>
<path d="M392.252 212.124L399.469 230.692L409.505 214.407L404.462 196.958L392.252 212.124Z" fill="#555555"/>
<path d="M117.308 372.14L98.976 364.343L115.569 354.824L132.851 360.412L117.308 372.14Z" fill="#3F3F3F"/>
<path d="M282.677 223.534L264.792 214.759L281.874 206.149L298.83 212.661L282.677 223.534Z" fill="#555555"/>
<path d="M143.984 400.082L152.192 418.234L161.335 401.431L155.359 384.279L143.984 400.082Z" fill="#3F3F3F"/>
<path d="M307.81 252.873L315.028 271.441L325.063 255.156L320.021 237.707L307.81 252.873Z" fill="#555555"/>
<path d="M20.075 12V27.7459M12.1289 19.846H28.1289" stroke="white" stroke-width="1.57459"/>
<path d="M20.075 536.555V552.301M12.1289 544.401H28.1289" stroke="white" stroke-width="1.57459"/>
<path d="M472.946 536.265V552.011M465 544.111H481" stroke="white" stroke-width="1.57459"/>
<path d="M472.946 12V27.7459M465 19.846H481" stroke="white" stroke-width="1.57459"/>
</g>
<rect x="492.55" y="0.4497" width="563.101" height="492.101" transform="rotate(90 492.55 0.4497)" stroke="white" stroke-width="0.8994" stroke-dasharray="1.8 3.6 5.4 7.2"/>
<defs>
<clipPath id="clip0_186_256">
<rect x="493" width="564" height="493" transform="rotate(90 493 0)" fill="white"/>
</clipPath>
</defs>
</svg>
