<svg width="493" height="540" viewBox="0 0 493 540" fill="none" xmlns="http://www.w3.org/2000/svg">
<g clip-path="url(#clip0_186_432)">
<rect x="493" width="540" height="493" transform="rotate(90 493 0)" fill="#111111"/>
<path d="M20.075 12V27.7459M12.1289 19.846H28.1289" stroke="white" stroke-width="1.57459"/>
<path d="M20.075 511.936V527.681M12.1289 519.782H28.1289" stroke="white" stroke-width="1.57459"/>
<path d="M472.946 512.42V528.166M465 520.266H481" stroke="white" stroke-width="1.57459"/>
<path d="M472.946 12V27.7459M465 19.846H481" stroke="white" stroke-width="1.57459"/>
<path fill-rule="evenodd" clip-rule="evenodd" d="M206.294 263.602V360.613H115.942L206.294 263.602Z" fill="white"/>
<path fill-rule="evenodd" clip-rule="evenodd" d="M206.294 263.602V360.613H115.942L206.294 263.602Z" fill="black" fill-opacity="0.2"/>
<path fill-rule="evenodd" clip-rule="evenodd" d="M291.891 360.613L206.294 457.623V360.613H291.891Z" fill="white"/>
<path fill-rule="evenodd" clip-rule="evenodd" d="M291.891 360.613L206.294 457.623V360.613H291.891Z" fill="white"/>
<path fill-rule="evenodd" clip-rule="evenodd" d="M206.294 173.25V263.602L115.942 173.25H206.294Z" fill="#555555"/>
<path fill-rule="evenodd" clip-rule="evenodd" d="M206.294 82.8984L291.891 173.25H206.294V82.8984Z" fill="white"/>
<path fill-rule="evenodd" clip-rule="evenodd" d="M377.489 263.602L291.891 360.613V263.602H377.489Z" fill="white"/>
<path fill-rule="evenodd" clip-rule="evenodd" d="M115.942 263.602H25.5898L115.942 173.25V263.602Z" fill="white"/>
<path fill-rule="evenodd" clip-rule="evenodd" d="M115.942 263.602H25.5898L115.942 173.25V263.602Z" fill="#555555"/>
<path fill-rule="evenodd" clip-rule="evenodd" d="M206.294 263.602L115.942 360.613V263.602H206.294Z" fill="white"/>
<path d="M291.891 173.25V263.602H377.489L291.891 173.25Z" fill="#E82910"/>
<path d="M206.294 360.613H115.942L206.294 457.623V360.613Z" fill="#E82910"/>
<path d="M206.294 360.613H115.942L206.294 457.623V360.613Z" fill="black" fill-opacity="0.2"/>
<path d="M115.942 173.25H206.294V82.8984L115.942 173.25Z" fill="#E82910"/>
<path d="M115.942 173.25H206.294V82.8984L115.942 173.25Z" fill="black" fill-opacity="0.2"/>
<path fill-rule="evenodd" clip-rule="evenodd" d="M291.891 173.25V263.602H206.294L291.891 173.25Z" fill="white"/>
<path fill-rule="evenodd" clip-rule="evenodd" d="M206.917 455.985H207.109V456.154L207.374 456.39L207.977 456.922L206.908 458.134L206.32 458.798L204.64 456.996L205.229 456.448L205.501 456.193V455.985H205.727L205.818 455.9L205.896 455.985H206.66L206.773 455.857L206.917 455.985ZM202.489 454.686L200.338 452.376L201.516 451.28L203.667 453.59L202.489 454.686ZM211.654 451.539L212.257 452.07L210.117 454.496L209.514 453.964L208.911 453.433L211.051 451.007L211.654 451.539ZM198.187 450.067L196.036 447.757L196.625 447.209L197.212 446.661L199.365 448.971L198.187 450.067ZM215.935 446.689L216.538 447.22L214.398 449.646L213.192 448.581L215.332 446.157L215.935 446.689ZM195.061 444.351L194.473 444.899L193.885 445.447L191.733 443.137L192.322 442.589L192.909 442.041L195.061 444.351ZM220.215 441.837L220.816 442.369L218.678 444.795L217.472 443.731L219.612 441.306L220.215 441.837ZM190.758 439.732L190.171 440.28L189.582 440.828L187.431 438.518L188.02 437.97L188.607 437.422L190.758 439.732ZM224.494 436.987L225.097 437.519L222.957 439.945L221.751 438.88L223.891 436.456L224.494 436.987ZM186.456 435.112L185.869 435.66L185.28 436.206L183.129 433.897L183.718 433.35L184.305 432.802L186.456 435.112ZM229.377 432.669L227.237 435.095L226.031 434.03L228.171 431.604L229.377 432.669ZM182.154 430.493L180.978 431.587L178.826 429.277L179.414 428.729L180.002 428.183L182.154 430.493ZM233.657 427.818L231.517 430.243L230.914 429.712L230.311 429.18L232.452 426.754L233.657 427.818ZM177.851 425.873L177.262 426.419L176.675 426.967L174.524 424.658L175.111 424.11L175.7 423.563L177.851 425.873ZM237.936 422.968L235.796 425.393L234.592 424.33L236.73 421.904L237.936 422.968ZM173.549 421.252L172.96 421.8L172.373 422.348L170.222 420.038L170.809 419.49L171.398 418.942L173.549 421.252ZM242.217 418.118L240.076 420.542L239.473 420.01L238.871 419.479L241.011 417.053L242.217 418.118ZM169.247 416.632L168.658 417.18L168.071 417.728L165.918 415.419L167.095 414.323L169.247 416.632ZM245.894 412.735L246.497 413.266L244.357 415.692L243.754 415.16L243.151 414.629L245.291 412.203L245.894 412.735ZM164.944 412.013L163.767 413.109L161.616 410.799L162.793 409.703L164.944 412.013ZM250.173 407.885L250.776 408.416L248.637 410.842L247.431 409.777L249.571 407.353L250.173 407.885ZM160.642 407.393L159.464 408.489L157.313 406.18L158.491 405.084L160.642 407.393ZM254.453 403.033L255.056 403.565L252.916 405.991L251.71 404.927L253.85 402.502L254.453 403.033ZM156.34 402.774L155.162 403.87L153.011 401.56L153.6 401.012L154.187 400.464L156.34 402.774ZM258.733 398.183L259.336 398.715L257.196 401.141L255.99 400.076L258.131 397.652L258.733 398.183ZM152.036 398.154L151.449 398.702L150.86 399.25L148.709 396.941L149.297 396.393L149.885 395.845L152.036 398.154ZM263.617 393.865L261.477 396.291L260.271 395.226L262.411 392.8L263.617 393.865ZM147.733 393.535L147.146 394.083L146.557 394.631L144.406 392.321L144.995 391.773L145.582 391.225L147.733 393.535ZM267.896 389.014L265.755 391.439L265.152 390.908L264.551 390.376L266.69 387.95L267.896 389.014ZM143.431 388.915L142.844 389.463L142.255 390.011L140.104 387.702L140.693 387.154L141.28 386.606L143.431 388.915ZM272.176 384.164L270.036 386.588L269.433 386.056L268.83 385.525L270.97 383.099L272.176 384.164ZM139.129 384.296L138.54 384.844L137.953 385.392L135.802 383.082L136.389 382.534L136.978 381.986L139.129 384.296ZM276.456 379.314L274.316 381.738L273.713 381.206L273.11 380.675L275.25 378.249L276.456 379.314ZM134.826 379.676L134.238 380.224L133.65 380.772L131.499 378.463L132.086 377.915L132.675 377.367L134.826 379.676ZM280.132 373.931L280.735 374.462L278.595 376.888L277.993 376.355L277.39 375.823L279.529 373.399L280.132 373.931ZM130.524 375.057L129.935 375.605L129.348 376.153L127.197 373.843L127.784 373.295L128.373 372.747L130.524 375.057ZM284.412 369.081L285.015 369.611L282.875 372.037L281.669 370.973L283.809 368.548L284.412 369.081ZM126.222 370.437L125.633 370.985L125.046 371.533L122.893 369.224L124.071 368.128L126.222 370.437ZM288.693 364.229L289.296 364.761L287.156 367.187L285.95 366.122L288.09 363.698L288.693 364.229ZM121.919 365.818L120.742 366.914L118.591 364.604L119.768 363.508L121.919 365.818ZM292.515 358.975H292.706V359.143L292.973 359.379L293.574 359.911L291.436 362.337L290.37 361.396H290.257V361.296L290.23 361.272L290.257 361.241V359.941L290.23 359.911L290.257 359.886V359.788H290.368L291.098 359.145V358.975H291.291L291.436 358.848L291.547 358.975H292.257L292.37 358.848L292.515 358.975ZM116.532 358.975H116.757V359.182L117.028 359.437L117.407 359.788H117.567V359.938L117.617 359.985L117.567 360.038V361.143L117.617 361.198L117.567 361.244V361.396H117.405L116.44 362.294L114.288 359.985L114.877 359.437L115.149 359.182V358.975H115.373L115.466 358.889L115.546 358.975H116.359L116.44 358.889L116.532 358.975ZM214.536 359.788V361.396H211.243V359.788H214.536ZM221.12 359.788V361.396H217.827V359.788H221.12ZM227.705 359.788V361.396H224.412V359.788H227.705ZM234.289 359.788V361.396H230.996V359.788H234.289ZM240.873 359.788V361.396H237.581V359.788H240.873ZM247.458 359.788V361.396H244.165V359.788H247.458ZM254.042 359.788V361.396H250.749V359.788H254.042ZM260.626 359.788V361.396H257.334V359.788H260.626ZM267.211 359.788V361.396H263.918V359.788H267.211ZM273.795 359.788V361.396H270.504V359.788H273.795ZM280.38 359.788V361.396H277.087V359.788H280.38ZM286.964 359.788V361.396H283.671V359.788H286.964ZM113.315 356.579L112.137 357.675L109.986 355.365L111.164 354.269L113.315 356.579ZM289.296 356.422L288.09 357.486L285.95 355.06L287.156 353.996L289.296 356.422ZM297.855 355.06L295.715 357.485L295.112 356.954L294.509 356.422L296.649 353.996L297.855 355.06ZM109.013 351.959L107.835 353.055L105.684 350.746L106.273 350.198L106.86 349.65L109.013 351.959ZM285.015 351.572L284.412 352.104L283.809 352.635L281.669 350.21L282.875 349.146L285.015 351.572ZM302.135 350.21L299.995 352.635L299.392 352.104L298.789 351.572L300.929 349.146L302.135 350.21ZM104.709 347.34L104.121 347.888L103.533 348.436L101.381 346.126L101.97 345.578L102.557 345.03L104.709 347.34ZM280.735 346.721L280.132 347.252L279.529 347.784L277.39 345.36L277.993 344.828L278.595 344.295L280.735 346.721ZM306.415 345.36L304.275 347.784L303.672 347.252L303.069 346.721L305.21 344.295L306.415 345.36ZM100.406 342.72L99.819 343.268L99.2302 343.816L97.0791 341.507L97.6679 340.959L98.2551 340.411L100.406 342.72ZM276.456 341.871L275.853 342.402L275.25 342.934L273.11 340.51L274.316 339.445L276.456 341.871ZM310.694 340.51L308.554 342.934L307.35 341.871L309.488 339.445L310.694 340.51ZM96.104 338.101L95.5167 338.649L94.9279 339.197L92.7767 336.887L93.3656 336.339L93.9528 335.791L96.104 338.101ZM272.176 337.019L270.97 338.084L268.83 335.658L269.433 335.127L270.036 334.595L272.176 337.019ZM314.372 335.127L314.975 335.658L312.834 338.084L311.629 337.019L313.769 334.595L314.372 335.127ZM91.8016 333.481L91.2128 334.029L90.6256 334.577L88.4744 332.268L89.0617 331.72L89.6505 331.172L91.8016 333.481ZM267.896 332.169L266.69 333.233L264.551 330.807L265.755 329.744L267.896 332.169ZM318.652 330.277L319.255 330.807L317.115 333.233L315.909 332.169L318.049 329.744L318.652 330.277ZM87.4993 328.862L86.9105 329.41L86.3232 329.958L84.1721 327.648L84.7593 327.1L85.3482 326.552L87.4993 328.862ZM263.617 327.318L262.411 328.383L260.271 325.957L260.874 325.425L261.477 324.894L263.617 327.318ZM323.534 325.957L321.394 328.383L320.792 327.851L320.189 327.318L322.329 324.894L323.534 325.957ZM83.197 324.242L82.6082 324.79L82.0209 325.338L79.8698 323.029L80.457 322.481L81.0458 321.933L83.197 324.242ZM327.211 320.574L327.814 321.107L325.674 323.533L324.468 322.468L326.608 320.044L327.211 320.574ZM78.8947 319.623L78.3058 320.171L77.7186 320.719L75.5659 318.409L76.7435 317.313L78.8947 319.623ZM332.094 316.256L329.954 318.681L329.351 318.15L328.748 317.618L330.888 315.192L332.094 316.256ZM74.5923 315.003L73.4147 316.099L71.2635 313.79L72.4412 312.694L74.5923 315.003ZM335.772 310.874L336.373 311.406L334.235 313.83L333.632 313.3L333.029 312.767L335.169 310.341L335.772 310.874ZM70.29 310.384L69.1124 311.48L66.9612 309.17L68.1389 308.074L70.29 310.384ZM340.654 306.556L338.513 308.98L337.91 308.448L337.307 307.917L339.448 305.491L340.654 306.556ZM65.9877 305.764L64.81 306.86L62.6589 304.551L63.2477 304.003L63.835 303.455L65.9877 305.764ZM344.331 301.173L344.934 301.704L342.794 304.13L342.191 303.597L341.588 303.067L343.728 300.641L344.331 301.173ZM61.6838 301.145L61.0965 301.693L60.5077 302.241L58.3566 299.931L58.9454 299.383L59.5326 298.835L61.6838 301.145ZM348.611 296.323L349.214 296.853L347.074 299.279L345.868 298.215L348.008 295.79L348.611 296.323ZM57.3815 296.525L56.7942 297.073L56.2054 297.621L54.0542 295.312L54.6431 294.764L55.2303 294.216L57.3815 296.525ZM352.89 291.471L353.493 292.003L351.353 294.429L350.751 293.897L350.148 293.365L352.287 290.94L352.89 291.471ZM53.0791 291.906L52.4919 292.454L51.9031 293.002L49.7519 290.692L50.3407 290.144L50.928 289.596L53.0791 291.906ZM357.17 286.621L357.773 287.153L355.633 289.579L354.427 288.514L356.567 286.09L357.17 286.621ZM48.7768 287.286L48.188 287.834L47.6007 288.382L45.4496 286.073L46.0368 285.525L46.6257 284.977L48.7768 287.286ZM362.054 282.303L359.913 284.728L358.708 283.664L360.848 281.238L362.054 282.303ZM44.4745 282.667L43.8857 283.215L43.2984 283.763L41.1473 281.453L41.7345 280.905L42.3233 280.357L44.4745 282.667ZM365.729 276.92L366.332 277.452L364.194 279.877L363.591 279.346L362.988 278.814L365.128 276.388L365.729 276.92ZM40.1722 278.047L39.5833 278.595L38.9961 279.143L36.8449 276.834L37.4322 276.286L38.021 275.738L40.1722 278.047ZM216.538 273.963L215.935 274.496L215.332 275.026L213.192 272.602L214.398 271.537L216.538 273.963ZM370.613 272.602L368.473 275.026L367.87 274.496L367.267 273.963L369.407 271.537L370.613 272.602ZM35.8698 273.428L35.281 273.976L34.6938 274.524L32.541 272.214L33.7187 271.118L35.8698 273.428ZM374.893 267.752L372.753 270.176L372.15 269.644L371.547 269.113L373.687 266.687L374.893 267.752ZM31.5675 268.808L30.9787 269.356L30.3899 269.903L28.2387 267.593L28.8275 267.047L29.4163 266.499L31.5675 268.808ZM378.589 263.562L377.033 265.326L375.967 264.385H375.854V264.285L375.827 264.263L375.854 264.231V263.013L375.79 262.945L375.854 262.884V262.777H375.967L376.958 261.84L378.589 263.562ZM27.0548 262.777H27.2149V262.937L27.2982 263.021L27.2149 263.104V264.134L27.2652 264.189L27.2149 264.234V264.385H27.0548L26.0875 265.283L25.012 264.129L24.4844 263.561L26.1613 261.884L27.0548 262.777ZM33.6684 262.777V264.385H30.4417V262.777H33.6684ZM40.1219 262.777V264.385H36.8952V262.777H40.1219ZM46.5754 262.777V264.385H43.3487V262.777H46.5754ZM53.0289 262.777V264.385H49.8021V262.777H53.0289ZM59.4824 262.777V264.385H56.2556V262.777H59.4824ZM65.9359 262.777V264.385H62.7091V262.777H65.9359ZM72.3909 262.777V264.385H69.1626V262.777H72.3909ZM78.8444 262.777V264.385H75.6177V262.777H78.8444ZM85.2979 262.777V264.385H82.0712V262.777H85.2979ZM91.7514 262.777V264.385H88.5247V262.777H91.7514ZM98.2049 262.777V264.385H94.9781V262.777H98.2049ZM104.658 262.777V264.385H101.432V262.777H104.658ZM111.112 262.777V264.385H107.885V262.777H111.112ZM372.561 262.777V264.385H369.269V262.777H372.561ZM31.8156 258.503L29.5577 260.761L28.4208 259.624L30.6788 257.366L31.8156 258.503ZM374.705 259.461L373.538 260.568L371.285 258.189L371.869 257.636L372.451 257.084L374.705 259.461ZM35.7646 253.417L36.3346 253.986L34.0751 256.244L32.9383 255.107L35.1962 252.847L35.7646 253.417ZM370.2 254.706L369.032 255.812L366.78 253.435L367.364 252.882L367.947 252.329L370.2 254.706ZM40.8521 249.467L38.5925 251.726L37.4557 250.589L39.7152 248.33L40.8521 249.467ZM365.695 249.95L365.111 250.505L364.527 251.057L362.275 248.678L362.858 248.126L363.442 247.573L365.695 249.95ZM45.3695 244.949L43.11 247.209L41.9732 246.072L44.2327 243.812L45.3695 244.949ZM361.188 245.196L360.606 245.748L360.022 246.301L357.77 243.924L358.353 243.371L358.937 242.818L361.188 245.196ZM49.8869 240.432L47.6274 242.691L46.4906 241.554L48.7501 239.295L49.8869 240.432ZM356.684 240.44L356.101 240.994L355.517 241.547L353.264 239.168L354.432 238.062L356.684 240.44ZM54.4044 235.914L52.1449 238.174L51.0081 237.037L53.2676 234.778L54.4044 235.914ZM352.179 235.685L351.595 236.238L351.012 236.79L348.759 234.413L349.927 233.308L352.179 235.685ZM58.9218 231.397L56.6623 233.656L55.5255 232.52L57.785 230.26L58.9218 231.397ZM116.757 229.7V232.926H115.149V229.7H116.757ZM347.674 230.929L347.09 231.482L346.507 232.036L344.254 229.657L344.838 229.104L345.421 228.552L347.674 230.929ZM63.4393 226.879L61.1813 229.139L60.6129 228.569L60.0429 228.001L62.3024 225.743L63.4393 226.879ZM343.169 226.174L342.001 227.28L339.749 224.903L340.333 224.35L340.916 223.797L343.169 226.174ZM116.757 223.246V226.473H115.149V223.246H116.757ZM67.9567 222.362L65.6988 224.62L64.562 223.483L66.8199 221.225L67.9567 222.362ZM338.664 221.418L338.08 221.971L337.496 222.525L335.244 220.146L335.827 219.594L336.411 219.041L338.664 221.418ZM72.4742 217.845L70.2162 220.102L69.0794 218.966L71.3373 216.708L72.4742 217.845ZM334.159 216.664L332.991 217.769L330.739 215.392L331.906 214.285L334.159 216.664ZM76.9916 213.327L74.7337 215.585L73.5968 214.448L75.8548 212.19L76.9916 213.327ZM329.653 211.908L329.07 212.46L328.486 213.013L326.233 210.636L327.401 209.53L329.653 211.908ZM80.9406 208.241L81.5106 208.81L79.2511 211.068L78.1143 209.931L80.3722 207.671L80.9406 208.241ZM325.148 207.153L324.564 207.706L323.981 208.259L321.728 205.881L322.312 205.329L322.896 204.774L325.148 207.153ZM86.028 204.291L83.7685 206.55L82.6317 205.413L84.8912 203.154L86.028 204.291ZM320.643 202.397L320.059 202.95L319.476 203.502L317.223 201.125L317.807 200.572L318.39 200.02L320.643 202.397ZM90.5455 199.773L88.286 202.033L87.1492 200.896L89.4087 198.636L90.5455 199.773ZM316.138 197.642L314.97 198.748L312.718 196.371L313.885 195.264L316.138 197.642ZM95.0629 195.256L92.8034 197.515L91.6666 196.378L93.9261 194.119L95.0629 195.256ZM311.633 192.886L310.465 193.992L308.213 191.615L308.796 191.062L309.38 190.509L311.633 192.886ZM99.5804 190.738L97.3209 192.998L96.1841 191.861L98.4436 189.602L99.5804 190.738ZM307.128 188.132L305.96 189.237L303.708 186.86L304.291 186.306L304.875 185.753L307.128 188.132ZM104.098 186.221L101.838 188.48L100.701 187.344L102.961 185.084L104.098 186.221ZM302.622 183.376L302.039 183.928L301.455 184.481L299.202 182.104L300.37 180.998L302.622 183.376ZM108.615 181.703L106.357 183.963L105.789 183.393L105.219 182.825L107.478 180.567L108.615 181.703ZM298.117 178.621L297.534 179.174L296.95 179.727L294.697 177.349L295.281 176.795L295.865 176.242L298.117 178.621ZM113.133 177.186L110.875 179.444L109.738 178.307L111.996 176.049L113.133 177.186ZM117.407 172.425H117.567V172.585L117.65 172.669L117.567 172.752V173.706L117.65 173.79L117.567 173.873V174.033H117.407L116.757 174.683V174.843H116.597L116.513 174.926L116.43 174.843H115.475L115.392 174.926L115.309 174.843H115.149V174.683L114.255 173.79L116.513 171.532L117.407 172.425ZM122.168 168.151L119.91 170.409L118.773 169.272L121.031 167.014L122.168 168.151ZM289.107 169.109L287.941 170.216L285.687 167.837L286.271 167.284L286.854 166.732L289.107 169.109ZM126.117 163.065L126.687 163.634L124.427 165.892L123.29 164.755L125.548 162.495L126.117 163.065ZM284.602 164.354L283.434 165.46L281.182 163.083L281.765 162.53L282.349 161.977L284.602 164.354ZM131.204 159.115L128.945 161.374L127.808 160.237L130.067 157.978L131.204 159.115ZM280.097 159.598L279.513 160.153L278.929 160.705L276.678 158.326L277.26 157.774L277.844 157.221L280.097 159.598ZM135.721 154.597L133.462 156.857L132.325 155.72L134.585 153.46L135.721 154.597ZM275.591 154.844L275.008 155.396L274.424 155.949L272.171 153.572L273.339 152.466L275.591 154.844ZM140.239 150.08L137.979 152.339L136.843 151.202L139.102 148.943L140.239 150.08ZM271.086 150.088L270.504 150.642L269.92 151.195L267.666 148.816L268.835 147.71L271.086 150.088ZM144.756 145.562L142.497 147.822L141.36 146.685L143.62 144.426L144.756 145.562ZM266.581 145.333L265.997 145.886L265.415 146.439L263.161 144.061L264.33 142.956L266.581 145.333ZM149.274 141.045L147.014 143.304L145.877 142.168L148.137 139.908L149.274 141.045ZM262.076 140.577L261.492 141.13L260.91 141.684L258.657 139.305L259.241 138.752L259.823 138.2L262.076 140.577ZM153.791 136.527L151.533 138.787L150.965 138.217L150.395 137.649L152.654 135.391L153.791 136.527ZM257.572 135.822L256.403 136.928L254.152 134.551L254.734 133.998L255.318 133.445L257.572 135.822ZM158.309 132.01L156.051 134.268L154.914 133.131L157.172 130.873L158.309 132.01ZM253.067 131.066L252.483 131.619L251.898 132.173L249.647 129.794L250.229 129.242L250.813 128.689L253.067 131.066ZM162.826 127.493L160.568 129.751L159.431 128.614L161.689 126.356L162.826 127.493ZM248.56 126.312L247.978 126.864L247.394 127.417L245.14 125.04L245.724 124.487L246.309 123.933L248.56 126.312ZM167.344 122.975L165.086 125.233L163.949 124.096L166.207 121.838L167.344 122.975ZM244.055 121.556L243.473 122.108L242.889 122.661L240.635 120.284L241.804 119.178L244.055 121.556ZM171.293 117.889L171.863 118.458L169.603 120.716L168.466 119.579L170.724 117.319L171.293 117.889ZM239.55 116.801L238.966 117.354L238.384 117.907L236.131 115.529L236.715 114.977L237.299 114.422L239.55 116.801ZM176.38 113.939L174.121 116.198L172.984 115.061L175.243 112.802L176.38 113.939ZM235.046 112.045L234.461 112.598L233.879 113.15L231.626 110.773L232.21 110.22L232.792 109.668L235.046 112.045ZM180.897 109.421L178.638 111.681L177.501 110.544L179.761 108.284L180.897 109.421ZM230.541 107.29L229.372 108.396L227.121 106.019L228.287 104.912L230.541 107.29ZM185.415 104.904L183.155 107.163L182.019 106.026L184.278 103.767L185.415 104.904ZM226.036 102.534L224.868 103.64L222.616 101.263L223.198 100.71L223.783 100.157L226.036 102.534ZM189.932 100.386L187.673 102.646L186.536 101.509L188.796 99.2495L189.932 100.386ZM221.529 97.7798L220.947 98.3325L220.363 98.8852L218.111 96.508L218.694 95.9537L219.278 95.401L221.529 97.7798ZM194.45 95.8689L192.19 98.1284L191.053 96.9916L193.313 94.7321L194.45 95.8689ZM217.024 93.0237L216.442 93.5764L215.858 94.1291L213.605 91.7519L214.773 90.6464L217.024 93.0237ZM198.967 91.3515L196.709 93.611L196.141 93.041L195.571 92.4726L197.83 90.2146L198.967 91.3515ZM212.52 88.2692L211.935 88.8219L211.353 89.3746L209.1 86.9973L209.684 86.443L210.268 85.8903L212.52 88.2692ZM203.485 86.834L201.227 89.092L200.09 87.9551L202.348 85.6972L203.485 86.834Z" fill="white"/>
<path fill-rule="evenodd" clip-rule="evenodd" d="M116.757 178.07V181.297H115.149V178.07H116.757ZM116.757 184.524V187.75H115.149V184.524H116.757ZM116.757 210.337V213.564H115.149V210.337H116.757ZM116.757 216.791V220.019H115.149V216.791H116.757ZM116.757 262.777V261.967H115.149V262.777H114.339V264.385H115.149V265.198H116.757V264.385H117.567V262.777H116.757ZM116.757 242.606V245.833H115.149V242.606H116.757ZM116.757 194.204V190.977H115.149V194.204H116.757ZM116.757 203.884V207.111H115.149V203.884H116.757ZM116.757 258.74V255.513H115.149V258.74H116.757ZM116.757 200.657V197.43H115.149V200.657H116.757ZM116.757 236.153V239.38H115.149V236.153H116.757Z" fill="white"/>
<path fill-rule="evenodd" clip-rule="evenodd" d="M158.309 214.448L157.172 215.585L154.914 213.327L156.051 212.19L158.309 214.448ZM207.109 242.606V245.833H205.501V242.606H207.109ZM207.109 278.132V274.899H205.501V278.132H207.109ZM207.109 281.367V284.6H205.501V281.367H207.109ZM189.932 246.072L188.796 247.209L186.536 244.949L187.673 243.812L189.932 246.072ZM193.313 251.726L194.45 250.589L192.19 248.33L191.053 249.467L193.313 251.726ZM207.109 200.657V197.43H205.501V200.657H207.109ZM275.008 191.062L275.591 191.615L273.339 193.992L272.171 192.886L274.424 190.509L275.008 191.062ZM280.097 186.86L279.513 186.306L278.929 185.753L276.678 188.132L277.26 188.685L277.844 189.237L280.097 186.86ZM282.349 184.481L284.602 182.104L283.434 180.998L281.182 183.376L281.765 183.928L282.349 184.481ZM252.483 214.839L253.067 215.392L250.813 217.769L250.229 217.216L249.647 216.664L251.898 214.285L252.483 214.839ZM270.504 195.816L271.086 196.371L268.835 198.748L267.666 197.642L269.92 195.264L270.504 195.816ZM207.109 236.153V239.38H205.501V236.153H207.109ZM190.758 281.453L190.171 280.905L189.582 280.357L187.431 282.667L188.02 283.215L188.607 283.763L190.758 281.453ZM203.667 267.593L203.078 267.047L202.489 266.499L200.338 268.808L200.927 269.356L201.516 269.903L203.667 267.593ZM116.757 281.367V284.6H115.149V281.367H116.757ZM173.549 299.931L172.96 299.383L172.373 298.835L170.222 301.145L170.809 301.693L171.398 302.241L173.549 299.931ZM207.109 255.513V258.74H205.501V255.513H207.109ZM199.365 272.212L198.776 271.666L198.187 271.118L196.036 273.428L197.212 274.522L199.365 272.212ZM206.982 261.967H207.109V262.086L207.431 262.392L207.837 262.777H207.95V262.884L208.015 262.945L207.95 263.013V264.231L207.977 264.263L207.95 264.285V264.385H207.837L207.109 265.027V265.198H206.917L206.773 265.326L206.66 265.198H205.896L205.818 265.283L205.727 265.198H205.501V264.988L204.852 264.385H204.691V264.234L204.64 264.189L204.691 264.134V263.104L204.607 263.021L204.691 262.937V262.777H204.851L205.501 262.127V261.967H205.661L205.744 261.884L205.827 261.967H206.727L206.848 261.84L206.982 261.967ZM217.024 253.435L216.442 252.882L215.858 252.329L213.605 254.706L214.773 255.812L217.024 253.435ZM116.757 300.768V304.003H115.149V300.768H116.757ZM203.485 259.624L202.348 260.761L200.09 258.503L201.227 257.366L203.485 259.624ZM116.757 278.132V274.899H115.149V278.132H116.757ZM130.524 346.126L129.935 345.578L129.348 345.03L127.197 347.34L127.784 347.888L128.373 348.436L130.524 346.126ZM125.633 350.198L126.222 350.746L124.071 353.055L122.893 351.959L125.046 349.65L125.633 350.198ZM194.473 276.286L195.061 276.834L192.909 279.143L192.322 278.595L191.733 278.047L193.885 275.738L194.473 276.286ZM116.757 355.74V352.507H115.149V355.74H116.757ZM160.642 313.79L158.491 316.099L157.313 315.003L159.464 312.694L160.642 313.79ZM207.109 268.431V271.666H205.501V268.431H207.109ZM116.757 349.274V346.04H115.149V349.274H116.757ZM201.464 262.777V264.385H198.237V262.777H201.464ZM121.919 355.365L119.768 357.675L118.591 356.579L120.742 354.269L121.919 355.365ZM195.01 264.385V262.777H191.784V264.385H195.01ZM265.997 200.572L266.581 201.125L264.33 203.502L263.161 202.397L265.415 200.02L265.997 200.572ZM152.036 323.029L151.449 322.481L150.86 321.933L148.709 324.242L149.297 324.79L149.885 325.338L152.036 323.029ZM188.557 262.777V264.385H185.33V262.777H188.557ZM182.103 262.777V264.385H178.877V262.777H182.103ZM169.196 264.385V262.777H165.97V264.385H169.196ZM261.492 205.329L262.076 205.881L259.823 208.259L259.241 207.706L258.657 207.153L260.91 204.774L261.492 205.329ZM116.757 329.871V326.638H115.149V329.871H116.757ZM149.834 262.777V264.385H146.608V262.777H149.834ZM143.381 262.777V264.385H140.154V262.777H143.381ZM207.109 252.287V249.06H205.501V252.287H207.109ZM257.572 210.636L255.318 213.013L254.734 212.46L254.152 211.908L256.403 209.53L257.572 210.636ZM124.02 264.385V262.777H120.794V264.385H124.02ZM116.757 268.431V271.666H115.149V268.431H116.757ZM156.288 262.777V264.385H153.061V262.777H156.288ZM116.757 297.535V294.3H115.149V297.535H116.757ZM116.757 310.47V307.236H115.149V310.47H116.757ZM116.757 291.067V287.834H115.149V291.067H116.757ZM136.927 264.385V262.777H133.701V264.385H136.927ZM198.967 255.107L197.83 256.244L195.571 253.986L196.141 253.417L196.709 252.847L198.967 255.107ZM130.474 264.385V262.777H127.247V264.385H130.474ZM175.65 264.385V262.777H172.423V264.385H175.65ZM211.935 257.636L212.52 258.189L210.268 260.568L209.684 260.015L209.1 259.461L211.353 257.084L211.935 257.636ZM116.757 336.339V333.106H115.149V336.339H116.757ZM162.743 264.385V262.777H159.515V264.385H162.743ZM116.757 339.572V342.807H115.149V339.572H116.757Z" fill="#010101"/>
<path fill-rule="evenodd" clip-rule="evenodd" d="M116.757 252.287V249.06H115.149V252.287H116.757Z" fill="white"/>
<path fill-rule="evenodd" clip-rule="evenodd" d="M207.109 291.067V287.834H205.501V291.067H207.109Z" fill="#010101"/>
<path fill-rule="evenodd" clip-rule="evenodd" d="M207.109 297.535V294.3H205.501V297.535H207.109ZM207.109 304.003V300.768H205.501V304.003H207.109ZM207.109 310.47V307.236H205.501V310.47H207.109Z" fill="#010101"/>
<path fill-rule="evenodd" clip-rule="evenodd" d="M207.109 316.936V313.703H205.501V316.936H207.109ZM207.109 320.171V323.404H205.501V320.171H207.109ZM207.109 326.638V329.871H205.501V326.638H207.109ZM207.109 336.339V333.106H205.501V336.339H207.109ZM207.109 339.572V342.807H205.501V339.572H207.109ZM207.109 349.274V346.04H205.501V349.274H207.109Z" fill="#010101"/>
<path fill-rule="evenodd" clip-rule="evenodd" d="M207.109 359.788V358.975H205.501V359.788H204.691V361.396H205.501V362.208H207.109V361.396H207.95V359.788H207.109ZM207.109 365.443V368.676H205.501V365.443H207.109ZM207.109 375.143V371.91H205.501V375.143H207.109ZM207.109 381.611V378.376H205.501V381.611H207.109ZM207.109 388.078V384.844H205.501V388.078H207.109ZM207.109 404.247V407.48H205.501V404.247H207.109ZM207.109 397.779V401.012H205.501V397.779H207.109ZM207.109 391.312V394.545H205.501V391.312H207.109Z" fill="#010101"/>
<path fill-rule="evenodd" clip-rule="evenodd" d="M236.73 299.279L237.936 298.215L235.796 295.79L235.195 296.323L234.592 296.853L236.73 299.279ZM254.453 318.15L255.056 317.618L252.916 315.192L251.71 316.256L253.85 318.681L254.453 318.15ZM258.131 323.533L259.336 322.468L257.196 320.044L256.593 320.574L255.99 321.107L258.131 323.533Z" fill="white"/>
<path fill-rule="evenodd" clip-rule="evenodd" d="M211.654 269.644L212.257 269.113L210.117 266.687L208.911 267.752L211.051 270.176L211.654 269.644ZM220.816 278.814L220.215 279.346L219.612 279.877L217.472 277.452L218.678 276.388L220.816 278.814ZM225.097 283.664L223.891 284.728L221.751 282.303L222.957 281.238L225.097 283.664ZM242.217 303.067L241.614 303.597L241.011 304.13L238.871 301.705L240.076 300.641L242.217 303.067ZM250.776 312.767L249.571 313.83L247.431 311.406L248.637 310.341L250.776 312.767ZM229.377 288.514L228.171 289.579L226.031 287.153L226.634 286.621L227.237 286.09L229.377 288.514ZM246.497 307.917L245.894 308.448L245.291 308.98L243.151 306.556L244.357 305.491L246.497 307.917ZM233.657 293.365L232.452 294.429L230.311 292.003L230.914 291.471L231.517 290.94L233.657 293.365Z" fill="white"/>
<path fill-rule="evenodd" clip-rule="evenodd" d="M207.109 184.524V187.75H205.501V184.524H207.109ZM207.109 190.977V194.204H205.501V190.977H207.109ZM207.109 213.564V210.337H205.501V213.564H207.109ZM207.109 216.791V220.019H205.501V216.791H207.109ZM247.978 219.594L248.56 220.146L246.309 222.525L245.724 221.971L245.14 221.418L247.394 219.041L247.978 219.594ZM234.461 233.861L235.046 234.413L232.792 236.79L232.21 236.238L231.626 235.685L233.879 233.308L234.461 233.861ZM228.287 241.547L230.541 239.168L229.372 238.062L227.121 240.44L228.287 241.547ZM223.783 246.301L226.036 243.924L224.868 242.818L222.616 245.196L223.198 245.748L223.783 246.301ZM239.55 229.657L238.966 229.104L238.384 228.552L236.131 230.929L236.715 231.482L237.299 232.036L239.55 229.657ZM207.109 229.7V232.926H205.501V229.7H207.109ZM207.109 226.473V223.246H205.501V226.473H207.109ZM244.055 224.903L243.473 224.35L242.889 223.797L240.635 226.174L241.804 227.28L244.055 224.903ZM207.109 203.884V207.111H205.501V203.884H207.109Z" fill="#010101"/>
<path fill-rule="evenodd" clip-rule="evenodd" d="M184.278 242.691L185.415 241.554L183.155 239.295L182.019 240.432L184.278 242.691Z" fill="white"/>
<path fill-rule="evenodd" clip-rule="evenodd" d="M185.415 241.554L184.278 242.691L182.019 240.432L183.155 239.295L185.415 241.554Z" fill="white"/>
<path fill-rule="evenodd" clip-rule="evenodd" d="M180.897 237.037L179.761 238.174L177.501 235.914L178.638 234.778L180.897 237.037Z" fill="#010101"/>
<path fill-rule="evenodd" clip-rule="evenodd" d="M122.168 178.307L121.031 179.444L118.773 177.186L119.91 176.049L122.168 178.307ZM131.204 187.344L130.067 188.48L127.808 186.221L128.945 185.084L131.204 187.344ZM134.585 192.998L135.721 191.861L133.462 189.602L132.325 190.738L134.585 192.998ZM148.137 206.55L149.274 205.413L147.014 203.154L145.877 204.291L148.137 206.55ZM143.62 202.033L144.756 200.896L142.497 198.636L141.36 199.773L143.62 202.033ZM161.689 220.102L162.826 218.966L160.568 216.708L159.431 217.845L161.689 220.102ZM167.344 223.483L166.207 224.62L163.949 222.362L165.086 221.225L167.344 223.483ZM126.117 183.393L126.687 182.825L124.427 180.567L123.29 181.703L125.548 183.963L126.117 183.393ZM140.239 196.378L139.102 197.515L136.843 195.256L137.979 194.119L140.239 196.378ZM175.243 233.656L176.38 232.52L174.121 230.26L172.984 231.397L175.243 233.656ZM171.293 228.569L171.863 228.001L169.603 225.743L168.466 226.879L170.724 229.139L171.293 228.569ZM152.654 211.068L153.791 209.931L151.533 207.671L150.965 208.241L150.395 208.81L152.654 211.068Z" fill="#010101"/>
<path fill-rule="evenodd" clip-rule="evenodd" d="M186.456 286.073L185.869 285.525L185.28 284.977L183.129 287.286L183.718 287.834L184.305 288.382L186.456 286.073ZM182.154 290.692L181.565 290.144L180.978 289.596L178.826 291.906L179.414 292.454L180.002 293.002L182.154 290.692ZM169.247 304.551L168.658 304.003L168.071 303.455L165.918 305.764L167.095 306.86L169.247 304.551ZM162.793 311.48L164.944 309.17L163.767 308.074L161.616 310.384L162.793 311.48ZM156.34 318.409L154.187 320.719L153.6 320.171L153.011 319.623L155.162 317.313L156.34 318.409ZM177.851 295.312L177.262 294.764L176.675 294.216L174.524 296.525L175.111 297.073L175.7 297.621L177.851 295.312ZM147.733 327.648L147.146 327.1L146.557 326.552L144.406 328.862L144.995 329.41L145.582 329.958L147.733 327.648Z" fill="#010101"/>
<path fill-rule="evenodd" clip-rule="evenodd" d="M142.844 331.72L143.431 332.268L141.28 334.577L140.693 334.029L140.104 333.481L142.255 331.172L142.844 331.72ZM134.238 340.959L134.826 341.507L132.675 343.816L132.086 343.268L131.499 342.72L133.65 340.411L134.238 340.959ZM138.54 336.339L139.129 336.887L136.978 339.197L136.389 338.649L135.802 338.101L137.953 335.791L138.54 336.339Z" fill="#010101"/>
<path fill-rule="evenodd" clip-rule="evenodd" d="M116.757 316.936V313.703H115.149V316.936H116.757ZM116.757 323.404V320.171H115.149V323.404H116.757Z" fill="#010101"/>
<path fill-rule="evenodd" clip-rule="evenodd" d="M207.109 413.947V410.714H205.501V413.947H207.109ZM207.109 417.18V420.415H205.501V417.18H207.109ZM207.109 426.883V423.648H205.501V426.883H207.109Z" fill="#010101"/>
<path fill-rule="evenodd" clip-rule="evenodd" d="M207.109 433.35V430.116H205.501V433.35H207.109ZM207.109 436.583V439.816H205.501V436.583H207.109ZM207.109 443.051V446.284H205.501V443.051H207.109ZM207.109 449.519V452.752H205.501V449.519H207.109Z" fill="#010101"/>
<path fill-rule="evenodd" clip-rule="evenodd" d="M207.109 352.507V355.74H205.501V352.507H207.109ZM162.743 359.788V361.396H159.515V359.788H162.743ZM195.01 361.396V359.788H191.784V361.396H195.01ZM182.103 361.396V359.788H178.877V361.396H182.103ZM201.464 359.788V361.396H198.237V359.788H201.464ZM188.557 361.396V359.788H185.33V361.396H188.557Z" fill="#010101"/>
<path fill-rule="evenodd" clip-rule="evenodd" d="M136.927 359.788V361.396H133.701V359.788H136.927ZM143.381 361.396V359.788H140.154V361.396H143.381ZM156.288 359.788V361.396H153.061V359.788H156.288ZM149.834 361.396V359.788H146.608V361.396H149.834ZM175.65 359.788V361.396H172.423V359.788H175.65ZM169.196 361.396V359.788H165.97V361.396H169.196Z" fill="#010101"/>
<path fill-rule="evenodd" clip-rule="evenodd" d="M124.02 359.788V361.396H120.794V359.788H124.02ZM130.474 361.396V359.788H127.247V361.396H130.474Z" fill="#010101"/>
<path fill-rule="evenodd" clip-rule="evenodd" d="M220.947 248.126L221.529 248.678L219.278 251.057L218.694 250.505L218.111 249.95L220.363 247.573L220.947 248.126Z" fill="#010101"/>
<path fill-rule="evenodd" clip-rule="evenodd" d="M300.133 264.385V262.777H296.84V264.385H300.133ZM306.717 262.777V264.385H303.426V262.777H306.717ZM339.639 264.385V262.777H336.346V264.385H339.639ZM346.225 262.777V264.385H342.932V262.777H346.225ZM359.392 264.385V262.777H356.101V264.385H359.392ZM365.978 264.385V262.777H362.685V264.385H365.978ZM313.302 264.385V262.777H310.01V264.385H313.302ZM326.47 262.777V264.385H323.179V262.777H326.47ZM319.886 262.777V264.385H316.593V262.777H319.886ZM280.38 264.385V262.777H277.087V264.385H280.38ZM273.795 262.777V264.385H270.504V262.777H273.795ZM260.626 264.385V262.777H257.334V264.385H260.626ZM333.055 262.777V264.385H329.763V262.777H333.055ZM352.808 264.385V262.777H349.516V264.385H352.808ZM234.289 262.777V264.385H230.996V262.777H234.289ZM267.211 264.385V262.777H263.918V264.385H267.211Z" fill="#010101"/>
<path fill-rule="evenodd" clip-rule="evenodd" d="M292.706 174.722L293.612 173.865L291.359 171.488L290.776 172.04L290.37 172.425H290.257V172.532L290.192 172.593L290.257 172.661V173.796L290.192 173.865L290.257 173.925V174.033H290.37L291.098 174.722V174.843H291.225L291.359 174.97L291.48 174.843H292.325L292.445 174.97L292.579 174.843H292.706V174.722ZM292.706 245.833V242.606H291.098V245.833H292.706ZM292.706 236.153V239.38H291.098V236.153H292.706ZM292.706 258.74V255.513H291.098V258.74H292.706ZM292.706 229.7V232.926H291.098V229.7H292.706ZM292.706 261.967V262.777H293.548V264.385H292.706V265.198H291.098V264.385H290.257V262.777H291.098V261.967H292.706ZM292.706 249.06V252.287H291.098V249.06H292.706Z" fill="#010101"/>
<path fill-rule="evenodd" clip-rule="evenodd" d="M292.706 181.297V178.07H291.098V181.297H292.706ZM292.706 203.884V207.111H291.098V203.884H292.706ZM292.706 220.019V216.791H291.098V220.019H292.706ZM292.706 184.524V187.75H291.098V184.524H292.706ZM292.706 226.473V223.246H291.098V226.473H292.706ZM292.706 210.337V213.564H291.098V210.337H292.706ZM286.964 262.777V264.385H283.671V262.777H286.964Z" fill="#010101"/>
<path fill-rule="evenodd" clip-rule="evenodd" d="M292.706 190.977V194.204H291.098V190.977H292.706ZM292.706 197.43V200.657H291.098V197.43H292.706Z" fill="#010101"/>
<path fill-rule="evenodd" clip-rule="evenodd" d="M292.706 271.666V268.431H291.098V271.666H292.706ZM292.706 278.132V274.899H291.098V278.132H292.706ZM292.706 291.067V287.834H291.098V291.067H292.706ZM292.706 333.106V336.339H291.098V333.106H292.706ZM292.706 342.807V339.572H291.098V342.807H292.706ZM292.706 346.04V349.274H291.098V346.04H292.706ZM292.706 352.507V355.74H291.098V352.507H292.706ZM292.706 326.638V329.871H291.098V326.638H292.706ZM292.706 313.703V316.936H291.098V313.703H292.706ZM292.706 310.47V307.236H291.098V310.47H292.706ZM292.706 294.3V297.535H291.098V294.3H292.706ZM292.706 323.404V320.171H291.098V323.404H292.706ZM292.706 300.768V304.003H291.098V300.768H292.706ZM292.706 284.6V281.367H291.098V284.6H292.706Z" fill="#010101"/>
<path fill-rule="evenodd" clip-rule="evenodd" d="M240.873 262.777V264.385H237.581V262.777H240.873ZM247.458 262.777V264.385H244.165V262.777H247.458ZM254.042 264.385V262.777H250.749V264.385H254.042Z" fill="#010101"/>
<path fill-rule="evenodd" clip-rule="evenodd" d="M214.536 262.777V264.385H211.243V262.777H214.536ZM221.12 264.385V262.777H217.827V264.385H221.12ZM227.705 262.777V264.385H224.412V262.777H227.705Z" fill="#010101"/>
<path fill-rule="evenodd" clip-rule="evenodd" d="M207.109 84.3704L208.015 83.5131L206.32 81.7246L204.607 83.4377L205.501 84.3311V84.4913H205.661L205.744 84.5745L205.827 84.4913H206.727L206.848 84.6185L206.982 84.4913H207.109V84.3704ZM207.109 90.9448V87.718H205.501V90.9448H207.109ZM207.109 139.348V142.574H205.501V139.348H207.109ZM207.109 129.667V126.439H205.501V129.667H207.109ZM207.109 97.3983V94.1715H205.501V97.3983H207.109ZM207.109 132.894V136.121H205.501V132.894H207.109ZM207.109 110.305V107.079H205.501V110.305H207.109ZM207.109 145.801V149.028H205.501V145.801H207.109ZM207.109 123.212V119.985H205.501V123.212H207.109ZM201.464 172.425V174.033H198.237V172.425H201.464ZM207.109 155.481V152.254H205.501V155.481H207.109ZM182.103 172.425V174.033H178.877V172.425H182.103ZM175.65 174.033V172.425H172.423V174.033H175.65ZM207.109 113.532V116.759H205.501V113.532H207.109ZM195.01 174.033V172.425H191.784V174.033H195.01ZM188.557 172.425V174.033H185.33V172.425H188.557ZM207.109 103.852V100.625H205.501V103.852H207.109ZM207.109 178.07V181.297H205.501V178.07H207.109Z" fill="#010101"/>
<path fill-rule="evenodd" clip-rule="evenodd" d="M156.288 172.425V174.033H153.061V172.425H156.288ZM162.743 172.425V174.033H159.515V172.425H162.743ZM169.196 174.033V172.425H165.97V174.033H169.196Z" fill="#010101"/>
<path fill-rule="evenodd" clip-rule="evenodd" d="M124.02 174.033V172.425H120.794V174.033H124.02ZM130.474 174.033V172.425H127.247V174.033H130.474ZM136.927 172.425V174.033H133.701V172.425H136.927ZM143.381 174.033V172.425H140.154V174.033H143.381ZM149.834 174.033V172.425H146.608V174.033H149.834Z" fill="#010101"/>
<path fill-rule="evenodd" clip-rule="evenodd" d="M207.109 171.615V172.425H207.95V174.033H207.109V174.843H205.501V174.033H204.691V172.425H205.501V171.615H207.109ZM214.536 172.425V174.033H211.243V172.425H214.536ZM221.12 174.033V172.425H217.827V174.033H221.12ZM234.289 172.425V174.033H230.996V172.425H234.289ZM240.873 174.033V172.425H237.581V174.033H240.873ZM227.705 174.033V172.425H224.412V174.033H227.705Z" fill="#010101"/>
<path fill-rule="evenodd" clip-rule="evenodd" d="M247.458 172.425V174.033H244.165V172.425H247.458ZM254.042 172.425V174.033H250.749V172.425H254.042ZM260.626 174.033V172.425H257.334V174.033H260.626ZM267.211 172.425V174.033H263.918V172.425H267.211ZM280.38 174.033V172.425H277.087V174.033H280.38ZM286.964 172.425V174.033H283.671V172.425H286.964ZM289.107 177.349L286.854 179.727L286.271 179.174L285.687 178.621L287.941 176.242L289.107 177.349ZM273.795 174.033V172.425H270.504V174.033H273.795Z" fill="#010101"/>
<path fill-rule="evenodd" clip-rule="evenodd" d="M207.109 161.935V158.708H205.501V161.935H207.109ZM207.109 168.388V165.161H205.501V168.388H207.109Z" fill="#010101"/>
<path fill-rule="evenodd" clip-rule="evenodd" d="M254.128 267.044L200.91 348.154L125.367 298.589L254.128 267.044Z" fill="white"/>
<path fill-rule="evenodd" clip-rule="evenodd" d="M254.128 267.044L200.91 348.154L125.367 298.589L254.128 267.044Z" fill="black" fill-opacity="0.2"/>
<path fill-rule="evenodd" clip-rule="evenodd" d="M272.478 395.111L147.692 429.265L200.91 348.154L272.478 395.111Z" fill="white"/>
<path fill-rule="evenodd" clip-rule="evenodd" d="M272.478 395.111L147.692 429.265L200.91 348.154L272.478 395.111Z" fill="white"/>
<path fill-rule="evenodd" clip-rule="evenodd" d="M303.693 191.501L254.128 267.044L228.15 141.936L303.693 191.501Z" fill="#555555"/>
<path fill-rule="evenodd" clip-rule="evenodd" d="M353.258 115.957L375.261 238.458L303.693 191.501L353.258 115.957Z" fill="white"/>
<path fill-rule="evenodd" clip-rule="evenodd" d="M397.264 360.958L272.478 395.111L325.696 314.001L397.264 360.958Z" fill="white"/>
<path fill-rule="evenodd" clip-rule="evenodd" d="M178.585 217.479L103.042 167.914L228.15 141.936L178.585 217.479Z" fill="white"/>
<path fill-rule="evenodd" clip-rule="evenodd" d="M178.585 217.479L103.042 167.914L228.15 141.936L178.585 217.479Z" fill="#555555"/>
<path fill-rule="evenodd" clip-rule="evenodd" d="M254.128 267.044L125.367 298.589L178.585 217.479L254.128 267.044Z" fill="white"/>
<path d="M375.261 238.458L325.696 314.001L397.264 360.958L375.261 238.458Z" fill="#E82910"/>
<path d="M200.91 348.154L125.367 298.589L147.692 429.265L200.91 348.154Z" fill="#E82910"/>
<path d="M200.91 348.154L125.367 298.589L147.692 429.265L200.91 348.154Z" fill="black" fill-opacity="0.2"/>
<path d="M228.15 141.936L303.693 191.501L353.258 115.957L228.15 141.936Z" fill="#E82910"/>
<path d="M228.15 141.936L303.693 191.501L353.258 115.957L228.15 141.936Z" fill="black" fill-opacity="0.2"/>
<path fill-rule="evenodd" clip-rule="evenodd" d="M375.261 238.458L325.696 314.001L254.128 267.044L375.261 238.458Z" fill="white"/>
<path fill-rule="evenodd" clip-rule="evenodd" d="M149.116 428.234L149.276 428.34L149.183 428.481L149.275 428.824L149.487 429.6L147.928 430.027L147.073 430.26L146.657 427.831L147.45 427.696L147.817 427.632L147.931 427.457L148.12 427.582L148.243 427.561L148.262 427.675L148.9 428.093L149.064 428.049L149.116 428.234ZM146.126 424.72L145.594 421.608L147.18 421.338L147.712 424.449L146.126 424.72ZM155.515 427.117L155.728 427.891L152.608 428.745L152.396 427.97L152.183 427.195L155.303 426.341L155.515 427.117ZM145.063 418.497L144.531 415.386L145.324 415.251L146.116 415.115L146.649 418.227L145.063 418.497ZM161.754 425.409L161.967 426.184L158.847 427.038L158.423 425.486L161.542 424.633L161.754 425.409ZM145.584 412.003L144.793 412.139L144 412.275L143.468 409.163L144.261 409.028L145.053 408.892L145.584 412.003ZM167.995 423.701L168.206 424.476L165.087 425.331L164.663 423.779L167.782 422.926L167.995 423.701ZM144.521 405.781L143.73 405.917L142.937 406.052L142.405 402.941L143.198 402.806L143.99 402.67L144.521 405.781ZM174.233 421.993L174.445 422.768L171.325 423.623L170.901 422.071L174.02 421.218L174.233 421.993ZM143.458 399.558L142.667 399.694L141.874 399.828L141.343 396.717L142.135 396.583L142.927 396.447L143.458 399.558ZM180.685 421.061L177.565 421.915L177.14 420.364L180.261 419.51L180.685 421.061ZM142.395 393.336L140.811 393.606L140.28 390.494L141.072 390.358L141.864 390.225L142.395 393.336ZM186.924 419.354L183.805 420.207L183.592 419.432L183.38 418.657L186.5 417.802L186.924 419.354ZM141.332 387.113L140.54 387.247L139.748 387.383L139.217 384.272L140.009 384.136L140.801 384.002L141.332 387.113ZM193.163 417.646L190.043 418.499L189.62 416.949L192.738 416.094L193.163 417.646ZM140.27 380.889L139.477 381.025L138.685 381.161L138.154 378.049L138.946 377.913L139.738 377.778L140.27 380.889ZM199.402 415.939L196.283 416.792L196.071 416.016L195.858 415.241L198.978 414.387L199.402 415.939ZM139.207 374.667L138.414 374.802L137.622 374.938L137.09 371.826L138.675 371.556L139.207 374.667ZM205.43 413.456L205.643 414.23L202.522 415.084L202.31 414.309L202.097 413.534L205.218 412.68L205.43 413.456ZM138.144 368.444L136.558 368.715L136.027 365.603L137.612 365.333L138.144 368.444ZM211.668 411.747L211.881 412.522L208.762 413.377L208.338 411.825L211.457 410.972L211.668 411.747ZM137.081 362.222L135.495 362.492L134.964 359.381L136.549 359.111L137.081 362.222ZM217.908 410.039L218.121 410.815L215 411.669L214.576 410.117L217.695 409.264L217.908 410.039ZM136.018 355.999L134.432 356.27L133.901 353.158L134.694 353.023L135.485 352.887L136.018 355.999ZM224.148 408.332L224.36 409.107L221.24 409.962L220.816 408.41L223.935 407.557L224.148 408.332ZM134.954 349.776L134.162 349.912L133.369 350.047L132.838 346.936L133.63 346.801L134.422 346.665L134.954 349.776ZM230.6 407.4L227.479 408.254L227.055 406.703L230.175 405.849L230.6 407.4ZM133.891 343.553L133.099 343.689L132.306 343.825L131.775 340.713L132.567 340.578L133.359 340.442L133.891 343.553ZM236.838 405.692L233.719 406.545L233.506 405.771L233.295 404.996L236.414 404.14L236.838 405.692ZM132.828 337.331L132.036 337.467L131.243 337.602L130.712 334.491L131.504 334.356L132.296 334.22L132.828 337.331ZM243.078 403.985L239.958 404.838L239.746 404.062L239.533 403.287L242.653 402.433L243.078 403.985ZM131.765 331.108L130.972 331.244L130.18 331.38L129.649 328.268L130.44 328.132L131.233 327.997L131.765 331.108ZM249.317 402.278L246.198 403.131L245.986 402.355L245.773 401.58L248.893 400.726L249.317 402.278ZM130.702 324.886L129.909 325.021L129.117 325.157L128.586 322.046L129.377 321.91L130.17 321.775L130.702 324.886ZM255.343 399.794L255.556 400.568L252.436 401.422L252.225 400.647L252.013 399.872L255.131 399.018L255.343 399.794ZM129.639 318.663L128.846 318.798L128.054 318.935L127.523 315.823L128.314 315.687L129.107 315.552L129.639 318.663ZM261.583 398.086L261.796 398.861L258.676 399.715L258.251 398.164L261.371 397.311L261.583 398.086ZM128.576 312.441L127.783 312.576L126.991 312.712L126.458 309.6L128.044 309.33L128.576 312.441ZM267.823 396.378L268.035 397.154L264.915 398.008L264.491 396.456L267.61 395.603L267.823 396.378ZM127.513 306.218L125.927 306.489L125.395 303.377L126.981 303.107L127.513 306.218ZM273.901 394.082L274.061 394.187L273.969 394.327L274.063 394.671L274.274 395.446L271.155 396.301L270.779 394.929L270.685 394.867L270.74 394.783L270.73 394.749L270.77 394.737L271.483 393.65L271.477 393.611L271.513 393.604L271.567 393.523L271.66 393.584L272.624 393.447L272.717 393.305L272.878 393.411L273.069 393.384L273.092 393.551L273.686 393.94L273.85 393.896L273.901 394.082ZM126.762 297.542L126.95 297.665L126.836 297.838L126.924 298.2L127.047 298.701L127.181 298.789L127.099 298.914L127.115 298.981L127.044 298.998L126.438 299.922L126.45 299.996L126.383 300.006L126.299 300.134L126.164 300.045L124.864 300.266L124.332 297.155L125.125 297.02L125.492 296.956L125.605 296.783L125.793 296.906L125.918 296.884L125.938 297.001L126.618 297.447L126.732 297.419L126.762 297.542ZM208.257 351.984L207.374 353.329L204.621 351.522L205.504 350.178L208.257 351.984ZM213.761 355.596L212.879 356.94L210.126 355.134L211.008 353.79L213.761 355.596ZM219.267 359.209L218.385 360.553L215.632 358.747L216.514 357.402L219.267 359.209ZM224.772 362.82L223.89 364.165L221.137 362.358L222.019 361.014L224.772 362.82ZM230.277 366.432L229.395 367.776L226.643 365.971L227.525 364.627L230.277 366.432ZM235.783 370.045L234.901 371.389L232.148 369.583L233.03 368.238L235.783 370.045ZM241.287 373.656L240.405 375.001L237.652 373.194L238.534 371.85L241.287 373.656ZM246.792 377.268L245.91 378.612L243.158 376.807L244.041 375.463L246.792 377.268ZM252.298 380.881L251.416 382.225L248.663 380.419L249.545 379.074L252.298 380.881ZM257.803 384.492L256.921 385.837L254.169 384.031L255.051 382.687L257.803 384.492ZM263.309 388.105L262.427 389.449L259.674 387.643L260.556 386.299L263.309 388.105ZM268.814 391.717L267.932 393.061L265.179 391.255L266.061 389.91L268.814 391.717ZM125.387 293.773L123.801 294.044L123.269 290.932L124.855 290.662L125.387 293.773ZM272.61 390.181L271.018 390.41L270.559 387.207L272.152 386.979L272.61 390.181ZM280.513 393.738L277.394 394.591L277.181 393.817L276.969 393.041L280.089 392.187L280.513 393.738ZM124.324 287.551L122.738 287.821L122.206 284.71L122.999 284.575L123.791 284.439L124.324 287.551ZM271.692 383.778L270.896 383.892L270.101 384.005L269.641 380.804L271.233 380.575L271.692 383.778ZM286.753 392.031L283.633 392.884L283.42 392.11L283.208 391.334L286.328 390.479L286.753 392.031ZM123.259 281.327L122.468 281.463L121.675 281.598L121.143 278.487L121.936 278.352L122.728 278.216L123.259 281.327ZM270.774 377.374L269.979 377.487L269.183 377.602L268.725 374.401L269.521 374.287L270.316 374.172L270.774 377.374ZM292.992 390.324L289.873 391.177L289.661 390.401L289.448 389.626L292.568 388.772L292.992 390.324ZM122.196 275.105L121.405 275.241L120.612 275.376L120.08 272.265L120.873 272.13L121.665 271.994L122.196 275.105ZM269.857 370.972L269.062 371.085L268.266 371.199L267.807 367.998L269.399 367.769L269.857 370.972ZM299.231 388.616L296.111 389.469L295.687 387.919L298.806 387.064L299.231 388.616ZM121.133 268.882L120.342 269.018L119.549 269.153L119.017 266.042L119.81 265.907L120.602 265.771L121.133 268.882ZM268.94 364.567L267.348 364.795L266.889 361.593L267.685 361.48L268.481 361.366L268.94 364.567ZM305.258 386.133L305.471 386.907L302.351 387.761L301.927 386.21L305.046 385.357L305.258 386.133ZM120.07 262.66L119.277 262.795L118.486 262.931L117.954 259.82L118.746 259.684L119.539 259.548L120.07 262.66ZM268.022 358.163L266.43 358.392L265.973 355.191L267.563 354.962L268.022 358.163ZM311.498 384.425L311.711 385.2L308.59 386.054L308.166 384.503L311.285 383.65L311.498 384.425ZM119.007 256.437L118.214 256.572L117.423 256.708L116.891 253.597L117.683 253.461L118.476 253.326L119.007 256.437ZM267.106 351.761L265.513 351.989L265.055 348.787L265.851 348.673L266.646 348.56L267.106 351.761ZM317.949 383.492L314.829 384.346L314.618 383.571L314.406 382.795L317.525 381.942L317.949 383.492ZM117.944 250.215L117.151 250.35L116.36 250.486L115.828 247.375L116.62 247.239L117.413 247.103L117.944 250.215ZM323.976 381.009L324.188 381.785L321.068 382.639L320.644 381.087L323.763 380.234L323.976 381.009ZM116.881 243.992L116.088 244.127L115.297 244.263L114.764 241.151L116.35 240.881L116.881 243.992ZM330.428 380.077L327.309 380.93L327.096 380.156L326.884 379.38L330.004 378.526L330.428 380.077ZM115.818 237.77L114.232 238.04L113.701 234.929L115.287 234.658L115.818 237.77ZM336.455 377.594L336.666 378.369L333.548 379.223L333.335 378.449L333.123 377.673L336.243 376.818L336.455 377.594ZM114.755 231.547L113.169 231.817L112.638 228.706L114.224 228.436L114.755 231.547ZM342.906 376.662L339.786 377.515L339.574 376.739L339.361 375.965L342.482 375.11L342.906 376.662ZM113.692 225.325L112.106 225.595L111.575 222.484L112.368 222.348L113.159 222.212L113.692 225.325ZM348.933 374.179L349.146 374.953L346.026 375.808L345.814 375.032L345.601 374.257L348.721 373.403L348.933 374.179ZM112.628 219.101L111.836 219.237L111.043 219.372L110.512 216.261L111.305 216.126L112.096 215.99L112.628 219.101ZM355.173 372.472L355.386 373.246L352.266 374.1L351.841 372.549L354.961 371.696L355.173 372.472ZM111.565 212.879L110.773 213.015L109.98 213.15L109.449 210.039L110.242 209.903L111.033 209.767L111.565 212.879ZM361.412 370.762L361.624 371.538L358.504 372.392L358.293 371.617L358.081 370.842L361.199 369.988L361.412 370.762ZM110.502 206.656L109.71 206.792L108.917 206.927L108.386 203.816L109.179 203.681L109.97 203.545L110.502 206.656ZM367.652 369.055L367.864 369.831L364.743 370.685L364.319 369.133L367.439 368.28L367.652 369.055ZM109.439 200.434L108.646 200.569L107.854 200.705L107.323 197.594L108.114 197.457L108.907 197.322L109.439 200.434ZM374.103 368.124L370.983 368.978L370.559 367.426L373.679 366.572L374.103 368.124ZM108.376 194.211L107.583 194.346L106.791 194.482L106.26 191.371L107.051 191.235L107.844 191.1L108.376 194.211ZM380.129 365.64L380.342 366.415L377.223 367.269L377.01 366.495L376.798 365.719L379.919 364.865L380.129 365.64ZM107.313 187.989L106.52 188.124L105.728 188.26L105.197 185.148L105.988 185.012L106.781 184.877L107.313 187.989ZM257.012 281.324L256.216 281.438L255.421 281.551L254.961 278.35L256.554 278.122L257.012 281.324ZM386.581 364.708L383.462 365.561L383.249 364.787L383.037 364.011L386.157 363.157L386.581 364.708ZM106.25 181.766L105.457 181.901L104.665 182.037L104.132 178.925L105.718 178.655L106.25 181.766ZM392.821 363.001L389.701 363.854L389.489 363.078L389.276 362.304L392.396 361.449L392.821 363.001ZM105.187 175.543L104.394 175.679L103.602 175.812L103.07 172.701L103.862 172.567L104.655 172.432L105.187 175.543ZM398.209 361.526L395.941 362.147L395.565 360.775L395.471 360.713L395.526 360.629L395.516 360.596L395.555 360.585L396.224 359.566L396.207 359.474L396.294 359.458L396.353 359.369L396.447 359.431L397.79 359.191L398.209 361.526ZM104.722 168.025L104.856 168.113L104.768 168.247L104.792 168.362L104.677 168.386L104.112 169.247L104.124 169.321L104.057 169.331L103.974 169.457L103.84 169.37L102.539 169.59L102.272 168.035L102.143 167.27L104.465 166.788L104.722 168.025ZM110.252 171.653L109.37 172.998L106.672 171.228L107.554 169.883L110.252 171.653ZM115.648 175.194L114.766 176.538L112.068 174.768L112.95 173.424L115.648 175.194ZM121.043 178.734L120.161 180.078L117.463 178.308L118.345 176.964L121.043 178.734ZM126.439 182.274L125.557 183.618L122.859 181.848L123.741 180.504L126.439 182.274ZM131.835 185.814L130.953 187.159L128.255 185.389L129.137 184.044L131.835 185.814ZM137.231 189.355L136.349 190.699L133.651 188.929L134.533 187.584L137.231 189.355ZM142.628 192.896L141.746 194.24L139.046 192.469L139.928 191.125L142.628 192.896ZM148.023 196.436L147.141 197.78L144.443 196.01L145.326 194.666L148.023 196.436ZM153.419 199.976L152.537 201.321L149.839 199.55L150.721 198.206L153.419 199.976ZM158.815 203.516L157.933 204.861L155.235 203.091L156.117 201.746L158.815 203.516ZM164.211 207.057L163.329 208.401L160.631 206.631L161.513 205.287L164.211 207.057ZM169.606 210.597L168.724 211.941L166.027 210.171L166.909 208.827L169.606 210.597ZM175.002 214.137L174.12 215.482L171.422 213.711L172.304 212.367L175.002 214.137ZM393.6 357.563L392.718 358.907L389.965 357.101L390.847 355.756L393.6 357.563ZM111.047 167.063L107.921 167.713L107.594 166.138L110.72 165.489L111.047 167.063ZM397.211 355.966L395.628 356.251L395.05 353.026L395.841 352.885L396.631 352.742L397.211 355.966ZM117.139 164.977L117.304 165.765L114.176 166.414L113.849 164.84L116.977 164.189L117.139 164.977ZM396.053 349.519L394.47 349.803L393.891 346.58L394.683 346.438L395.473 346.296L396.053 349.519ZM123.56 164.465L120.431 165.115L120.104 163.541L123.233 162.891L123.56 164.465ZM394.895 343.071L394.103 343.214L393.311 343.356L392.734 340.132L393.524 339.989L394.316 339.848L394.895 343.071ZM129.815 163.166L126.686 163.816L126.36 162.242L129.488 161.592L129.815 163.166ZM393.736 336.624L392.946 336.766L392.154 336.908L391.576 333.685L392.366 333.543L393.157 333.401L393.736 336.624ZM136.07 161.868L132.942 162.517L132.615 160.943L135.743 160.293L136.07 161.868ZM392.578 330.176L391.787 330.32L390.996 330.462L390.417 327.237L392 326.953L392.578 330.176ZM142.325 160.569L139.197 161.218L138.87 159.644L141.999 158.995L142.325 160.569ZM391.42 323.73L390.629 323.871L389.838 324.014L389.258 320.79L390.842 320.507L391.42 323.73ZM148.581 159.27L145.452 159.919L145.125 158.345L148.254 157.696L148.581 159.27ZM197.868 189.578L196.097 192.275L194.753 191.393L196.523 188.696L197.868 189.578ZM390.263 317.282L389.471 317.423L388.68 317.567L388.101 314.342L388.893 314.201L389.683 314.058L390.263 317.282ZM154.836 157.971L151.709 158.621L151.546 157.833L151.381 157.045L154.509 156.397L154.836 157.971ZM389.104 310.835L387.521 311.119L386.943 307.896L387.734 307.754L388.525 307.611L389.104 310.835ZM201.408 184.182L199.638 186.88L198.293 185.998L200.063 183.3L201.408 184.182ZM161.091 156.672L157.965 157.321L157.638 155.747L160.764 155.098L161.091 156.672ZM387.947 304.387L387.155 304.529L386.363 304.672L385.785 301.448L386.576 301.305L387.367 301.164L387.947 304.387ZM167.346 155.373L164.22 156.022L163.893 154.448L167.019 153.799L167.346 155.373ZM386.789 297.941L385.206 298.224L384.627 295.001L386.21 294.716L386.789 297.941ZM173.601 154.074L170.475 154.724L170.148 153.149L173.275 152.5L173.601 154.074ZM385.63 291.492L384.84 291.635L384.048 291.776L383.468 288.553L385.051 288.269L385.63 291.492ZM179.693 151.988L179.858 152.776L176.73 153.425L176.403 151.851L179.531 151.2L179.693 151.988ZM384.472 285.045L383.68 285.187L382.89 285.33L382.31 282.106L383.102 281.964L383.894 281.821L384.472 285.045ZM186.114 151.476L182.985 152.126L182.659 150.552L185.787 149.902L186.114 151.476ZM383.314 278.598L382.523 278.739L381.732 278.882L381.153 275.658L381.944 275.516L382.734 275.374L383.314 278.598ZM192.369 150.177L189.241 150.827L188.914 149.253L192.042 148.603L192.369 150.177ZM382.156 272.151L380.573 272.434L379.994 269.212L381.577 268.926L382.156 272.151ZM198.624 148.878L195.496 149.528L195.169 147.954L198.298 147.304L198.624 148.878ZM380.999 265.703L379.415 265.987L378.837 262.764L379.627 262.621L380.419 262.479L380.999 265.703ZM204.88 147.58L201.751 148.229L201.424 146.655L204.553 146.006L204.88 147.58ZM379.84 259.257L378.257 259.54L377.679 256.317L378.47 256.173L379.261 256.032L379.84 259.257ZM211.135 146.281L208.006 146.93L207.679 145.356L210.808 144.707L211.135 146.281ZM378.681 252.808L377.891 252.95L377.1 253.092L376.52 249.868L378.103 249.585L378.681 252.808ZM217.39 144.982L214.263 145.632L214.1 144.844L213.935 144.056L217.063 143.408L217.39 144.982ZM377.523 246.361L376.733 246.504L375.941 246.646L375.362 243.422L376.154 243.279L376.946 243.137L377.523 246.361ZM223.645 143.683L220.519 144.332L220.192 142.758L223.318 142.109L223.645 143.683ZM229.83 142.047L229.964 142.135L229.877 142.269L229.9 142.384L229.785 142.408L229.262 143.206L229.285 143.322L229.17 143.345L229.082 143.479L228.948 143.392L228.048 143.578L227.96 143.712L227.827 143.624L227.711 143.648L227.687 143.533L226.889 143.009L226.774 143.033L226.75 142.918L226.616 142.83L226.704 142.696L226.447 141.459L229.574 140.81L229.83 142.047ZM236.156 141.085L233.029 141.735L232.702 140.16L235.829 139.511L236.156 141.085ZM375.208 233.466L373.626 233.751L373.047 230.526L373.838 230.384L374.629 230.242L375.208 233.466ZM242.247 138.999L242.412 139.787L239.284 140.436L238.958 138.862L242.085 138.211L242.247 138.999ZM374.05 227.019L372.467 227.302L371.888 224.08L372.679 223.937L373.47 223.795L374.05 227.019ZM248.668 138.487L245.54 139.137L245.213 137.563L248.341 136.913L248.668 138.487ZM372.893 220.571L372.1 220.714L371.309 220.856L370.731 217.632L371.521 217.489L372.313 217.348L372.893 220.571ZM254.923 137.188L251.795 137.838L251.468 136.264L254.597 135.614L254.923 137.188ZM371.733 214.124L370.943 214.266L370.151 214.408L369.571 211.184L371.155 210.901L371.733 214.124ZM261.179 135.889L258.05 136.539L257.723 134.965L260.852 134.315L261.179 135.889ZM370.576 207.676L369.784 207.82L368.993 207.962L368.414 204.736L369.997 204.453L370.576 207.676ZM267.434 134.591L264.305 135.24L263.978 133.666L267.107 133.016L267.434 134.591ZM369.417 201.229L368.626 201.371L367.835 201.514L367.256 198.29L368.839 198.007L369.417 201.229ZM273.689 133.292L270.56 133.941L270.234 132.367L273.362 131.718L273.689 133.292ZM368.26 194.782L367.468 194.923L366.677 195.067L366.098 191.842L366.89 191.7L367.68 191.558L368.26 194.782ZM279.944 131.993L276.817 132.643L276.654 131.855L276.49 131.067L279.617 130.419L279.944 131.993ZM367.102 188.335L365.518 188.618L364.94 185.396L365.73 185.253L366.522 185.111L367.102 188.335ZM286.199 130.694L283.073 131.343L282.746 129.769L285.873 129.12L286.199 130.694ZM365.944 181.887L365.153 182.029L364.36 182.172L363.783 178.948L364.573 178.805L365.364 178.663L365.944 181.887ZM292.455 129.395L289.328 130.044L289.001 128.47L292.128 127.821L292.455 129.395ZM364.785 175.44L363.994 175.582L363.203 175.724L362.623 172.5L363.415 172.359L364.207 172.216L364.785 175.44ZM298.71 128.096L295.583 128.745L295.256 127.171L298.383 126.522L298.71 128.096ZM363.627 168.992L362.837 169.134L362.045 169.276L361.466 166.052L363.049 165.769L363.627 168.992ZM304.802 126.01L304.966 126.798L301.839 127.447L301.512 125.873L304.639 125.222L304.802 126.01ZM362.469 162.545L361.677 162.687L360.887 162.83L360.307 159.606L361.099 159.464L361.891 159.321L362.469 162.545ZM311.222 125.498L308.094 126.148L307.767 124.574L310.896 123.924L311.222 125.498ZM361.311 156.097L360.52 156.239L359.73 156.382L359.15 153.158L359.941 153.016L360.732 152.874L361.311 156.097ZM317.478 124.199L314.349 124.849L314.022 123.275L317.151 122.625L317.478 124.199ZM360.153 149.651L358.57 149.934L357.992 146.711L359.574 146.426L360.153 149.651ZM323.733 122.9L320.604 123.55L320.277 121.976L323.406 121.326L323.733 122.9ZM358.996 143.203L357.413 143.486L356.834 140.264L357.624 140.121L358.416 139.979L358.996 143.203ZM329.988 121.602L326.859 122.251L326.532 120.677L329.661 120.027L329.988 121.602ZM357.836 136.756L357.046 136.898L356.254 137.04L355.676 133.817L356.467 133.673L357.258 133.531L357.836 136.756ZM336.243 120.303L333.115 120.952L332.788 119.378L335.916 118.729L336.243 120.303ZM356.679 130.308L355.888 130.45L355.097 130.592L354.517 127.368L356.1 127.085L356.679 130.308ZM342.498 119.004L339.371 119.654L339.208 118.866L339.044 118.078L342.172 117.43L342.498 119.004ZM355.52 123.861L354.729 124.003L353.939 124.145L353.359 120.922L354.151 120.779L354.943 120.637L355.52 123.861ZM348.754 117.705L345.627 118.354L345.3 116.78L348.427 116.131L348.754 117.705Z" fill="white"/>
<path fill-rule="evenodd" clip-rule="evenodd" d="M226.19 146.41L224.42 149.108L223.076 148.226L224.846 145.528L226.19 146.41ZM222.65 151.806L220.88 154.504L219.536 153.622L221.306 150.924L222.65 151.806ZM208.489 173.389L206.719 176.087L205.375 175.205L207.145 172.507L208.489 173.389ZM204.949 178.785L203.178 181.484L201.834 180.602L203.605 177.903L204.949 178.785ZM179.722 217.234L180.166 216.556L178.822 215.674L178.377 216.352L177.7 215.907L176.818 217.252L177.495 217.696L177.049 218.376L178.394 219.258L178.84 218.578L179.517 219.023L180.399 217.678L179.722 217.234ZM190.787 200.369L189.017 203.067L187.673 202.185L189.443 199.487L190.787 200.369ZM217.34 159.9L219.11 157.202L217.766 156.32L215.995 159.018L217.34 159.9ZM212.029 167.993L210.259 170.691L208.915 169.809L210.685 167.111L212.029 167.993ZM181.936 213.859L183.707 211.161L182.362 210.279L180.592 212.976L181.936 213.859ZM213.799 165.295L215.57 162.597L214.225 161.715L212.455 164.413L213.799 165.295ZM194.327 194.973L192.557 197.671L191.213 196.789L192.983 194.091L194.327 194.973Z" fill="white"/>
<path fill-rule="evenodd" clip-rule="evenodd" d="M240.976 199.621L239.402 199.947L238.752 196.821L240.326 196.494L240.976 199.621ZM266.33 249.934L264.56 252.632L263.216 251.75L264.986 249.052L266.33 249.934ZM246.842 279.637L248.615 276.934L247.271 276.052L245.497 278.755L246.842 279.637ZM245.067 282.342L243.294 285.045L241.949 284.163L243.723 281.46L245.067 282.342ZM250.068 243.409L248.494 243.736L247.844 240.607L249.418 240.28L250.068 243.409ZM249.793 249.991L251.367 249.664L250.717 246.536L249.143 246.863L249.793 249.991ZM289.343 214.861L291.113 212.163L289.768 211.281L287.998 213.978L289.343 214.861ZM351.378 244.086L351.561 244.868L348.375 245.62L348.004 244.055L351.192 243.304L351.378 244.086ZM357.937 243.365L357.753 242.581L357.568 241.798L354.38 242.552L354.564 243.334L354.749 244.116L357.937 243.365ZM361.125 242.611L364.313 241.859L363.943 240.294L360.756 241.047L360.94 241.828L361.125 242.611ZM319.5 251.609L319.685 252.392L316.497 253.143L316.312 252.361L316.128 251.579L319.316 250.825L319.5 251.609ZM345.003 245.59L345.186 246.373L341.999 247.126L341.629 245.56L344.818 244.808L345.003 245.59ZM269.871 244.538L268.1 247.236L266.756 246.354L268.526 243.656L269.871 244.538ZM231.349 273.444L231.159 272.664L230.967 271.883L227.902 272.634L228.093 273.415L228.284 274.195L231.349 273.444ZM249.745 268.937L249.553 268.157L249.361 267.376L246.296 268.127L246.487 268.909L246.68 269.688L249.745 268.937ZM169.524 232.776L167.75 235.48L166.406 234.598L168.18 231.894L169.524 232.776ZM206.824 279.453L206.632 278.672L206.442 277.892L203.376 278.643L203.567 279.423L203.758 280.204L206.824 279.453ZM259.25 260.726L257.48 263.424L256.135 262.542L257.905 259.844L259.25 260.726ZM243.614 270.439L243.422 269.66L243.23 268.878L240.164 269.63L240.547 271.19L243.614 270.439ZM255.603 266.052L255.71 266.122L255.644 266.221L255.745 266.654L255.874 267.199L255.969 267.261L255.91 267.35L255.93 267.436L255.84 267.458L255.171 268.476L255.176 268.517L255.142 268.521L255.087 268.605L254.992 268.543L254.031 268.68L253.937 268.823L253.777 268.718L253.586 268.745L253.561 268.577L252.923 268.158L252.811 268.186L252.782 268.065L252.592 267.941L252.708 267.765L252.496 266.906L252.361 266.817L252.444 266.691L252.427 266.625L252.499 266.607L253.064 265.746L253.04 265.63L253.155 265.606L253.243 265.472L253.377 265.56L254.277 265.373L254.365 265.239L254.499 265.327L254.614 265.303L254.638 265.419L255.391 265.912L255.561 265.872L255.603 266.052ZM268.681 264.427L268.497 263.645L268.312 262.863L265.124 263.614L265.494 265.18L268.681 264.427ZM158.881 248.998L157.106 251.702L155.762 250.82L157.537 248.116L158.881 248.998ZM253.965 262.175L252.391 262.502L251.741 259.375L253.315 259.048L253.965 262.175ZM171.298 230.072L173.072 227.369L171.728 226.487L169.954 229.19L171.298 230.072ZM145.509 294.474L145.318 293.693L145.127 292.913L142.062 293.664L142.252 294.444L142.444 295.225L145.509 294.474ZM139.186 295.195L139.378 295.977L136.312 296.728L135.929 295.165L138.996 294.415L139.186 295.195ZM237.29 271.162L237.481 271.942L234.415 272.693L234.225 271.913L234.033 271.132L237.099 270.381L237.29 271.162ZM128.724 294.96L130.498 292.257L129.153 291.375L127.38 294.078L128.724 294.96ZM188.43 283.96L185.364 284.711L184.981 283.148L188.047 282.397L188.43 283.96ZM252.163 271.526L250.389 274.231L249.044 273.349L250.819 270.644L252.163 271.526ZM132.271 289.554L134.046 286.85L132.701 285.968L130.927 288.672L132.271 289.554ZM250.545 263.702L249.663 265.047L246.965 263.277L247.848 261.932L250.545 263.702ZM133.247 297.479L130.181 298.23L129.798 296.667L132.863 295.916L133.247 297.479ZM244.268 261.506L245.15 260.162L242.452 258.392L241.57 259.736L244.268 261.506ZM338.626 247.095L338.811 247.877L335.624 248.63L335.254 247.064L338.442 246.313L338.626 247.095ZM176.166 286.963L175.976 286.183L175.784 285.402L172.718 286.153L172.91 286.934L173.1 287.714L176.166 286.963ZM239.754 256.622L238.872 257.966L236.174 256.196L237.056 254.852L239.754 256.622ZM234.358 253.082L233.476 254.426L230.778 252.656L231.66 251.311L234.358 253.082ZM222.685 247.345L223.567 246.001L220.869 244.231L219.987 245.575L222.685 247.345ZM332.25 248.6L332.435 249.382L329.247 250.134L329.063 249.352L328.878 248.57L332.067 247.817L332.25 248.6ZM142.915 273.331L144.689 270.628L143.345 269.746L141.571 272.449L142.915 273.331ZM207.378 235.379L206.496 236.724L203.798 234.954L204.68 233.609L207.378 235.379ZM201.982 231.839L201.1 233.184L198.402 231.413L199.284 230.069L201.982 231.839ZM261.02 258.028L262.79 255.33L261.446 254.448L259.676 257.146L261.02 258.028ZM326.061 250.886L322.873 251.638L322.687 250.855L322.504 250.074L325.69 249.321L326.061 250.886ZM184.913 222.563L185.795 221.219L183.097 219.448L182.215 220.793L184.913 222.563ZM176.62 221.961L174.846 224.666L173.501 223.784L175.276 221.079L176.62 221.961ZM212.774 238.92L211.892 240.264L209.194 238.494L210.076 237.15L212.774 238.92ZM160.654 246.295L162.429 243.59L161.085 242.708L159.31 245.413L160.654 246.295ZM153.558 257.11L155.333 254.405L153.989 253.523L152.214 256.228L153.558 257.11ZM164.202 240.887L165.976 238.184L164.632 237.302L162.858 240.005L164.202 240.887ZM195.704 229.643L196.587 228.299L193.889 226.529L193.007 227.873L195.704 229.643ZM252.666 255.92L251.092 256.246L250.441 253.119L251.23 252.956L252.017 252.792L252.666 255.92ZM190.309 226.103L191.191 224.759L188.493 222.989L187.611 224.333L190.309 226.103ZM228.08 250.886L228.962 249.541L226.265 247.771L225.382 249.116L228.08 250.886ZM262.121 265.149L262.306 265.931L259.118 266.685L258.933 265.902L258.749 265.118L261.937 264.367L262.121 265.149ZM139.367 278.739L141.141 276.036L139.797 275.154L138.023 277.857L139.367 278.739ZM217.289 243.805L218.171 242.461L215.472 240.69L214.59 242.034L217.289 243.805ZM137.594 281.442L135.819 284.146L134.475 283.264L136.249 280.56L137.594 281.442Z" fill="#010101"/>
<path fill-rule="evenodd" clip-rule="evenodd" d="M185.477 208.463L187.247 205.765L185.902 204.883L184.132 207.581L185.477 208.463Z" fill="white"/>
<path fill-rule="evenodd" clip-rule="evenodd" d="M239.746 290.452L241.519 287.749L240.175 286.867L238.401 289.57L239.746 290.452Z" fill="#010101"/>
<path fill-rule="evenodd" clip-rule="evenodd" d="M236.198 295.86L237.972 293.155L236.628 292.273L234.853 294.978L236.198 295.86ZM232.65 301.267L234.424 298.563L233.08 297.681L231.305 300.385L232.65 301.267ZM229.102 306.675L230.876 303.971L229.532 303.089L227.757 305.793L229.102 306.675Z" fill="#010101"/>
<path fill-rule="evenodd" clip-rule="evenodd" d="M225.555 312.081L227.328 309.378L225.984 308.496L224.21 311.199L225.555 312.081ZM223.78 314.786L222.007 317.489L220.662 316.607L222.436 313.904L223.78 314.786ZM220.232 320.193L218.459 322.896L217.114 322.014L218.888 319.311L220.232 320.193ZM214.911 328.304L216.684 325.601L215.34 324.719L213.566 327.422L214.911 328.304ZM213.137 331.007L211.363 333.712L210.018 332.83L211.793 330.125L213.137 331.007ZM207.815 339.119L209.589 336.415L208.245 335.533L206.47 338.237L207.815 339.119Z" fill="#010101"/>
<path fill-rule="evenodd" clip-rule="evenodd" d="M202.047 347.91L202.493 347.23L201.149 346.348L200.702 347.028L200.025 346.583L199.143 347.928L199.82 348.372L199.375 349.051L200.719 349.933L201.165 349.254L201.868 349.716L202.751 348.372L202.047 347.91ZM198.945 352.637L197.171 355.341L195.827 354.459L197.601 351.755L198.945 352.637ZM193.623 360.748L195.397 358.045L194.053 357.163L192.279 359.866L193.623 360.748ZM190.075 366.156L191.85 363.451L190.506 362.569L188.731 365.274L190.075 366.156ZM186.527 371.563L188.302 368.859L186.958 367.977L185.183 370.681L186.527 371.563ZM177.658 385.082L175.884 387.785L174.54 386.903L176.314 384.2L177.658 385.082ZM181.206 379.674L179.432 382.377L178.088 381.495L179.862 378.792L181.206 379.674ZM184.754 374.266L182.98 376.97L181.636 376.088L183.41 373.384L184.754 374.266Z" fill="#010101"/>
<path fill-rule="evenodd" clip-rule="evenodd" d="M260.007 313.568L261.6 313.34L261.14 310.139L260.345 310.254L259.55 310.367L260.007 313.568ZM264.473 339.068L265.27 338.954L264.811 335.752L263.219 335.98L263.678 339.181L264.473 339.068ZM264.595 345.586L266.188 345.357L265.728 342.156L264.933 342.269L264.137 342.384L264.595 345.586Z" fill="white"/>
<path fill-rule="evenodd" clip-rule="evenodd" d="M255.299 275.034L256.094 274.921L255.636 271.718L254.043 271.947L254.503 275.148L255.299 275.034ZM257.929 287.727L257.134 287.842L256.339 287.955L255.879 284.754L257.472 284.525L257.929 287.727ZM258.847 294.13L257.255 294.359L256.796 291.156L258.388 290.928L258.847 294.13ZM262.517 319.744L261.722 319.857L260.925 319.972L260.466 316.771L262.058 316.542L262.517 319.744ZM264.351 332.551L262.761 332.779L262.302 329.578L263.894 329.349L264.351 332.551ZM259.765 300.534L258.173 300.762L257.714 297.56L258.51 297.446L259.306 297.333L259.765 300.534ZM263.435 326.148L262.64 326.261L261.843 326.375L261.384 323.174L262.976 322.946L263.435 326.148ZM260.683 306.937L259.091 307.166L258.632 303.963L259.428 303.849L260.224 303.736L260.683 306.937Z" fill="white"/>
<path fill-rule="evenodd" clip-rule="evenodd" d="M298.193 201.371L296.423 204.069L295.079 203.187L296.849 200.489L298.193 201.371ZM294.653 206.767L292.883 209.465L291.539 208.583L293.309 205.885L294.653 206.767ZM282.262 225.652L284.032 222.954L282.688 222.072L280.918 224.77L282.262 225.652ZM280.492 228.35L278.721 231.049L277.377 230.167L279.148 227.468L280.492 228.35ZM313.125 253.113L313.309 253.895L310.121 254.649L309.937 253.865L309.752 253.082L312.94 252.331L313.125 253.113ZM293.998 257.627L294.183 258.409L290.995 259.161L290.811 258.379L290.626 257.597L293.814 256.845L293.998 257.627ZM284.619 260.666L287.808 259.913L287.438 258.348L284.251 259.101L284.619 260.666ZM278.244 262.17L281.433 261.419L281.062 259.854L277.875 260.606L278.059 261.388L278.244 262.17ZM300.559 256.904L300.373 256.122L300.189 255.34L297.001 256.091L297.187 256.874L297.371 257.658L300.559 256.904ZM273.411 239.143L271.641 241.841L270.296 240.959L272.066 238.261L273.411 239.143ZM275.181 236.445L276.951 233.747L275.607 232.865L273.837 235.563L275.181 236.445ZM306.933 255.4L306.749 254.618L306.564 253.836L303.376 254.587L303.747 256.153L306.933 255.4ZM287.573 217.558L285.802 220.256L284.458 219.374L286.228 216.676L287.573 217.558Z" fill="#010101"/>
<path fill-rule="evenodd" clip-rule="evenodd" d="M247.195 237.481L248.769 237.154L248.12 234.025L246.545 234.352L247.195 237.481Z" fill="white"/>
<path fill-rule="evenodd" clip-rule="evenodd" d="M248.769 237.154L247.195 237.481L246.545 234.352L248.12 234.025L248.769 237.154Z" fill="white"/>
<path fill-rule="evenodd" clip-rule="evenodd" d="M247.47 230.899L245.896 231.226L245.247 228.097L246.821 227.77L247.47 230.899Z" fill="#010101"/>
<path fill-rule="evenodd" clip-rule="evenodd" d="M230.584 149.577L229.01 149.904L228.361 146.777L229.935 146.45L230.584 149.577ZM233.182 162.089L231.608 162.416L230.959 159.288L232.533 158.961L233.182 162.089ZM232.907 168.671L234.481 168.345L233.832 165.216L232.258 165.543L232.907 168.671ZM236.804 187.437L238.378 187.11L237.728 183.981L236.154 184.308L236.804 187.437ZM235.505 181.182L237.079 180.855L236.429 177.726L234.855 178.053L235.505 181.182ZM240.7 206.203L242.275 205.876L241.625 202.749L240.051 203.076L240.7 206.203ZM243.573 212.131L241.999 212.458L241.35 209.331L242.924 209.004L243.573 212.131ZM231.096 155.995L231.884 155.833L231.234 152.705L229.66 153.032L230.308 156.16L231.096 155.995ZM235.78 174.6L234.206 174.927L233.556 171.798L235.131 171.471L235.78 174.6ZM244.597 224.97L246.172 224.644L245.522 221.515L243.948 221.842L244.597 224.97ZM244.085 218.55L244.874 218.387L244.223 215.26L242.649 215.586L243.297 218.714L244.085 218.55ZM238.103 193.692L239.677 193.365L239.028 190.238L238.241 190.402L237.452 190.565L238.103 193.692Z" fill="#010101"/>
<path fill-rule="evenodd" clip-rule="evenodd" d="M225.218 274.947L225.028 274.166L224.836 273.385L221.77 274.136L221.962 274.917L222.152 275.698L225.218 274.947ZM219.087 276.449L218.895 275.668L218.705 274.887L215.639 275.638L215.829 276.419L216.021 277.2L219.087 276.449ZM200.693 280.955L200.501 280.174L200.311 279.394L197.244 280.144L197.627 281.706L200.693 280.955ZM191.496 283.209L194.561 282.458L194.178 280.895L191.112 281.646L191.496 283.209ZM182.299 285.462L179.232 286.212L179.041 285.432L178.85 284.651L181.915 283.9L182.299 285.462ZM212.955 277.951L212.764 277.17L212.573 276.389L209.508 277.141L209.698 277.921L209.89 278.702L212.955 277.951ZM170.035 288.466L169.844 287.685L169.653 286.904L166.587 287.655L166.779 288.436L166.969 289.217L170.035 288.466Z" fill="#010101"/>
<path fill-rule="evenodd" clip-rule="evenodd" d="M163.713 289.187L163.903 289.968L160.838 290.719L160.647 289.938L160.456 289.157L163.521 288.406L163.713 289.187ZM151.449 292.191L151.641 292.972L148.575 293.723L148.383 292.942L148.193 292.162L151.259 291.411L151.449 292.191ZM157.58 290.689L157.772 291.47L154.706 292.221L154.515 291.44L154.324 290.659L157.39 289.908L157.58 290.689Z" fill="#010101"/>
<path fill-rule="evenodd" clip-rule="evenodd" d="M150.011 262.516L151.785 259.813L150.441 258.931L148.667 261.634L150.011 262.516ZM146.463 267.924L148.237 265.221L146.893 264.339L145.119 267.042L146.463 267.924Z" fill="#010101"/>
<path fill-rule="evenodd" clip-rule="evenodd" d="M172.336 393.192L174.11 390.489L172.766 389.607L170.992 392.31L172.336 393.192ZM170.563 395.895L168.788 398.6L167.444 397.718L169.218 395.013L170.563 395.895ZM165.24 404.007L167.015 401.303L165.67 400.421L163.896 403.125L165.24 404.007Z" fill="#010101"/>
<path fill-rule="evenodd" clip-rule="evenodd" d="M161.692 409.415L163.467 406.711L162.122 405.829L160.348 408.533L161.692 409.415ZM159.919 412.118L158.145 414.821L156.801 413.939L158.574 411.236L159.919 412.118ZM156.371 417.526L154.597 420.229L153.253 419.347L155.026 416.644L156.371 417.526ZM152.823 422.933L151.049 425.636L149.705 424.754L151.478 422.051L152.823 422.933Z" fill="#010101"/>
<path fill-rule="evenodd" clip-rule="evenodd" d="M206.041 341.822L204.267 344.525L202.923 343.643L204.697 340.94L206.041 341.822ZM164.953 323.572L164.071 324.916L161.371 323.145L162.253 321.801L164.953 323.572ZM191.049 342.617L191.931 341.273L189.234 339.503L188.351 340.847L191.049 342.617ZM180.258 335.537L181.14 334.193L178.442 332.422L177.56 333.767L180.258 335.537ZM197.327 344.813L196.445 346.158L193.747 344.388L194.629 343.043L197.327 344.813ZM185.654 339.077L186.536 337.733L183.838 335.963L182.956 337.307L185.654 339.077Z" fill="#010101"/>
<path fill-rule="evenodd" clip-rule="evenodd" d="M143.368 309.41L142.486 310.754L139.788 308.984L140.67 307.64L143.368 309.41ZM147.882 314.295L148.764 312.95L146.066 311.18L145.184 312.524L147.882 314.295ZM159.556 320.031L158.674 321.375L155.976 319.605L156.858 318.261L159.556 320.031ZM153.278 317.835L154.16 316.49L151.462 314.72L150.58 316.065L153.278 317.835ZM175.744 330.652L174.862 331.997L172.164 330.227L173.046 328.882L175.744 330.652ZM169.466 328.456L170.348 327.112L167.651 325.342L166.768 326.686L169.466 328.456Z" fill="#010101"/>
<path fill-rule="evenodd" clip-rule="evenodd" d="M132.577 302.329L131.695 303.674L128.997 301.904L129.879 300.559L132.577 302.329ZM137.09 307.214L137.973 305.87L135.275 304.1L134.393 305.444L137.09 307.214Z" fill="#010101"/>
<path fill-rule="evenodd" clip-rule="evenodd" d="M274.873 262.14L275.056 262.922L271.869 263.676L271.684 262.893L271.501 262.11L274.687 261.358L274.873 262.14Z" fill="#010101"/>
<path fill-rule="evenodd" clip-rule="evenodd" d="M332.161 319.175L333.043 317.83L330.29 316.024L329.408 317.368L332.161 319.175ZM338.547 321.442L337.665 322.786L334.914 320.981L335.796 319.636L338.547 321.442ZM365.192 340.847L366.074 339.502L363.321 337.696L362.439 339.04L365.192 340.847ZM371.58 343.115L370.698 344.459L367.945 342.653L368.827 341.309L371.58 343.115ZM381.707 351.683L382.589 350.338L379.837 348.533L378.955 349.877L381.707 351.683ZM387.213 355.295L388.095 353.951L385.342 352.145L384.46 353.489L387.213 355.295ZM343.171 326.399L344.053 325.054L341.3 323.248L340.418 324.593L343.171 326.399ZM355.063 332.278L354.181 333.622L351.429 331.817L352.311 330.473L355.063 332.278ZM349.558 328.666L348.676 330.011L345.923 328.204L346.805 326.86L349.558 328.666ZM315.645 308.338L316.527 306.994L313.774 305.188L312.892 306.532L315.645 308.338ZM311.021 303.381L310.139 304.726L307.387 302.92L308.27 301.576L311.021 303.381ZM299.128 297.501L300.01 296.157L297.259 294.352L296.377 295.696L299.128 297.501ZM360.569 335.891L359.687 337.235L356.934 335.429L357.816 334.084L360.569 335.891ZM376.202 348.071L377.084 346.727L374.331 344.92L373.449 346.265L376.202 348.071ZM277.99 281.709L277.108 283.054L274.355 281.247L275.237 279.903L277.99 281.709ZM304.634 301.114L305.516 299.77L302.763 297.963L301.881 299.308L304.634 301.114Z" fill="#010101"/>
<path fill-rule="evenodd" clip-rule="evenodd" d="M375.138 240.133L376.366 239.914L375.786 236.69L374.996 236.832L374.445 236.931L374.35 236.869L374.292 236.958L374.204 236.974L374.221 237.066L373.598 238.015L373.506 238.037L373.528 238.123L373.468 238.213L373.563 238.275L373.794 239.251L373.727 239.352L373.834 239.422L373.875 239.602L374.046 239.562L374.753 240.025L374.784 240.198L374.965 240.165L375.072 240.234L375.138 240.133ZM336.128 299.589L337.898 296.891L336.554 296.009L334.784 298.707L336.128 299.589ZM341.438 291.495L339.668 294.193L338.324 293.311L340.094 290.613L341.438 291.495ZM329.048 310.381L330.818 307.683L329.473 306.801L327.703 309.499L329.048 310.381ZM344.979 286.1L343.209 288.798L341.864 287.915L343.634 285.218L344.979 286.1ZM327.278 313.078L326.833 313.756L327.537 314.218L326.655 315.562L325.951 315.1L325.505 315.78L324.16 314.898L324.607 314.218L323.903 313.756L324.785 312.412L325.489 312.874L325.933 312.196L327.278 313.078ZM334.358 302.287L332.588 304.985L331.244 304.103L333.014 301.405L334.358 302.287Z" fill="#010101"/>
<path fill-rule="evenodd" clip-rule="evenodd" d="M371.531 245.63L373.302 242.932L371.957 242.05L370.187 244.748L371.531 245.63ZM359.141 264.515L357.37 267.213L356.026 266.331L357.796 263.633L359.141 264.515ZM350.289 278.006L352.06 275.307L350.716 274.425L348.945 277.124L350.289 278.006ZM369.761 248.328L367.991 251.026L366.647 250.144L368.417 247.446L369.761 248.328ZM346.749 283.402L348.519 280.704L347.175 279.822L345.404 282.52L346.749 283.402ZM355.6 269.911L353.83 272.609L352.486 271.727L354.256 269.029L355.6 269.911ZM322.032 310.606L321.15 311.95L318.397 310.144L319.279 308.8L322.032 310.606Z" fill="#010101"/>
<path fill-rule="evenodd" clip-rule="evenodd" d="M366.221 253.724L364.451 256.422L363.107 255.54L364.877 252.842L366.221 253.724ZM362.681 259.12L360.911 261.817L359.566 260.935L361.336 258.237L362.681 259.12Z" fill="#010101"/>
<path fill-rule="evenodd" clip-rule="evenodd" d="M321.957 321.188L323.731 318.483L322.387 317.601L320.612 320.306L321.957 321.188ZM318.41 326.594L320.183 323.891L318.839 323.009L317.065 325.712L318.41 326.594ZM311.314 337.409L313.087 334.706L311.743 333.824L309.969 336.527L311.314 337.409ZM288.252 372.558L286.479 375.261L285.134 374.379L286.908 371.676L288.252 372.558ZM282.931 380.669L284.705 377.964L283.361 377.082L281.586 379.786L282.931 380.669ZM281.157 383.372L279.383 386.076L278.038 385.194L279.813 382.49L281.157 383.372ZM277.609 388.779L275.835 391.482L274.491 390.6L276.265 387.897L277.609 388.779ZM291.8 367.15L290.027 369.853L288.682 368.971L290.456 366.268L291.8 367.15ZM298.896 356.335L297.123 359.038L295.778 358.156L297.552 355.453L298.896 356.335ZM300.67 353.632L302.444 350.928L301.1 350.045L299.325 352.75L300.67 353.632ZM309.54 340.112L307.766 342.817L306.421 341.935L308.196 339.23L309.54 340.112ZM293.575 364.446L295.348 361.743L294.004 360.861L292.23 363.564L293.575 364.446ZM305.992 345.52L304.218 348.224L302.873 347.342L304.648 344.638L305.992 345.52ZM314.862 332.002L316.635 329.299L315.291 328.416L313.517 331.12L314.862 332.002Z" fill="#010101"/>
<path fill-rule="evenodd" clip-rule="evenodd" d="M283.495 285.321L282.613 286.665L279.861 284.86L280.743 283.516L283.495 285.321ZM289.001 288.934L288.119 290.278L285.366 288.472L286.248 287.127L289.001 288.934ZM293.624 293.89L294.506 292.545L291.753 290.739L290.871 292.083L293.624 293.89Z" fill="#010101"/>
<path fill-rule="evenodd" clip-rule="evenodd" d="M261.475 270.873L260.593 272.218L257.84 270.411L258.722 269.067L261.475 270.873ZM266.097 275.829L266.979 274.485L264.226 272.679L263.344 274.023L266.097 275.829ZM272.486 278.098L271.603 279.442L268.85 277.636L269.733 276.291L272.486 278.098Z" fill="#010101"/>
<path fill-rule="evenodd" clip-rule="evenodd" d="M353.135 117.633L354.363 117.413L353.928 114.989L351.555 115.481L351.812 116.718L351.724 116.852L351.858 116.94L351.882 117.055L351.998 117.031L352.75 117.525L352.781 117.698L352.962 117.664L353.069 117.734L353.135 117.633ZM349.529 123.13L351.299 120.432L349.954 119.55L348.184 122.248L349.529 123.13ZM322.976 163.6L321.206 166.297L319.861 165.415L321.632 162.717L322.976 163.6ZM328.286 155.506L330.057 152.807L328.713 151.925L326.942 154.624L328.286 155.506ZM345.988 128.526L347.758 125.828L346.414 124.946L344.644 127.644L345.988 128.526ZM326.516 158.204L324.746 160.902L323.402 160.02L325.172 157.322L326.516 158.204ZM338.908 139.317L340.678 136.619L339.334 135.737L337.564 138.435L338.908 139.317ZM319.436 168.995L317.666 171.693L316.321 170.811L318.091 168.113L319.436 168.995ZM331.827 150.109L333.597 147.411L332.253 146.529L330.483 149.227L331.827 150.109ZM300.111 188.159L299.229 189.503L296.531 187.733L297.413 186.389L300.111 188.159ZM314.125 177.089L315.895 174.391L314.551 173.509L312.781 176.207L314.125 177.089ZM283.923 177.538L283.041 178.883L280.343 177.113L281.225 175.768L283.923 177.538ZM277.645 175.342L278.528 173.998L275.83 172.228L274.948 173.572L277.645 175.342ZM337.138 142.015L335.368 144.713L334.023 143.831L335.793 141.133L337.138 142.015ZM293.833 185.963L294.715 184.619L292.017 182.849L291.135 184.193L293.833 185.963ZM289.319 181.079L288.437 182.423L285.739 180.653L286.621 179.308L289.319 181.079ZM342.448 133.922L344.218 131.224L342.874 130.342L341.104 133.039L342.448 133.922ZM301.734 195.975L299.963 198.673L298.619 197.791L300.389 195.093L301.734 195.975Z" fill="#010101"/>
<path fill-rule="evenodd" clip-rule="evenodd" d="M262.339 163.377L261.457 164.721L258.759 162.951L259.641 161.606L262.339 163.377ZM267.736 166.918L266.854 168.262L264.155 166.491L265.037 165.147L267.736 166.918ZM272.25 171.802L273.132 170.458L270.434 168.688L269.552 170.032L272.25 171.802Z" fill="#010101"/>
<path fill-rule="evenodd" clip-rule="evenodd" d="M234.478 147.02L235.36 145.675L232.662 143.905L231.78 145.25L234.478 147.02ZM239.874 150.56L240.756 149.216L238.058 147.445L237.176 148.79L239.874 150.56ZM246.152 152.756L245.27 154.1L242.572 152.33L243.454 150.986L246.152 152.756ZM250.665 157.64L251.547 156.296L248.85 154.526L247.968 155.87L250.665 157.64ZM256.061 161.181L256.943 159.836L254.245 158.066L253.363 159.41L256.061 161.181Z" fill="#010101"/>
<path fill-rule="evenodd" clip-rule="evenodd" d="M305.275 190.578L304.83 191.256L305.534 191.717L304.652 193.062L303.948 192.6L303.504 193.277L302.159 192.395L302.604 191.718L301.926 191.274L302.808 189.929L303.486 190.374L303.93 189.696L305.275 190.578ZM311.04 195.33L310.158 196.674L307.405 194.868L308.287 193.524L311.04 195.33ZM315.663 200.286L316.545 198.942L313.792 197.135L312.91 198.48L315.663 200.286ZM327.555 206.166L326.673 207.51L323.92 205.704L324.802 204.36L327.555 206.166ZM332.178 211.122L333.06 209.778L330.308 207.972L329.426 209.317L332.178 211.122ZM321.169 203.899L322.051 202.554L319.298 200.748L318.416 202.092L321.169 203.899Z" fill="#010101"/>
<path fill-rule="evenodd" clip-rule="evenodd" d="M338.566 213.39L337.684 214.735L334.931 212.928L335.813 211.584L338.566 213.39ZM344.071 217.002L343.189 218.347L340.436 216.54L341.318 215.196L344.071 217.002ZM348.694 221.958L349.576 220.614L346.824 218.808L345.942 220.153L348.694 221.958ZM355.082 224.227L354.2 225.571L351.447 223.765L352.329 222.42L355.082 224.227ZM365.21 232.795L366.092 231.451L363.339 229.645L362.457 230.989L365.21 232.795ZM371.597 235.063L370.715 236.407L367.962 234.601L368.844 233.256L371.597 235.063ZM370.688 240.355L367.5 241.107L367.316 240.325L367.131 239.543L370.32 238.79L370.688 240.355ZM359.704 229.183L360.586 227.838L357.835 226.033L356.953 227.377L359.704 229.183Z" fill="#010101"/>
<path fill-rule="evenodd" clip-rule="evenodd" d="M310.585 182.485L312.355 179.787L311.011 178.905L309.241 181.603L310.585 182.485ZM307.045 187.88L308.815 185.183L307.471 184.3L305.7 186.998L307.045 187.88Z" fill="#010101"/>
</g>
<rect x="492.55" y="0.4497" width="539.101" height="492.101" transform="rotate(90 492.55 0.4497)" stroke="white" stroke-width="0.8994" stroke-dasharray="1.8 3.6 5.4 7.2"/>
<defs>
<clipPath id="clip0_186_432">
<rect x="493" width="540" height="493" transform="rotate(90 493 0)" fill="white"/>
</clipPath>
</defs>
</svg>
