<svg width="493" height="600" viewBox="0 0 493 600" fill="none" xmlns="http://www.w3.org/2000/svg">
<g clip-path="url(#clip0_186_246)">
<rect x="493" width="600" height="493" transform="rotate(90 493 0)" fill="#111111"/>
<path d="M79.5124 329.506L107.033 345.395L106.079 375.241L79.2278 392.479L52.8126 377.228V344.921L79.5124 329.506Z" fill="#E82910"/>
<path d="M107.258 345.006L107.492 345.14L106.528 375.256L106.521 375.492L106.322 375.62L79.2404 393.005L52.5878 377.617L52.3629 377.488V344.661L52.5878 344.532L79.5127 328.987L107.258 345.006ZM53.2623 376.968L78.8039 391.714L79.8737 361.064L53.2623 345.7V376.968ZM80.7739 361.075L79.7068 391.637L105.637 374.991L106.557 346.189L80.7739 361.075ZM53.7111 344.921L80.3321 360.291L106.133 345.395L79.5118 330.024L53.7111 344.921Z" fill="#111111"/>
<path fill-rule="evenodd" clip-rule="evenodd" d="M138.013 389.862L138.375 389.039L136.697 388.301L136.517 388.713L136.335 389.124L138.013 389.862ZM106.13 375.839L106.493 375.016L103.137 373.54L102.955 373.952L102.774 374.364L106.13 375.839ZM99.599 372.475L99.7808 372.064L96.4247 370.588L96.2429 371L96.062 371.411L99.418 372.887L99.599 372.475ZM92.8869 369.523L93.0687 369.112L91.3902 368.373L91.0283 369.197L92.7059 369.935L92.8869 369.523Z" fill="#111111"/>
<path d="M164.147 358.287L191.668 374.176L190.714 404.022L163.863 421.259L137.448 406.009V373.702L164.147 358.287Z" fill="#E82910"/>
<path d="M191.893 373.786L192.126 373.921L191.163 404.037L191.156 404.273L190.957 404.4L163.875 421.786L137.223 406.398L136.998 406.269V373.442L137.223 373.313L164.148 357.768L191.893 373.786ZM137.897 405.749L163.439 420.495L164.509 389.845L137.897 374.48V405.749ZM165.409 389.855L164.342 420.417L190.271 403.771L191.192 374.97L165.409 389.855ZM138.346 373.701L164.967 389.072L190.768 374.176L164.147 358.805L138.346 373.701Z" fill="#111111"/>
<path fill-rule="evenodd" clip-rule="evenodd" d="M223.834 424.602L224.196 423.778L222.518 423.04L222.337 423.452L222.155 423.863L223.834 424.602ZM218.98 421.976L219.162 421.564L215.806 420.088L215.443 420.911L218.799 422.387L218.98 421.976ZM185.42 407.214L185.601 406.803L182.245 405.327L182.064 405.739L181.883 406.151L185.239 407.626L185.42 407.214ZM178.708 404.262L178.889 403.851L177.211 403.113L176.849 403.937L178.527 404.674L178.708 404.262Z" fill="#111111"/>
<path d="M242.991 387.068L270.511 402.957L269.557 432.803L242.706 450.04L216.291 434.789V402.483L242.991 387.068Z" fill="#E82910"/>
<path d="M270.736 402.567L270.97 402.702L270.006 432.818L269.999 433.054L269.8 433.181L242.719 450.567L216.066 435.178L215.841 435.049V402.223L216.066 402.094L242.991 386.548L270.736 402.567ZM216.741 434.529L242.282 449.275L243.352 418.626L216.741 403.261V434.529ZM244.252 418.636L243.185 449.198L269.115 432.552L270.035 403.75L244.252 418.636ZM217.189 402.482L243.81 417.853L269.611 402.956L242.99 387.586L217.189 402.482Z" fill="#111111"/>
<path fill-rule="evenodd" clip-rule="evenodd" d="M197.785 213.98L170.264 198.091L143.564 213.506V245.813L169.979 261.064L196.83 243.826L197.785 213.98ZM171.525 229.659L170.458 260.221L196.388 243.576L197.309 214.774L171.525 229.659ZM171.084 228.876L144.463 213.505L170.263 198.609L196.884 213.98L171.084 228.876ZM144.014 245.553L169.555 260.299L170.625 229.649L144.014 214.284V245.553Z" fill="#E82910"/>
<path d="M198.009 213.591L198.243 213.725L197.28 243.841L197.273 244.077L197.073 244.204L169.992 261.59L143.339 246.202L143.114 246.073V213.246L143.339 213.117L170.264 197.572L198.009 213.591ZM144.014 245.553L169.555 260.299L170.625 229.649L144.014 214.284V245.553ZM171.525 229.659L170.458 260.221L196.388 243.576L197.309 214.774L171.525 229.659ZM144.463 213.505L171.084 228.876L196.884 213.98L170.263 198.609L144.463 213.505Z" fill="#111111"/>
<path fill-rule="evenodd" clip-rule="evenodd" d="M189.69 539.505L162.169 523.616L135.47 539.031V571.337L161.885 586.588L188.736 569.351L189.69 539.505ZM135.919 571.077L161.461 585.823L162.531 555.174L135.919 539.809V571.077ZM162.364 585.746L163.431 555.184L189.214 540.298L188.294 569.1L162.364 585.746ZM136.368 539.03L162.989 554.401L188.79 539.504L162.169 524.134L136.368 539.03Z" fill="#E82910"/>
<path d="M189.915 539.115L190.149 539.25L189.185 569.366L189.178 569.602L188.979 569.729L161.897 587.115L135.245 571.726L135.02 571.597V538.771L135.245 538.642L162.17 523.096L189.915 539.115ZM135.919 571.077L161.461 585.823L162.531 555.174L135.919 539.809V571.077ZM163.431 555.184L162.364 585.746L188.294 569.1L189.214 540.298L163.431 555.184ZM136.368 539.03L162.989 554.401L188.79 539.504L162.169 524.134L136.368 539.03Z" fill="#111111"/>
<path d="M78.3917 410.613L105.912 426.502L104.958 456.348L78.1071 473.585L51.6919 458.335V426.028L78.3917 410.613Z" fill="#E82910"/>
<path d="M106.137 426.112L106.371 426.247L105.407 456.363L105.4 456.599L105.201 456.726L78.1197 474.112L51.467 458.724L51.2422 458.594V425.768L51.467 425.639L78.3919 410.094L106.137 426.112ZM52.1416 458.074L77.6831 472.821L78.7529 442.171L52.1416 426.806V458.074ZM79.6532 442.181L78.5861 472.743L104.516 456.097L105.436 427.296L79.6532 442.181ZM52.5904 426.027L79.2114 441.398L105.012 426.501L78.3911 411.131L52.5904 426.027Z" fill="#111111"/>
<path fill-rule="evenodd" clip-rule="evenodd" d="M136.892 470.969L137.254 470.145L135.577 469.407L135.396 469.819L135.214 470.23L136.892 470.969ZM105.009 456.946L105.372 456.123L102.016 454.646L101.834 455.058L101.653 455.47L105.009 456.946ZM98.4782 453.582L98.6601 453.171L95.304 451.694L95.1222 452.106L94.9412 452.518L98.2973 453.994L98.4782 453.582ZM91.7661 450.63L91.9479 450.219L90.2695 449.48L89.9076 450.304L91.5852 451.042L91.7661 450.63Z" fill="#111111"/>
<path d="M163.027 439.393L190.547 455.283L189.593 485.129L162.742 502.366L136.327 487.115V454.809L163.027 439.393Z" fill="#E82910"/>
<path d="M190.772 454.893L191.006 455.028L190.042 485.143L190.035 485.38L189.836 485.507L162.755 502.893L136.102 487.504L135.877 487.375V454.549L136.102 454.42L163.027 438.874L190.772 454.893ZM136.777 486.855L162.318 501.601L163.388 470.952L136.777 455.587V486.855ZM164.288 470.962L163.221 501.524L189.151 484.878L190.071 456.076L164.288 470.962ZM137.225 454.808L163.846 470.179L189.647 455.282L163.026 439.912L137.225 454.808Z" fill="#111111"/>
<path fill-rule="evenodd" clip-rule="evenodd" d="M222.713 505.708L223.075 504.885L221.397 504.147L221.216 504.559L221.035 504.97L222.713 505.708ZM217.86 503.082L218.041 502.67L214.685 501.195L214.323 502.018L217.679 503.494L217.86 503.082ZM184.299 488.321L184.481 487.91L181.125 486.434L180.943 486.846L180.762 487.258L184.118 488.733L184.299 488.321ZM177.587 485.369L177.769 484.958L176.09 484.219L175.728 485.043L177.406 485.781L177.587 485.369Z" fill="#111111"/>
<path d="M241.87 468.174L269.391 484.063L268.436 513.91L241.585 531.147L215.17 515.896V483.59L241.87 468.174Z" fill="#E82910"/>
<path d="M269.615 483.674L269.849 483.808L268.886 513.924L268.878 514.16L268.679 514.288L241.598 531.673L214.945 516.285L214.72 516.156V483.33L214.945 483.201L241.87 467.655L269.615 483.674ZM215.62 515.636L241.161 530.382L242.231 499.732L215.62 484.368V515.636ZM243.131 499.743L242.064 530.305L267.994 513.659L268.915 484.857L243.131 499.743ZM216.069 483.589L242.69 498.959L268.49 484.063L241.869 468.692L216.069 483.589Z" fill="#111111"/>
<path d="M80.2326 248.399L107.753 264.288L106.799 294.135L79.9481 311.372L53.5328 296.121V263.815L80.2326 248.399Z" fill="#E82910"/>
<path d="M107.978 263.899L108.212 264.033L107.248 294.149L107.241 294.385L107.042 294.513L79.9606 311.898L53.308 296.51L53.0831 296.381V263.555L53.308 263.426L80.2329 247.88L107.978 263.899ZM53.9825 295.861L79.5241 310.607L80.5939 279.957L53.9825 264.593V295.861ZM81.4942 279.968L80.427 310.53L106.357 293.884L107.277 265.082L81.4942 279.968ZM54.4314 263.814L81.0524 279.184L106.853 264.288L80.232 248.917L54.4314 263.814Z" fill="#111111"/>
<path fill-rule="evenodd" clip-rule="evenodd" d="M138.733 308.756L139.095 307.932L137.418 307.194L137.237 307.606L137.055 308.017L138.733 308.756ZM106.85 294.732L107.213 293.909L103.857 292.433L103.675 292.845L103.494 293.257L106.85 294.732ZM100.319 291.368L100.501 290.957L97.145 289.481L96.9631 289.893L96.7822 290.305L100.138 291.78L100.319 291.368ZM93.6071 288.416L93.7889 288.005L92.1104 287.267L91.7486 288.091L93.4261 288.828L93.6071 288.416Z" fill="#111111"/>
<path d="M164.868 277.18L192.388 293.069L191.434 322.915L164.583 340.153L138.168 324.902V292.595L164.868 277.18Z" fill="#E82910"/>
<path d="M192.613 292.68L192.847 292.814L191.883 322.93L191.876 323.166L191.677 323.294L164.596 340.679L137.943 325.291L137.718 325.162V292.335L137.943 292.206L164.868 276.661L192.613 292.68ZM138.617 324.642L164.159 339.388L165.229 308.738L138.617 293.374V324.642ZM166.129 308.749L165.062 339.311L190.992 322.665L191.912 293.863L166.129 308.749ZM139.066 292.595L165.687 307.965L191.488 293.069L164.867 277.698L139.066 292.595Z" fill="#111111"/>
<path fill-rule="evenodd" clip-rule="evenodd" d="M224.916 342.671L224.554 343.495L222.876 342.756L223.057 342.345L223.238 341.933L224.916 342.671ZM219.882 340.457L219.7 340.869L219.52 341.281L216.163 339.804L216.526 338.981L219.882 340.457ZM186.322 325.697L186.14 326.108L185.959 326.52L182.603 325.044L182.784 324.632L182.966 324.22L186.322 325.697ZM179.61 322.745L179.428 323.156L179.247 323.568L177.569 322.83L177.931 322.006L179.61 322.745Z" fill="#111111"/>
<path d="M243.711 305.961L271.232 321.85L270.277 351.696L243.426 368.934L217.011 353.683V321.376L243.711 305.961Z" fill="#E82910"/>
<path d="M271.456 321.461L271.69 321.595L270.726 351.711L270.719 351.947L270.52 352.074L243.439 369.46L216.786 354.072L216.561 353.943V321.116L216.786 320.987L243.711 305.442L271.456 321.461ZM217.461 353.423L243.002 368.169L244.072 337.519L217.461 322.154V353.423ZM244.972 337.529L243.905 368.091L269.835 351.446L270.755 322.644L244.972 337.529ZM217.91 321.375L244.531 336.746L270.331 321.85L243.71 306.479L217.91 321.375Z" fill="#111111"/>
<path d="M249.583 144.819L277.104 160.708L276.15 190.554L249.299 207.792L222.884 192.541V160.234L249.583 144.819Z" fill="#E82910"/>
<path d="M277.329 160.319L277.562 160.453L276.599 190.569L276.592 190.805L276.393 190.933L249.311 208.318L222.659 192.93L222.434 192.801V159.974L222.659 159.845L249.584 144.3L277.329 160.319ZM223.333 192.281L248.875 207.027L249.945 176.377L223.333 161.013V192.281ZM250.845 176.388L249.778 206.95L275.707 190.304L276.628 161.502L250.845 176.388ZM223.782 160.234L250.403 175.604L276.204 160.708L249.583 145.337L223.782 160.234Z" fill="#111111"/>
<path fill-rule="evenodd" clip-rule="evenodd" d="M308.084 205.175L308.446 204.352L306.768 203.614L306.587 204.026L306.406 204.437L308.084 205.175ZM276.201 191.152L276.564 190.329L273.208 188.853L273.026 189.265L272.845 189.677L276.201 191.152ZM269.67 187.788L269.852 187.377L266.496 185.901L266.314 186.313L266.133 186.725L269.489 188.2L269.67 187.788ZM262.958 184.836L263.14 184.425L261.461 183.686L261.099 184.51L262.777 185.248L262.958 184.836Z" fill="#111111"/>
<path d="M334.218 173.6L361.739 189.489L360.785 219.335L333.934 236.572L307.518 221.322V189.015L334.218 173.6Z" fill="#E82910"/>
<path d="M361.964 189.099L362.197 189.234L361.234 219.35L361.227 219.586L361.027 219.713L333.946 237.099L307.294 221.711L307.069 221.582V188.755L307.294 188.626L334.218 173.081L361.964 189.099ZM307.968 221.062L333.51 235.808L334.579 205.158L307.968 189.793V221.062ZM335.48 205.168L334.413 235.73L360.342 219.084L361.263 190.283L335.48 205.168ZM308.417 189.014L335.038 204.385L360.839 189.489L334.218 174.118L308.417 189.014Z" fill="#111111"/>
<path fill-rule="evenodd" clip-rule="evenodd" d="M393.905 239.915L394.267 239.091L392.589 238.353L392.408 238.765L392.226 239.176L393.905 239.915ZM389.051 237.289L389.233 236.877L385.877 235.401L385.514 236.224L388.87 237.7L389.051 237.289ZM355.491 222.527L355.672 222.116L352.316 220.64L352.134 221.052L351.954 221.464L355.31 222.939L355.491 222.527ZM348.778 219.575L348.96 219.164L347.282 218.426L346.92 219.25L348.597 219.987L348.778 219.575Z" fill="#111111"/>
<path d="M413.061 202.381L440.582 218.27L439.628 248.116L412.777 265.353L386.362 250.102V217.796L413.061 202.381Z" fill="#E82910"/>
<path d="M440.807 217.88L441.041 218.015L440.077 248.131L440.07 248.367L439.871 248.494L412.789 265.88L386.137 250.491L385.912 250.362V217.536L386.137 217.407L413.062 201.861L440.807 217.88ZM386.811 249.842L412.353 264.588L413.423 233.939L386.811 218.574V249.842ZM414.323 233.949L413.256 264.511L439.186 247.865L440.106 219.063L414.323 233.949ZM387.26 217.795L413.881 233.166L439.682 218.269L413.061 202.899L387.26 217.795Z" fill="#111111"/>
<path fill-rule="evenodd" clip-rule="evenodd" d="M367.856 29.293L340.335 13.4039L313.635 28.8192V61.1257L340.05 76.3765L366.901 59.1392L367.856 29.293ZM341.596 44.9724L340.529 75.5345L366.459 58.8885L367.379 30.0867L341.596 44.9724ZM339.626 75.6118L314.085 60.8656V29.5974L340.696 44.9619L339.626 75.6118ZM314.534 28.8184L341.155 44.189L366.955 29.2927L340.334 13.9221L314.534 28.8184Z" fill="#E82910"/>
<path d="M368.08 28.9036L368.314 29.038L367.35 59.1538L367.343 59.3901L367.144 59.5174L340.063 76.9029L313.41 61.5147L313.185 61.3856V28.5593L313.41 28.4302L340.335 12.8848L368.08 28.9036ZM314.085 60.8656L339.626 75.6118L340.696 44.9619L314.085 29.5974V60.8656ZM341.596 44.9724L340.529 75.5345L366.459 58.8885L367.379 30.0867L341.596 44.9724ZM314.534 28.8184L341.155 44.189L366.955 29.2927L340.334 13.9221L314.534 28.8184Z" fill="#111111"/>
<path fill-rule="evenodd" clip-rule="evenodd" d="M359.761 354.818L332.24 338.929L305.54 354.344V386.65L331.956 401.901L358.807 384.664L359.761 354.818ZM305.99 386.39L331.532 401.137L332.602 370.487L305.99 355.122V386.39ZM333.06 369.714L306.439 354.343L332.24 339.447L358.861 354.817L333.06 369.714ZM333.502 370.497L332.435 401.059L358.364 384.413L359.285 355.611L333.502 370.497Z" fill="#E82910"/>
<path d="M359.986 354.428L360.219 354.563L359.256 384.679L359.249 384.915L359.049 385.042L331.968 402.428L305.316 387.039L305.091 386.91V354.084L305.316 353.955L332.241 338.41L359.986 354.428ZM305.99 386.39L331.532 401.137L332.602 370.487L305.99 355.122V386.39ZM333.502 370.497L332.435 401.059L358.364 384.413L359.285 355.611L333.502 370.497ZM306.439 354.343L333.06 369.714L358.861 354.817L332.24 339.447L306.439 354.343Z" fill="#111111"/>
<path d="M248.463 225.926L275.983 241.815L275.029 271.661L248.178 288.898L221.763 273.648V241.341L248.463 225.926Z" fill="#E82910"/>
<path d="M276.208 241.425L276.442 241.56L275.478 271.676L275.471 271.912L275.272 272.039L248.191 289.425L221.538 274.037L221.313 273.907V241.081L221.538 240.952L248.463 225.407L276.208 241.425ZM222.212 273.387L247.754 288.134L248.824 257.484L222.212 242.119V273.387ZM249.724 257.494L248.657 288.056L274.587 271.41L275.507 242.609L249.724 257.494ZM222.661 241.34L249.282 256.711L275.083 241.814L248.462 226.444L222.661 241.34Z" fill="#111111"/>
<path fill-rule="evenodd" clip-rule="evenodd" d="M306.963 286.282L307.325 285.458L305.648 284.72L305.467 285.132L305.285 285.543L306.963 286.282ZM275.08 272.259L275.443 271.436L272.087 269.959L271.905 270.371L271.724 270.783L275.08 272.259ZM268.549 268.895L268.731 268.484L265.375 267.007L265.193 267.419L265.012 267.831L268.368 269.307L268.549 268.895ZM261.837 265.943L262.019 265.532L260.34 264.793L259.978 265.617L261.656 266.355L261.837 265.943Z" fill="#111111"/>
<path d="M333.097 254.706L360.618 270.596L359.664 300.442L332.813 317.679L306.398 302.428V270.122L333.097 254.706Z" fill="#E82910"/>
<path d="M360.843 270.206L361.077 270.341L360.113 300.456L360.106 300.693L359.907 300.82L332.825 318.206L306.173 302.817L305.948 302.688V269.862L306.173 269.733L333.098 254.187L360.843 270.206ZM306.847 302.168L332.389 316.914L333.459 286.265L306.847 270.9V302.168ZM334.359 286.275L333.292 316.837L359.222 300.191L360.142 271.389L334.359 286.275ZM307.296 270.121L333.917 285.492L359.718 270.595L333.097 255.225L307.296 270.121Z" fill="#111111"/>
<path fill-rule="evenodd" clip-rule="evenodd" d="M392.784 321.021L393.146 320.198L391.468 319.46L391.287 319.872L391.106 320.283L392.784 321.021ZM387.93 318.395L388.112 317.983L384.756 316.508L384.393 317.331L387.749 318.807L387.93 318.395ZM354.37 303.634L354.552 303.223L351.196 301.747L351.014 302.159L350.833 302.571L354.189 304.046L354.37 303.634ZM347.658 300.682L347.839 300.271L346.161 299.532L345.799 300.356L347.477 301.094L347.658 300.682Z" fill="#111111"/>
<path d="M411.941 283.487L439.461 299.376L438.507 329.223L411.656 346.46L385.241 331.209V298.903L411.941 283.487Z" fill="#E82910"/>
<path d="M439.686 298.987L439.92 299.121L438.956 329.237L438.949 329.473L438.75 329.601L411.669 346.986L385.016 331.598L384.791 331.469V298.643L385.016 298.514L411.941 282.968L439.686 298.987ZM385.691 330.949L411.232 345.695L412.302 315.045L385.691 299.681V330.949ZM413.202 315.056L412.135 345.618L438.065 328.972L438.985 300.17L413.202 315.056ZM386.139 298.902L412.76 314.272L438.561 299.376L411.94 284.005L386.139 298.902Z" fill="#111111"/>
<path d="M250.304 63.7123L277.824 79.6014L276.87 109.448L250.019 126.685L223.604 111.434V79.1276L250.304 63.7123Z" fill="#E82910"/>
<path d="M278.049 79.212L278.283 79.3464L277.319 109.462L277.312 109.698L277.113 109.826L250.032 127.211L223.379 111.823L223.154 111.694V78.8677L223.379 78.7386L250.304 63.1932L278.049 79.212ZM224.053 111.174L249.595 125.92L250.665 95.2703L224.053 79.9059V111.174ZM251.565 95.2809L250.498 125.843L276.428 109.197L277.348 80.3951L251.565 95.2809ZM224.502 79.1268L251.123 94.4974L276.924 79.6011L250.303 64.2305L224.502 79.1268Z" fill="#111111"/>
<path fill-rule="evenodd" clip-rule="evenodd" d="M308.804 124.069L309.166 123.245L307.489 122.507L307.308 122.919L307.126 123.33L308.804 124.069ZM276.921 110.045L277.284 109.222L273.928 107.746L273.746 108.158L273.565 108.57L276.921 110.045ZM270.39 106.681L270.572 106.27L267.216 104.794L267.034 105.206L266.853 105.618L270.209 107.093L270.39 106.681ZM263.678 103.729L263.86 103.318L262.181 102.58L261.819 103.404L263.497 104.141L263.678 103.729Z" fill="#111111"/>
<path d="M334.938 92.4931L362.459 108.382L361.505 138.228L334.654 155.466L308.239 140.215V107.908L334.938 92.4931Z" fill="#E82910"/>
<path d="M362.684 107.993L362.918 108.127L361.954 138.243L361.947 138.479L361.748 138.607L334.666 155.992L308.014 140.604L307.789 140.475V107.648L308.014 107.519L334.939 91.974L362.684 107.993ZM308.688 139.955L334.23 154.701L335.3 124.051L308.688 108.687V139.955ZM336.2 124.062L335.133 154.624L361.063 137.978L361.983 109.176L336.2 124.062ZM309.137 107.908L335.758 123.278L361.559 108.382L334.938 93.0113L309.137 107.908Z" fill="#111111"/>
<path fill-rule="evenodd" clip-rule="evenodd" d="M394.625 158.808L394.987 157.984L393.309 157.246L393.128 157.658L392.946 158.069L394.625 158.808ZM389.771 156.182L389.953 155.77L386.597 154.294L386.234 155.117L389.59 156.594L389.771 156.182ZM356.211 141.421L356.393 141.01L353.036 139.533L352.855 139.945L352.674 140.357L356.03 141.833L356.211 141.421ZM349.499 138.469L349.68 138.058L348.002 137.319L347.64 138.143L349.318 138.881L349.499 138.469Z" fill="#111111"/>
<path d="M413.782 121.274L441.302 137.163L440.348 167.009L413.497 184.247L387.082 168.996V136.689L413.782 121.274Z" fill="#E82910"/>
<path d="M441.527 136.774L441.761 136.908L440.797 167.024L440.79 167.26L440.591 167.387L413.51 184.773L386.857 169.385L386.632 169.256V136.429L386.857 136.3L413.782 120.755L441.527 136.774ZM387.532 168.736L413.073 183.482L414.143 152.832L387.532 137.467V168.736ZM415.043 152.842L413.976 183.404L439.906 166.759L440.826 137.957L415.043 152.842ZM387.98 136.688L414.601 152.059L440.402 137.163L413.781 121.792L387.98 136.688Z" fill="#111111"/>
<path fill-rule="evenodd" clip-rule="evenodd" d="M119.917 380.92L119.735 381.332L119.554 381.744L116.198 380.268L116.379 379.856L116.561 379.445L119.917 380.92ZM126.448 384.284L126.629 383.872L123.273 382.397L123.091 382.808L122.91 383.22L126.267 384.696L126.448 384.284ZM133.16 387.236L133.341 386.824L129.985 385.349L129.623 386.172L132.979 387.648L133.16 387.236Z" fill="#ECECEC"/>
<path d="M112.842 378.791L113.205 377.968L109.849 376.492L109.667 376.904L109.486 377.316L112.842 378.791Z" fill="#ECECEC"/>
<path d="M113.925 296.861L113.563 297.684L110.206 296.209L110.387 295.797L110.569 295.385L113.925 296.861ZM120.637 299.813L120.456 300.225L120.275 300.637L116.919 299.161L117.1 298.749L117.281 298.338L120.637 299.813ZM127.169 303.177L127.35 302.766L123.993 301.29L123.812 301.701L123.631 302.113L126.987 303.589L127.169 303.177ZM134.062 305.718L133.88 306.129L133.699 306.541L130.343 305.065L130.706 304.242L134.062 305.718Z" fill="#ECECEC"/>
<path d="M283.276 193.281L282.913 194.104L279.557 192.629L279.738 192.217L279.92 191.805L283.276 193.281ZM289.806 196.645L289.988 196.233L286.632 194.758L286.45 195.169L286.269 195.581L289.625 197.057L289.806 196.645ZM296.7 199.185L296.519 199.597L296.337 200.009L292.981 198.533L293.162 198.121L293.344 197.71L296.7 199.185ZM303.412 202.137L303.23 202.549L303.05 202.961L299.693 201.485L300.056 200.662L303.412 202.137Z" fill="#ECECEC"/>
<path d="M283.996 112.174L283.633 112.997L280.277 111.522L280.458 111.11L280.64 110.698L283.996 112.174ZM290.526 115.538L290.708 115.126L287.352 113.651L287.17 114.062L286.989 114.474L290.346 115.95L290.526 115.538ZM297.42 118.079L297.239 118.49L297.058 118.902L293.702 117.426L293.883 117.014L294.064 116.603L297.42 118.079ZM304.133 121.031L303.951 121.442L303.77 121.854L300.414 120.378L300.776 119.555L304.133 121.031Z" fill="#ECECEC"/>
<path d="M363.105 143.962L362.742 144.785L359.386 143.309L359.567 142.897L359.749 142.485L363.105 143.962ZM369.454 147.737L369.817 146.914L366.461 145.437L366.279 145.849L366.098 146.261L369.454 147.737ZM376.347 150.278L376.529 149.866L373.173 148.39L372.991 148.801L372.81 149.213L376.166 150.69L376.347 150.278ZM383.241 152.818L383.06 153.23L382.878 153.642L379.522 152.165L379.703 151.753L379.885 151.342L383.241 152.818Z" fill="#ECECEC"/>
<path d="M362.384 225.068L362.022 225.891L358.666 224.416L358.847 224.004L359.028 223.592L362.384 225.068ZM368.734 228.843L369.097 228.02L365.741 226.544L365.559 226.956L365.378 227.368L368.734 228.843ZM375.809 230.973L375.627 231.384L375.446 231.796L372.09 230.32L372.271 229.908L372.453 229.497L375.809 230.973ZM382.521 233.925L382.34 234.336L382.158 234.748L378.802 233.272L378.983 232.86L379.165 232.449L382.521 233.925Z" fill="#ECECEC"/>
<path d="M361.264 306.175L360.901 306.998L357.545 305.523L357.726 305.111L357.908 304.699L361.264 306.175ZM367.613 309.95L367.976 309.127L364.62 307.651L364.438 308.063L364.257 308.475L367.613 309.95ZM374.688 312.079L374.506 312.491L374.325 312.903L370.969 311.427L371.15 311.015L371.332 310.604L374.688 312.079ZM381.4 315.031L381.219 315.443L381.037 315.855L377.681 314.379L377.862 313.967L378.044 313.556L381.4 315.031Z" fill="#ECECEC"/>
<path d="M191.193 490.862L190.83 491.685L187.474 490.21L187.655 489.798L187.837 489.386L191.193 490.862ZM197.542 494.637L197.905 493.814L194.549 492.338L194.367 492.75L194.186 493.162L197.542 494.637ZM204.617 496.766L204.435 497.178L204.254 497.59L200.898 496.114L201.079 495.702L201.261 495.291L204.617 496.766ZM211.329 499.718L211.148 500.13L210.966 500.542L207.61 499.066L207.791 498.654L207.973 498.243L211.329 499.718Z" fill="#ECECEC"/>
<path d="M112.084 459.075L111.722 459.898L108.365 458.422L108.546 458.01L108.728 457.598L112.084 459.075ZM118.796 462.027L118.615 462.439L118.434 462.851L115.078 461.374L115.259 460.962L115.44 460.551L118.796 462.027ZM125.509 464.979L125.328 465.391L125.146 465.803L121.79 464.326L121.971 463.914L122.152 463.503L125.509 464.979ZM132.221 467.931L132.039 468.343L131.858 468.755L128.502 467.278L128.865 466.455L132.221 467.931Z" fill="#ECECEC"/>
<path fill-rule="evenodd" clip-rule="evenodd" d="M288.867 277.34L288.686 277.752L288.505 278.164L285.148 276.687L285.329 276.275L285.511 275.864L288.867 277.34ZM295.398 280.704L295.579 280.292L292.223 278.816L292.042 279.227L291.861 279.639L295.217 281.116L295.398 280.704ZM302.11 283.656L302.292 283.244L298.935 281.768L298.573 282.591L301.929 284.068L302.11 283.656Z" fill="#ECECEC"/>
<path d="M281.792 275.211L282.155 274.388L278.799 272.911L278.617 273.323L278.436 273.735L281.792 275.211Z" fill="#ECECEC"/>
<path d="M333.06 369.714L306.439 354.343L332.24 339.447L358.861 354.817L333.06 369.714Z" fill="#ECECEC"/>
<path d="M305.99 386.39L331.532 401.137L332.602 370.487L305.99 355.122V386.39Z" fill="#ECECEC"/>
<path d="M333.502 370.497L332.435 401.059L358.364 384.413L359.285 355.611L333.502 370.497Z" fill="#ECECEC"/>
<path d="M162.364 585.746L163.431 555.184L189.214 540.298L188.294 569.1L162.364 585.746Z" fill="#ECECEC"/>
<path d="M136.368 539.03L162.989 554.401L188.79 539.504L162.169 524.134L136.368 539.03Z" fill="#ECECEC"/>
<path d="M135.919 571.077L161.461 585.823L162.531 555.174L135.919 539.809V571.077Z" fill="#ECECEC"/>
<path d="M171.525 229.659L170.458 260.221L196.388 243.576L197.309 214.774L171.525 229.659Z" fill="#ECECEC"/>
<path d="M144.014 245.553L169.555 260.299L170.625 229.649L144.014 214.284V245.553Z" fill="#ECECEC"/>
<path d="M171.084 228.876L144.463 213.505L170.263 198.609L196.884 213.98L171.084 228.876Z" fill="#ECECEC"/>
<path fill-rule="evenodd" clip-rule="evenodd" d="M314.085 60.8656L339.626 75.6118L340.696 44.9619L314.085 29.5974V60.8656Z" fill="#ECECEC"/>
<path d="M340.529 75.5345L341.596 44.9724L367.379 30.0867L366.459 58.8885L340.529 75.5345Z" fill="#ECECEC"/>
<path d="M341.155 44.189L314.534 28.8184L340.334 13.9221L366.955 29.2927L341.155 44.189Z" fill="#ECECEC"/>
<path fill-rule="evenodd" clip-rule="evenodd" d="M199.026 412.707L198.663 413.53L195.307 412.055L195.488 411.643L195.67 411.231L199.026 412.707ZM205.556 416.071L205.738 415.66L202.382 414.184L202.2 414.595L202.019 415.007L205.375 416.483L205.556 416.071ZM212.269 419.023L212.45 418.612L209.094 417.136L208.912 417.547L208.731 417.959L212.087 419.435L212.269 419.023Z" fill="#ECECEC"/>
<path d="M191.951 410.578L192.314 409.755L188.958 408.279L188.776 408.691L188.595 409.103L191.951 410.578Z" fill="#ECECEC"/>
<path d="M192.671 329.472L189.315 327.996L189.496 327.584L189.678 327.172L193.034 328.649L192.671 329.472Z" fill="#ECECEC"/>
<path fill-rule="evenodd" clip-rule="evenodd" d="M199.746 331.601L199.383 332.424L196.027 330.948L196.208 330.536L196.39 330.124L199.746 331.601ZM206.276 334.965L206.458 334.553L203.102 333.077L202.92 333.488L202.739 333.9L206.095 335.377L206.276 334.965ZM212.989 337.917L213.17 337.505L209.814 336.029L209.632 336.44L209.451 336.852L212.807 338.329L212.989 337.917Z" fill="#ECECEC"/>
<path d="M20.075 12V27.7459M12.1289 19.846H28.1289" stroke="white" stroke-width="1.57459"/>
<path d="M20.075 575.265V591.011M12.1289 583.111H28.1289" stroke="white" stroke-width="1.57459"/>
<path d="M472.946 572.265V588.011M465 580.111H481" stroke="white" stroke-width="1.57459"/>
<path d="M472.946 9V24.7459M465 16.846H481" stroke="white" stroke-width="1.57459"/>
</g>
<rect x="492.55" y="0.4497" width="599.101" height="492.101" transform="rotate(90 492.55 0.4497)" stroke="white" stroke-width="0.8994" stroke-dasharray="1.8 3.6 5.4 7.2"/>
<defs>
<clipPath id="clip0_186_246">
<rect x="493" width="600" height="493" transform="rotate(90 493 0)" fill="white"/>
</clipPath>
</defs>
</svg>
